0, 0, Header, 1, 4, 1024
1, 0, Start_track
1, 0, SMPTE_offset, 96, 0, 0, 0, 0
1, 0, Time_signature, 4, 2, 24, 8
1, 0, Key_signature, -2, "major"
1, 0, Tempo, 508474
1, 0, Tempo, 550461
1, 0, Tempo, 550542
1, 47104, Tempo, 550542
1, 47360, Tempo, 555620
1, 47616, Tempo, 558343
1, 47872, Tempo, 560792
1, 48128, Tempo, 563571
1, 48384, Tempo, 566062
1, 48640, Tempo, 568893
1, 48896, Tempo, 574316
1, 49408, Tempo, 550542
1, 100352, Tempo, 550542
1, 100608, Tempo, 555620
1, 100864, Tempo, 558343
1, 101120, Tempo, 560792
1, 101376, Tempo, 563571
1, 101632, Tempo, 566062
1, 101888, Tempo, 568893
1, 102144, Tempo, 574316
1, 102656, Tempo, 550542
1, 108544, Tempo, 550542
1, 108800, Tempo, 555620
1, 109056, Tempo, 558343
1, 109312, Tempo, 560792
1, 109568, Tempo, 563571
1, 109824, Tempo, 566062
1, 110080, Tempo, 568893
1, 110336, Tempo, 574316
1, 110848, Tempo, 550542
1, 129024, Tempo, 550542
1, 129280, Tempo, 555620
1, 129536, Tempo, 558343
1, 129792, Tempo, 560792
1, 130048, Tempo, 563571
1, 130304, Tempo, 566062
1, 130560, Tempo, 568893
1, 130816, Tempo, 574316
1, 131328, Tempo, 550542
1, 145408, Tempo, 550542
1, 145664, Tempo, 555620
1, 145920, Tempo, 558343
1, 146176, Tempo, 560792
1, 146432, Tempo, 563571
1, 146688, Tempo, 566062
1, 146944, Tempo, 568893
1, 147200, Tempo, 574316
1, 147712, Tempo, 550542
1, 161792, Tempo, 550542
1, 162048, Tempo, 553215
1, 162304, Tempo, 555620
1, 162560, Tempo, 555620
1, 162816, Tempo, 558343
1, 163072, Tempo, 558343
1, 163328, Tempo, 560792
1, 163584, Tempo, 563571
1, 163840, Tempo, 550542
1, 165888, Tempo, 550542
1, 166144, Tempo, 555620
1, 166400, Tempo, 558343
1, 166656, Tempo, 560792
1, 166912, Tempo, 563571
1, 167168, Tempo, 566062
1, 167424, Tempo, 568893
1, 167680, Tempo, 574316
1, 168192, Tempo, 550542
1, 174080, Tempo, 550542
1, 174336, Tempo, 555620
1, 174592, Tempo, 558343
1, 174848, Tempo, 560792
1, 175104, Tempo, 563571
1, 175360, Tempo, 566062
1, 175616, Tempo, 568893
1, 175872, Tempo, 574316
1, 176384, Tempo, 550542
1, 194560, Tempo, 550542
1, 194816, Tempo, 555620
1, 195072, Tempo, 558343
1, 195328, Tempo, 560792
1, 195584, Tempo, 563571
1, 195840, Tempo, 566062
1, 196096, Tempo, 568893
1, 196352, Tempo, 574316
1, 196864, Tempo, 550542
1, 219136, Tempo, 550542
1, 219392, Tempo, 555620
1, 219648, Tempo, 558343
1, 219904, Tempo, 560792
1, 220160, Tempo, 563571
1, 220416, Tempo, 566062
1, 220672, Tempo, 568893
1, 220928, Tempo, 574316
1, 221440, Tempo, 550542
1, 268288, Tempo, 550542
1, 268544, Tempo, 553215
1, 268800, Tempo, 555620
1, 269056, Tempo, 555620
1, 269312, Tempo, 558343
1, 269568, Tempo, 558343
1, 269824, Tempo, 560792
1, 270080, Tempo, 563571
1, 270336, Tempo, 550542
1, 272384, Tempo, 550542
1, 272640, Tempo, 555620
1, 272896, Tempo, 558343
1, 273152, Tempo, 560792
1, 273408, Tempo, 563571
1, 273664, Tempo, 566062
1, 273920, Tempo, 568893
1, 274176, Tempo, 574316
1, 274688, Tempo, 550542
1, 280576, Tempo, 550542
1, 280832, Tempo, 555620
1, 281088, Tempo, 558343
1, 281344, Tempo, 560792
1, 281600, Tempo, 563571
1, 281856, Tempo, 566062
1, 282112, Tempo, 568893
1, 282368, Tempo, 574316
1, 282880, Tempo, 550542
1, 321536, Tempo, 550542
1, 321792, Tempo, 555620
1, 322048, Tempo, 558343
1, 322304, Tempo, 560792
1, 322560, Tempo, 563571
1, 322816, Tempo, 566062
1, 323072, Tempo, 568893
1, 323328, Tempo, 574316
1, 323840, Tempo, 550542
1, 329728, Tempo, 550542
1, 329984, Tempo, 555620
1, 330240, Tempo, 558343
1, 330496, Tempo, 560792
1, 330752, Tempo, 563571
1, 331008, Tempo, 566062
1, 331264, Tempo, 568893
1, 331520, Tempo, 574316
1, 332032, Tempo, 550542
1, 343548, End_track
2, 0, Start_track
2, 0, Unknown_meta_event, 9, 22, 83, 109, 97, 114, 116, 77, 117, 115, 105, 99, 32, 83, 111, 102, 116, 83, 121, 110, 116, 104, 32, 49
2, 0, Title_t, "Flute"
2, 0, Program_c, 0, 73
2, 0, Control_c, 0, 7, 101
2, 0, Control_c, 0, 10, 14
2, 0, Control_c, 0, 7, 102
2, 3, Control_c, 0, 100, 0
2, 3, Control_c, 0, 101, 0
2, 4, Control_c, 0, 6, 12
2, 5, Control_c, 0, 38, 0
2, 10, Control_c, 0, 7, 90
2, 10, Note_on_c, 0, 82, 60
2, 484, Note_off_c, 0, 82, 0
2, 546, Note_on_c, 0, 70, 75
2, 992, Note_off_c, 0, 70, 0
2, 1559, Note_on_c, 0, 73, 55
2, 1750, Note_off_c, 0, 73, 0
2, 1807, Note_on_c, 0, 70, 55
2, 2012, Note_off_c, 0, 70, 0
2, 2069, Note_on_c, 0, 76, 55
2, 2242, Control_c, 0, 7, 91
2, 2342, Control_c, 0, 7, 92
2, 2442, Control_c, 0, 7, 94
2, 2542, Control_c, 0, 7, 96
2, 2642, Control_c, 0, 7, 97
2, 2742, Control_c, 0, 7, 99
2, 2842, Control_c, 0, 7, 100
2, 2942, Control_c, 0, 7, 101
2, 3057, Control_c, 0, 7, 102
2, 3156, Control_c, 0, 7, 101
2, 3255, Control_c, 0, 7, 100
2, 3354, Control_c, 0, 7, 99
2, 3453, Control_c, 0, 7, 97
2, 3552, Control_c, 0, 7, 96
2, 3651, Control_c, 0, 7, 94
2, 3750, Control_c, 0, 7, 92
2, 3849, Control_c, 0, 7, 91
2, 3948, Control_c, 0, 7, 90
2, 4100, Note_on_c, 0, 77, 50
2, 4147, Note_off_c, 0, 76, 0
2, 4399, Control_c, 0, 7, 88
2, 4495, Control_c, 0, 7, 86
2, 4591, Control_c, 0, 7, 85
2, 4687, Control_c, 0, 7, 83
2, 4783, Control_c, 0, 7, 82
2, 4879, Control_c, 0, 7, 80
2, 4975, Control_c, 0, 7, 78
2, 5071, Control_c, 0, 7, 77
2, 5167, Control_c, 0, 7, 75
2, 5263, Control_c, 0, 7, 74
2, 5359, Control_c, 0, 7, 72
2, 5455, Control_c, 0, 7, 70
2, 5551, Control_c, 0, 7, 69
2, 5647, Control_c, 0, 7, 67
2, 5743, Control_c, 0, 7, 66
2, 5839, Control_c, 0, 7, 64
2, 5935, Control_c, 0, 7, 63
2, 6031, Control_c, 0, 7, 61
2, 6127, Control_c, 0, 7, 59
2, 6223, Control_c, 0, 7, 58
2, 6319, Control_c, 0, 7, 56
2, 6415, Control_c, 0, 7, 55
2, 6511, Control_c, 0, 7, 53
2, 6607, Control_c, 0, 7, 51
2, 6703, Control_c, 0, 7, 50
2, 6799, Control_c, 0, 7, 48
2, 6895, Control_c, 0, 7, 47
2, 7078, Note_off_c, 0, 77, 0
2, 8169, Control_c, 0, 7, 77
2, 8196, Note_on_c, 0, 82, 69
2, 8676, Note_off_c, 0, 82, 0
2, 8738, Note_on_c, 0, 70, 84
2, 9184, Note_off_c, 0, 70, 0
2, 9751, Note_on_c, 0, 73, 64
2, 9942, Note_off_c, 0, 73, 0
2, 9999, Note_on_c, 0, 70, 64
2, 10204, Note_off_c, 0, 70, 0
2, 10261, Note_on_c, 0, 76, 67
2, 10909, Control_c, 0, 7, 78
2, 11194, Control_c, 0, 7, 79
2, 11214, Note_off_c, 0, 76, 0
2, 11276, Note_on_c, 0, 72, 65
2, 11289, Control_c, 0, 7, 80
2, 11479, Control_c, 0, 7, 81
2, 11574, Control_c, 0, 7, 82
2, 11764, Control_c, 0, 7, 83
2, 11859, Control_c, 0, 7, 84
2, 11954, Control_c, 0, 7, 85
2, 12049, Control_c, 0, 7, 86
2, 12144, Control_c, 0, 7, 87
2, 12239, Control_c, 0, 7, 88
2, 12334, Control_c, 0, 7, 89
2, 12429, Control_c, 0, 7, 90
2, 12619, Control_c, 0, 7, 91
2, 12714, Control_c, 0, 7, 92
2, 12809, Control_c, 0, 7, 93
2, 12904, Control_c, 0, 7, 94
2, 12999, Control_c, 0, 7, 95
2, 13094, Control_c, 0, 7, 96
2, 13280, Note_off_c, 0, 72, 0
2, 13284, Control_c, 0, 7, 97
2, 13379, Control_c, 0, 7, 98
2, 13474, Control_c, 0, 7, 99
2, 13664, Control_c, 0, 7, 100
2, 13854, Control_c, 0, 7, 101
2, 14330, Control_c, 0, 7, 102
2, 14357, Note_on_c, 0, 73, 65
2, 15310, Note_off_c, 0, 73, 0
2, 15372, Note_on_c, 0, 70, 63
2, 15815, Note_off_c, 0, 70, 0
2, 16293, Control_c, 0, 7, 77
2, 16388, Note_on_c, 0, 82, 69
2, 16868, Note_off_c, 0, 82, 0
2, 16930, Note_on_c, 0, 70, 84
2, 17376, Note_off_c, 0, 70, 0
2, 17943, Note_on_c, 0, 73, 64
2, 18134, Note_off_c, 0, 73, 0
2, 18191, Note_on_c, 0, 70, 64
2, 18396, Note_off_c, 0, 70, 0
2, 18453, Note_on_c, 0, 76, 67
2, 18726, Control_c, 0, 7, 78
2, 18826, Control_c, 0, 7, 80
2, 18926, Control_c, 0, 7, 81
2, 19026, Control_c, 0, 7, 82
2, 19126, Control_c, 0, 7, 84
2, 19226, Control_c, 0, 7, 85
2, 19441, Control_c, 0, 7, 86
2, 19540, Control_c, 0, 7, 85
2, 19738, Control_c, 0, 7, 84
2, 19837, Control_c, 0, 7, 82
2, 19936, Control_c, 0, 7, 81
2, 20035, Control_c, 0, 7, 80
2, 20134, Control_c, 0, 7, 78
2, 20233, Control_c, 0, 7, 77
2, 20418, Note_off_c, 0, 76, 0
2, 20484, Note_on_c, 0, 77, 69
2, 20964, Note_off_c, 0, 77, 0
2, 21026, Note_on_c, 0, 65, 84
2, 21472, Note_off_c, 0, 65, 0
2, 22039, Note_on_c, 0, 85, 64
2, 22230, Note_off_c, 0, 85, 0
2, 22287, Note_on_c, 0, 82, 64
2, 22394, Note_off_c, 0, 82, 0
2, 22549, Note_on_c, 0, 82, 67
2, 23474, Control_c, 0, 7, 78
2, 23502, Note_off_c, 0, 82, 0
2, 23564, Note_on_c, 0, 80, 65
2, 23756, Control_c, 0, 7, 79
2, 24038, Control_c, 0, 7, 80
2, 24226, Control_c, 0, 7, 81
2, 24508, Control_c, 0, 7, 82
2, 24514, Note_off_c, 0, 80, 0
2, 24580, Note_on_c, 0, 82, 69
2, 24696, Control_c, 0, 7, 83
2, 24790, Control_c, 0, 7, 84
2, 24978, Control_c, 0, 7, 85
2, 25060, Note_off_c, 0, 82, 0
2, 25122, Note_on_c, 0, 70, 84
2, 25166, Control_c, 0, 7, 86
2, 25354, Control_c, 0, 7, 87
2, 25448, Control_c, 0, 7, 88
2, 25568, Note_off_c, 0, 70, 0
2, 25636, Control_c, 0, 7, 89
2, 25824, Control_c, 0, 7, 90
2, 26012, Control_c, 0, 7, 91
2, 26106, Control_c, 0, 7, 92
2, 26135, Note_on_c, 0, 73, 64
2, 26294, Control_c, 0, 7, 93
2, 26326, Note_off_c, 0, 73, 0
2, 26383, Note_on_c, 0, 70, 64
2, 26482, Control_c, 0, 7, 94
2, 26588, Note_off_c, 0, 70, 0
2, 26645, Note_on_c, 0, 76, 67
2, 26670, Control_c, 0, 7, 95
2, 26764, Control_c, 0, 7, 96
2, 26952, Control_c, 0, 7, 97
2, 27234, Control_c, 0, 7, 98
2, 27422, Control_c, 0, 7, 99
2, 27704, Control_c, 0, 7, 100
2, 27986, Control_c, 0, 7, 101
2, 28610, Note_off_c, 0, 76, 0
2, 28649, Control_c, 0, 7, 102
2, 29218, Note_on_c, 0, 76, 62
2, 29664, Note_off_c, 0, 76, 0
2, 29726, Note_on_c, 0, 73, 62
2, 29984, Note_on_c, 0, 71, 57
2, 30035, Note_off_c, 0, 73, 0
2, 30140, Note_off_c, 0, 71, 0
2, 30231, Note_on_c, 0, 69, 62
2, 30324, Note_off_c, 0, 69, 0
2, 30479, Note_on_c, 0, 65, 62
2, 30586, Note_off_c, 0, 65, 0
2, 30741, Note_on_c, 0, 70, 65
2, 31189, Note_off_c, 0, 70, 0
2, 32745, Control_c, 0, 7, 63
2, 32772, Note_on_c, 0, 82, 79
2, 33252, Note_off_c, 0, 82, 0
2, 33314, Note_on_c, 0, 70, 94
2, 33760, Note_off_c, 0, 70, 0
2, 33887, Control_c, 0, 7, 66
2, 33988, Control_c, 0, 7, 70
2, 34089, Control_c, 0, 7, 74
2, 34190, Control_c, 0, 7, 78
2, 34291, Control_c, 0, 7, 82
2, 34327, Note_on_c, 0, 73, 74
2, 34392, Control_c, 0, 7, 86
2, 34493, Control_c, 0, 7, 90
2, 34518, Note_off_c, 0, 73, 0
2, 34575, Note_on_c, 0, 70, 74
2, 34594, Control_c, 0, 7, 94
2, 34688, Note_on_c, 0, 75, 49
2, 34695, Control_c, 0, 7, 98
2, 34780, Note_off_c, 0, 70, 0
2, 34796, Control_c, 0, 7, 102
2, 34816, Note_off_c, 0, 75, 0
2, 34824, Note_on_c, 0, 76, 78
2, 36802, Note_off_c, 0, 76, 0
2, 36864, Control_c, 0, 7, 61
2, 36868, Note_on_c, 0, 77, 81
2, 37348, Note_off_c, 0, 77, 0
2, 37410, Note_on_c, 0, 65, 96
2, 37856, Note_off_c, 0, 65, 0
2, 38423, Note_on_c, 0, 85, 76
2, 38614, Note_off_c, 0, 85, 0
2, 38671, Note_on_c, 0, 82, 76
2, 38778, Note_off_c, 0, 82, 0
2, 38906, Control_c, 0, 7, 98
2, 38933, Note_on_c, 0, 82, 80
2, 39886, Note_off_c, 0, 82, 0
2, 39948, Note_on_c, 0, 80, 78
2, 40898, Note_off_c, 0, 80, 0
2, 40937, Control_c, 0, 7, 61
2, 40964, Note_on_c, 0, 82, 81
2, 41444, Note_off_c, 0, 82, 0
2, 41506, Note_on_c, 0, 70, 96
2, 41952, Note_off_c, 0, 70, 0
2, 42519, Note_on_c, 0, 73, 76
2, 42710, Note_off_c, 0, 73, 0
2, 42767, Note_on_c, 0, 70, 76
2, 42880, Note_on_c, 0, 75, 76
2, 42972, Note_off_c, 0, 70, 0
2, 43008, Note_off_c, 0, 75, 0
2, 43016, Note_on_c, 0, 76, 79
2, 43573, Control_c, 0, 7, 62
2, 43849, Control_c, 0, 7, 63
2, 44033, Control_c, 0, 7, 64
2, 44217, Control_c, 0, 7, 65
2, 44401, Control_c, 0, 7, 66
2, 44585, Control_c, 0, 7, 67
2, 44677, Control_c, 0, 7, 68
2, 44861, Control_c, 0, 7, 69
2, 44953, Control_c, 0, 7, 70
2, 44994, Note_off_c, 0, 76, 0
2, 45045, Control_c, 0, 7, 71
2, 45060, Note_on_c, 0, 73, 81
2, 45229, Control_c, 0, 7, 72
2, 45321, Control_c, 0, 7, 73
2, 45413, Control_c, 0, 7, 74
2, 45597, Control_c, 0, 7, 75
2, 45689, Control_c, 0, 7, 76
2, 45781, Control_c, 0, 7, 77
2, 45873, Control_c, 0, 7, 78
2, 45965, Control_c, 0, 7, 79
2, 46048, Note_off_c, 0, 73, 0
2, 46110, Note_on_c, 0, 75, 77
2, 46149, Control_c, 0, 7, 80
2, 46241, Control_c, 0, 7, 81
2, 46333, Control_c, 0, 7, 82
2, 46425, Control_c, 0, 7, 83
2, 46609, Control_c, 0, 7, 84
2, 46701, Control_c, 0, 7, 85
2, 46793, Control_c, 0, 7, 86
2, 46885, Control_c, 0, 7, 87
2, 47063, Note_off_c, 0, 75, 0
2, 47069, Control_c, 0, 7, 88
2, 47125, Note_on_c, 0, 76, 79
2, 47161, Control_c, 0, 7, 89
2, 47253, Control_c, 0, 7, 90
2, 47437, Control_c, 0, 7, 91
2, 47529, Control_c, 0, 7, 92
2, 47713, Control_c, 0, 7, 93
2, 47897, Control_c, 0, 7, 94
2, 48078, Note_off_c, 0, 76, 0
2, 48081, Control_c, 0, 7, 95
2, 48140, Note_on_c, 0, 78, 77
2, 48265, Control_c, 0, 7, 96
2, 48541, Control_c, 0, 7, 97
2, 49092, Note_off_c, 0, 78, 0
2, 49130, Control_c, 0, 7, 98
2, 49156, Note_on_c, 0, 80, 77
2, 49450, Control_c, 0, 7, 97
2, 49723, Control_c, 0, 7, 96
2, 49814, Control_c, 0, 7, 95
2, 49905, Control_c, 0, 7, 94
2, 49996, Control_c, 0, 7, 93
2, 50087, Control_c, 0, 7, 91
2, 50178, Control_c, 0, 7, 90
2, 50269, Control_c, 0, 7, 88
2, 50360, Control_c, 0, 7, 87
2, 50451, Control_c, 0, 7, 85
2, 50542, Control_c, 0, 7, 84
2, 50633, Control_c, 0, 7, 82
2, 50724, Control_c, 0, 7, 80
2, 50815, Control_c, 0, 7, 78
2, 50906, Control_c, 0, 7, 76
2, 50997, Control_c, 0, 7, 75
2, 51088, Control_c, 0, 7, 73
2, 51179, Control_c, 0, 7, 71
2, 51270, Control_c, 0, 7, 70
2, 51361, Control_c, 0, 7, 68
2, 51452, Control_c, 0, 7, 67
2, 51543, Control_c, 0, 7, 65
2, 51634, Control_c, 0, 7, 64
2, 51725, Control_c, 0, 7, 63
2, 51816, Control_c, 0, 7, 62
2, 51998, Control_c, 0, 7, 61
2, 52549, Pitch_bend_c, 0, 8192
2, 52608, Pitch_bend_c, 0, 8267
2, 52667, Pitch_bend_c, 0, 8462
2, 52726, Pitch_bend_c, 0, 8728
2, 52738, Note_off_c, 0, 80, 0
2, 52785, Pitch_bend_c, 0, 9019
2, 52844, Pitch_bend_c, 0, 9285
2, 52903, Pitch_bend_c, 0, 9480
2, 52962, Pitch_bend_c, 0, 9556
2, 53021, Pitch_bend_c, 0, 8192
2, 53225, Pitch_bend_c, 0, 7510
2, 53269, Note_on_c, 0, 83, 79
2, 53767, Pitch_bend_c, 0, 7510
2, 53862, Pitch_bend_c, 0, 7518
2, 53957, Pitch_bend_c, 0, 7540
2, 54052, Pitch_bend_c, 0, 7573
2, 54147, Pitch_bend_c, 0, 7617
2, 54242, Pitch_bend_c, 0, 7668
2, 54337, Pitch_bend_c, 0, 7726
2, 54432, Pitch_bend_c, 0, 7787
2, 54527, Pitch_bend_c, 0, 7850
2, 54622, Pitch_bend_c, 0, 7914
2, 54717, Pitch_bend_c, 0, 7976
2, 54812, Pitch_bend_c, 0, 8033
2, 54907, Pitch_bend_c, 0, 8085
2, 55002, Pitch_bend_c, 0, 8129
2, 55037, Control_c, 0, 7, 62
2, 55097, Pitch_bend_c, 0, 8162
2, 55131, Control_c, 0, 7, 64
2, 55192, Pitch_bend_c, 0, 8184
2, 55225, Control_c, 0, 7, 65
2, 55287, Pitch_bend_c, 0, 8192
2, 55319, Control_c, 0, 7, 67
2, 55413, Control_c, 0, 7, 69
2, 55507, Control_c, 0, 7, 70
2, 55601, Control_c, 0, 7, 72
2, 55695, Control_c, 0, 7, 74
2, 55789, Control_c, 0, 7, 75
2, 55883, Control_c, 0, 7, 77
2, 55977, Control_c, 0, 7, 79
2, 56071, Control_c, 0, 7, 80
2, 56165, Control_c, 0, 7, 82
2, 56259, Control_c, 0, 7, 83
2, 56353, Control_c, 0, 7, 85
2, 56447, Control_c, 0, 7, 87
2, 56541, Control_c, 0, 7, 88
2, 56635, Control_c, 0, 7, 90
2, 56729, Control_c, 0, 7, 92
2, 56823, Control_c, 0, 7, 93
2, 56917, Control_c, 0, 7, 95
2, 57011, Control_c, 0, 7, 97
2, 57105, Control_c, 0, 7, 98
2, 57138, Note_off_c, 0, 83, 0
2, 57199, Control_c, 0, 7, 100
2, 57293, Control_c, 0, 7, 101
2, 57344, Control_c, 0, 7, 102
2, 57348, Note_on_c, 0, 85, 49
2, 57646, Control_c, 0, 7, 99
2, 57741, Control_c, 0, 7, 97
2, 57836, Control_c, 0, 7, 94
2, 57931, Control_c, 0, 7, 92
2, 58026, Control_c, 0, 7, 89
2, 58121, Control_c, 0, 7, 87
2, 58216, Control_c, 0, 7, 84
2, 58311, Control_c, 0, 7, 82
2, 58406, Control_c, 0, 7, 79
2, 58501, Control_c, 0, 7, 77
2, 58596, Control_c, 0, 7, 74
2, 58691, Control_c, 0, 7, 72
2, 58786, Control_c, 0, 7, 70
2, 58881, Control_c, 0, 7, 67
2, 58976, Control_c, 0, 7, 65
2, 59071, Control_c, 0, 7, 62
2, 59166, Control_c, 0, 7, 60
2, 59261, Control_c, 0, 7, 57
2, 59356, Control_c, 0, 7, 55
2, 59451, Control_c, 0, 7, 52
2, 59546, Control_c, 0, 7, 50
2, 59641, Control_c, 0, 7, 47
2, 61210, Note_off_c, 0, 85, 0
2, 61901, Control_c, 0, 7, 102
2, 61986, Note_on_c, 0, 80, 75
2, 62432, Note_off_c, 0, 80, 0
2, 62494, Note_on_c, 0, 78, 75
2, 62752, Note_on_c, 0, 75, 70
2, 62803, Note_off_c, 0, 78, 0
2, 62908, Note_off_c, 0, 75, 0
2, 62999, Note_on_c, 0, 72, 75
2, 63092, Note_off_c, 0, 72, 0
2, 63247, Note_on_c, 0, 68, 75
2, 63354, Note_off_c, 0, 68, 0
2, 63509, Note_on_c, 0, 73, 78
2, 63957, Note_off_c, 0, 73, 0
2, 66590, Note_on_c, 0, 80, 50
2, 67033, Note_off_c, 0, 80, 0
2, 67095, Note_on_c, 0, 68, 69
2, 67543, Note_off_c, 0, 68, 0
2, 68115, Note_on_c, 0, 76, 49
2, 68306, Note_off_c, 0, 76, 0
2, 68363, Note_on_c, 0, 73, 49
2, 68465, Note_off_c, 0, 73, 0
2, 68620, Note_on_c, 0, 73, 50
2, 69570, Note_off_c, 0, 73, 0
2, 70633, Control_c, 0, 7, 77
2, 70686, Note_on_c, 0, 80, 65
2, 71129, Note_off_c, 0, 80, 0
2, 71191, Note_on_c, 0, 68, 84
2, 71511, Note_off_c, 0, 68, 0
2, 72211, Note_on_c, 0, 76, 64
2, 72402, Note_off_c, 0, 76, 0
2, 72459, Note_on_c, 0, 73, 64
2, 72561, Note_off_c, 0, 73, 0
2, 72716, Note_on_c, 0, 73, 65
2, 73666, Note_off_c, 0, 73, 0
2, 74782, Note_on_c, 0, 80, 65
2, 75225, Note_off_c, 0, 80, 0
2, 75287, Note_on_c, 0, 68, 84
2, 75607, Note_off_c, 0, 68, 0
2, 76307, Note_on_c, 0, 76, 64
2, 76429, Control_c, 0, 7, 78
2, 76498, Note_off_c, 0, 76, 0
2, 76555, Note_on_c, 0, 73, 64
2, 76657, Note_off_c, 0, 73, 0
2, 76714, Control_c, 0, 7, 79
2, 76809, Control_c, 0, 7, 80
2, 76812, Note_on_c, 0, 73, 65
2, 76999, Control_c, 0, 7, 81
2, 77094, Control_c, 0, 7, 82
2, 77284, Control_c, 0, 7, 83
2, 77379, Control_c, 0, 7, 84
2, 77474, Control_c, 0, 7, 85
2, 77569, Control_c, 0, 7, 86
2, 77664, Control_c, 0, 7, 87
2, 77759, Control_c, 0, 7, 88
2, 77854, Control_c, 0, 7, 89
2, 78044, Control_c, 0, 7, 90
2, 78139, Control_c, 0, 7, 91
2, 78234, Control_c, 0, 7, 92
2, 78329, Control_c, 0, 7, 93
2, 78424, Control_c, 0, 7, 94
2, 78519, Control_c, 0, 7, 95
2, 78614, Control_c, 0, 7, 96
2, 78804, Control_c, 0, 7, 97
2, 78816, Note_off_c, 0, 73, 0
2, 78899, Control_c, 0, 7, 98
2, 79089, Control_c, 0, 7, 99
2, 79184, Control_c, 0, 7, 100
2, 79469, Control_c, 0, 7, 101
2, 79866, Control_c, 0, 7, 102
2, 79893, Note_on_c, 0, 75, 65
2, 80846, Note_off_c, 0, 75, 0
2, 80908, Note_on_c, 0, 73, 63
2, 81351, Note_off_c, 0, 73, 0
2, 82921, Control_c, 0, 7, 68
2, 82974, Note_on_c, 0, 80, 88
2, 83417, Note_off_c, 0, 80, 0
2, 83479, Note_on_c, 0, 68, 112
2, 83927, Note_off_c, 0, 68, 0
2, 84499, Note_on_c, 0, 76, 87
2, 84690, Note_off_c, 0, 76, 0
2, 84747, Note_on_c, 0, 73, 87
2, 84849, Control_c, 0, 7, 70
2, 84849, Note_off_c, 0, 73, 0
2, 84945, Control_c, 0, 7, 72
2, 85004, Note_on_c, 0, 73, 88
2, 85041, Control_c, 0, 7, 75
2, 85137, Control_c, 0, 7, 79
2, 85233, Control_c, 0, 7, 83
2, 85329, Control_c, 0, 7, 86
2, 85425, Control_c, 0, 7, 90
2, 85521, Control_c, 0, 7, 94
2, 85617, Control_c, 0, 7, 97
2, 85713, Control_c, 0, 7, 99
2, 85809, Control_c, 0, 7, 101
2, 85954, Note_off_c, 0, 73, 0
2, 87070, Note_on_c, 0, 80, 88
2, 87513, Note_off_c, 0, 80, 0
2, 87575, Note_on_c, 0, 68, 112
2, 87895, Note_off_c, 0, 68, 0
2, 88595, Note_on_c, 0, 76, 87
2, 88786, Note_off_c, 0, 76, 0
2, 88843, Note_on_c, 0, 73, 87
2, 88945, Note_off_c, 0, 73, 0
2, 89005, Control_c, 0, 7, 68
2, 89100, Note_on_c, 0, 73, 88
2, 89104, Control_c, 0, 7, 69
2, 89203, Control_c, 0, 7, 72
2, 89302, Control_c, 0, 7, 76
2, 89401, Control_c, 0, 7, 82
2, 89500, Control_c, 0, 7, 87
2, 89599, Control_c, 0, 7, 93
2, 89698, Control_c, 0, 7, 97
2, 89797, Control_c, 0, 7, 100
2, 89896, Control_c, 0, 7, 101
2, 89954, Note_off_c, 0, 73, 0
2, 91113, Control_c, 0, 7, 65
2, 91166, Note_on_c, 0, 80, 91
2, 91609, Note_off_c, 0, 80, 0
2, 91671, Note_on_c, 0, 68, 115
2, 91991, Note_off_c, 0, 68, 0
2, 92542, Control_c, 0, 7, 66
2, 92639, Control_c, 0, 7, 67
2, 92691, Note_on_c, 0, 77, 90
2, 92833, Control_c, 0, 7, 68
2, 92882, Note_off_c, 0, 77, 0
2, 92930, Control_c, 0, 7, 69
2, 92939, Note_on_c, 0, 73, 90
2, 93027, Control_c, 0, 7, 70
2, 93041, Note_off_c, 0, 73, 0
2, 93124, Control_c, 0, 7, 71
2, 93196, Note_on_c, 0, 73, 91
2, 93221, Control_c, 0, 7, 73
2, 93318, Control_c, 0, 7, 74
2, 93415, Control_c, 0, 7, 75
2, 93512, Control_c, 0, 7, 76
2, 93609, Control_c, 0, 7, 77
2, 93803, Control_c, 0, 7, 78
2, 93900, Control_c, 0, 7, 79
2, 94146, Note_off_c, 0, 73, 0
2, 95235, Control_c, 0, 7, 80
2, 95262, Note_on_c, 0, 85, 93
2, 96215, Note_off_c, 0, 85, 0
2, 96277, Note_on_c, 0, 83, 92
2, 96540, Note_on_c, 0, 81, 92
2, 96591, Note_off_c, 0, 83, 0
2, 96787, Note_on_c, 0, 80, 92
2, 96838, Note_off_c, 0, 81, 0
2, 97035, Note_on_c, 0, 78, 92
2, 97086, Note_off_c, 0, 80, 0
2, 97292, Note_on_c, 0, 80, 87
2, 97343, Note_off_c, 0, 78, 0
2, 98074, Note_off_c, 0, 80, 0
2, 98281, Control_c, 0, 7, 96
2, 98308, Note_on_c, 0, 78, 97
2, 98788, Note_off_c, 0, 78, 0
2, 98850, Note_on_c, 0, 66, 127
2, 99296, Note_off_c, 0, 66, 0
2, 99863, Note_on_c, 0, 69, 92
2, 100054, Note_off_c, 0, 69, 0
2, 100111, Note_on_c, 0, 66, 92
2, 100218, Note_off_c, 0, 66, 0
2, 100373, Note_on_c, 0, 72, 95
2, 100646, Control_c, 0, 7, 97
2, 100746, Control_c, 0, 7, 98
2, 100846, Control_c, 0, 7, 99
2, 101046, Control_c, 0, 7, 100
2, 101146, Control_c, 0, 7, 101
2, 101361, Control_c, 0, 7, 102
2, 101451, Control_c, 0, 7, 101
2, 101541, Control_c, 0, 7, 98
2, 101631, Control_c, 0, 7, 95
2, 101721, Control_c, 0, 7, 90
2, 101811, Control_c, 0, 7, 86
2, 101901, Control_c, 0, 7, 81
2, 101991, Control_c, 0, 7, 76
2, 102081, Control_c, 0, 7, 71
2, 102172, Control_c, 0, 7, 68
2, 102262, Control_c, 0, 7, 65
2, 102338, Note_off_c, 0, 72, 0
2, 102404, Note_on_c, 0, 85, 95
2, 102887, Note_off_c, 0, 85, 0
2, 102946, Note_on_c, 0, 73, 115
2, 103204, Control_c, 0, 7, 64
2, 103392, Note_off_c, 0, 73, 0
2, 103402, Control_c, 0, 7, 63
2, 103501, Control_c, 0, 7, 62
2, 103600, Control_c, 0, 7, 61
2, 103699, Control_c, 0, 7, 60
2, 103798, Control_c, 0, 7, 59
2, 103897, Control_c, 0, 7, 57
2, 103959, Note_on_c, 0, 76, 90
2, 103996, Control_c, 0, 7, 56
2, 104095, Control_c, 0, 7, 55
2, 104150, Note_off_c, 0, 76, 0
2, 104194, Control_c, 0, 7, 54
2, 104207, Note_on_c, 0, 75, 90
2, 104293, Control_c, 0, 7, 53
2, 104392, Control_c, 0, 7, 52
2, 104412, Note_off_c, 0, 75, 0
2, 104469, Note_on_c, 0, 73, 93
2, 104491, Control_c, 0, 7, 51
2, 105927, Note_off_c, 0, 73, 0
2, 106500, Note_on_c, 0, 88, 90
2, 106795, Control_c, 0, 7, 52
2, 106887, Control_c, 0, 7, 53
2, 106979, Control_c, 0, 7, 54
2, 106980, Note_off_c, 0, 88, 0
2, 107042, Note_on_c, 0, 76, 105
2, 107071, Control_c, 0, 7, 55
2, 107163, Control_c, 0, 7, 56
2, 107255, Control_c, 0, 7, 57
2, 107347, Control_c, 0, 7, 58
2, 107439, Control_c, 0, 7, 59
2, 107488, Note_off_c, 0, 76, 0
2, 107531, Control_c, 0, 7, 60
2, 107623, Control_c, 0, 7, 61
2, 107715, Control_c, 0, 7, 62
2, 107807, Control_c, 0, 7, 63
2, 107899, Control_c, 0, 7, 64
2, 107991, Control_c, 0, 7, 65
2, 108055, Note_on_c, 0, 78, 85
2, 108083, Control_c, 0, 7, 67
2, 108175, Control_c, 0, 7, 68
2, 108246, Note_off_c, 0, 78, 0
2, 108267, Control_c, 0, 7, 69
2, 108303, Note_on_c, 0, 75, 85
2, 108359, Control_c, 0, 7, 70
2, 108410, Note_off_c, 0, 75, 0
2, 108451, Control_c, 0, 7, 71
2, 108543, Control_c, 0, 7, 72
2, 108565, Note_on_c, 0, 76, 85
2, 108635, Control_c, 0, 7, 73
2, 108727, Control_c, 0, 7, 74
2, 108819, Control_c, 0, 7, 75
2, 108911, Control_c, 0, 7, 76
2, 109003, Control_c, 0, 7, 77
2, 109095, Control_c, 0, 7, 78
2, 109187, Control_c, 0, 7, 79
2, 109279, Control_c, 0, 7, 80
2, 109371, Control_c, 0, 7, 82
2, 109463, Control_c, 0, 7, 83
2, 109555, Control_c, 0, 7, 84
2, 109580, Note_on_c, 0, 78, 80
2, 109631, Note_off_c, 0, 76, 0
2, 109647, Control_c, 0, 7, 85
2, 109739, Control_c, 0, 7, 86
2, 109831, Control_c, 0, 7, 87
2, 109923, Control_c, 0, 7, 88
2, 110015, Control_c, 0, 7, 89
2, 110107, Control_c, 0, 7, 90
2, 110199, Control_c, 0, 7, 91
2, 110291, Control_c, 0, 7, 92
2, 110384, Control_c, 0, 7, 93
2, 110476, Control_c, 0, 7, 94
2, 110493, Note_off_c, 0, 78, 0
2, 110568, Control_c, 0, 7, 95
2, 110570, Control_c, 0, 7, 96
2, 111138, Note_on_c, 0, 80, 92
2, 111584, Note_off_c, 0, 80, 0
2, 111646, Note_on_c, 0, 84, 92
2, 111904, Note_on_c, 0, 81, 87
2, 111955, Note_off_c, 0, 84, 0
2, 112060, Note_off_c, 0, 81, 0
2, 112151, Note_on_c, 0, 84, 92
2, 112244, Note_off_c, 0, 84, 0
2, 112399, Note_on_c, 0, 87, 92
2, 112506, Note_off_c, 0, 87, 0
2, 112661, Note_on_c, 0, 85, 117
2, 113109, Note_off_c, 0, 85, 0
2, 117197, Control_c, 0, 7, 102
2, 117267, Note_on_c, 0, 67, 62
2, 117464, Note_off_c, 0, 67, 0
2, 117772, Note_on_c, 0, 73, 63
2, 117969, Note_off_c, 0, 73, 0
2, 121363, Note_on_c, 0, 77, 62
2, 121560, Note_off_c, 0, 77, 0
2, 121868, Note_on_c, 0, 73, 63
2, 122065, Note_off_c, 0, 73, 0
2, 125417, Control_c, 0, 7, 81
2, 125459, Note_on_c, 0, 79, 76
2, 125656, Note_off_c, 0, 79, 0
2, 125964, Note_on_c, 0, 82, 77
2, 126161, Note_off_c, 0, 82, 0
2, 129045, Note_on_c, 0, 79, 79
2, 129998, Note_off_c, 0, 79, 0
2, 130060, Note_on_c, 0, 80, 77
2, 130505, Note_off_c, 0, 80, 0
2, 130982, Control_c, 0, 7, 63
2, 131076, Note_on_c, 0, 76, 74
2, 131600, Control_c, 0, 7, 64
2, 131696, Control_c, 0, 7, 66
2, 131792, Control_c, 0, 7, 68
2, 131888, Control_c, 0, 7, 70
2, 131984, Control_c, 0, 7, 71
2, 132080, Control_c, 0, 7, 73
2, 132126, Note_on_c, 0, 73, 69
2, 132174, Note_off_c, 0, 76, 0
2, 132176, Control_c, 0, 7, 75
2, 132272, Control_c, 0, 7, 77
2, 132368, Control_c, 0, 7, 79
2, 132464, Control_c, 0, 7, 80
2, 132529, Note_off_c, 0, 73, 0
2, 132560, Control_c, 0, 7, 82
2, 132656, Control_c, 0, 7, 84
2, 132752, Control_c, 0, 7, 86
2, 132848, Control_c, 0, 7, 87
2, 132944, Control_c, 0, 7, 89
2, 133040, Control_c, 0, 7, 91
2, 133136, Control_c, 0, 7, 93
2, 133232, Control_c, 0, 7, 95
2, 133328, Control_c, 0, 7, 96
2, 133424, Control_c, 0, 7, 98
2, 133520, Control_c, 0, 7, 100
2, 133616, Control_c, 0, 7, 102
2, 133651, Note_on_c, 0, 67, 75
2, 133848, Note_off_c, 0, 67, 0
2, 134156, Note_on_c, 0, 73, 76
2, 134353, Note_off_c, 0, 73, 0
2, 135168, Control_c, 0, 7, 63
2, 135172, Note_on_c, 0, 78, 74
2, 135969, Control_c, 0, 7, 64
2, 136065, Control_c, 0, 7, 65
2, 136161, Control_c, 0, 7, 67
2, 136222, Note_on_c, 0, 75, 69
2, 136257, Control_c, 0, 7, 68
2, 136273, Note_off_c, 0, 78, 0
2, 136353, Control_c, 0, 7, 70
2, 136449, Control_c, 0, 7, 72
2, 136545, Control_c, 0, 7, 73
2, 136625, Note_off_c, 0, 75, 0
2, 136641, Control_c, 0, 7, 75
2, 136737, Control_c, 0, 7, 76
2, 136833, Control_c, 0, 7, 78
2, 136929, Control_c, 0, 7, 79
2, 137025, Control_c, 0, 7, 80
2, 137720, Control_c, 0, 7, 81
2, 137747, Note_on_c, 0, 77, 76
2, 137944, Note_off_c, 0, 77, 0
2, 138252, Note_on_c, 0, 73, 77
2, 138449, Note_off_c, 0, 73, 0
2, 138520, Control_c, 0, 7, 80
2, 138620, Control_c, 0, 7, 78
2, 138720, Control_c, 0, 7, 75
2, 138820, Control_c, 0, 7, 71
2, 138920, Control_c, 0, 7, 68
2, 139020, Control_c, 0, 7, 65
2, 139120, Control_c, 0, 7, 63
2, 139268, Note_on_c, 0, 76, 74
2, 140066, Control_c, 0, 7, 64
2, 140254, Control_c, 0, 7, 65
2, 140318, Note_on_c, 0, 73, 69
2, 140369, Note_off_c, 0, 76, 0
2, 140442, Control_c, 0, 7, 66
2, 140630, Control_c, 0, 7, 67
2, 140724, Control_c, 0, 7, 68
2, 140818, Control_c, 0, 7, 69
2, 140912, Control_c, 0, 7, 70
2, 141006, Control_c, 0, 7, 71
2, 141100, Control_c, 0, 7, 72
2, 141194, Control_c, 0, 7, 73
2, 141231, Note_off_c, 0, 73, 0
2, 141288, Control_c, 0, 7, 74
2, 141382, Control_c, 0, 7, 75
2, 141476, Control_c, 0, 7, 76
2, 141570, Control_c, 0, 7, 77
2, 141664, Control_c, 0, 7, 78
2, 141758, Control_c, 0, 7, 79
2, 141843, Note_on_c, 0, 79, 74
2, 141852, Control_c, 0, 7, 80
2, 141946, Control_c, 0, 7, 82
2, 142040, Control_c, 0, 7, 83
2, 142040, Note_off_c, 0, 79, 0
2, 142134, Control_c, 0, 7, 84
2, 142228, Control_c, 0, 7, 85
2, 142322, Control_c, 0, 7, 86
2, 142348, Note_on_c, 0, 82, 75
2, 142416, Control_c, 0, 7, 87
2, 142510, Control_c, 0, 7, 88
2, 142545, Note_off_c, 0, 82, 0
2, 142604, Control_c, 0, 7, 89
2, 142698, Control_c, 0, 7, 91
2, 142792, Control_c, 0, 7, 92
2, 142886, Control_c, 0, 7, 93
2, 142980, Control_c, 0, 7, 94
2, 143168, Control_c, 0, 7, 95
2, 143262, Control_c, 0, 7, 96
2, 143356, Control_c, 0, 7, 97
2, 143450, Control_c, 0, 7, 98
2, 143638, Control_c, 0, 7, 99
2, 143732, Control_c, 0, 7, 100
2, 143920, Control_c, 0, 7, 101
2, 144387, Control_c, 0, 7, 102
2, 144414, Note_on_c, 0, 83, 76
2, 144611, Note_off_c, 0, 83, 0
2, 144919, Note_on_c, 0, 71, 75
2, 145121, Note_off_c, 0, 71, 0
2, 145429, Note_on_c, 0, 79, 78
2, 146382, Note_off_c, 0, 79, 0
2, 146444, Note_on_c, 0, 80, 76
2, 146889, Note_off_c, 0, 80, 0
2, 147434, Control_c, 0, 7, 38
2, 147460, Note_on_c, 0, 73, 96
2, 147622, Control_c, 0, 7, 39
2, 147715, Control_c, 0, 7, 40
2, 147809, Control_c, 0, 7, 42
2, 147903, Control_c, 0, 7, 44
2, 147997, Control_c, 0, 7, 45
2, 148091, Control_c, 0, 7, 47
2, 148185, Control_c, 0, 7, 49
2, 148279, Control_c, 0, 7, 50
2, 148373, Control_c, 0, 7, 51
2, 148483, Control_c, 0, 7, 52
2, 148583, Control_c, 0, 7, 51
2, 148783, Control_c, 0, 7, 50
2, 148983, Control_c, 0, 7, 49
2, 149083, Control_c, 0, 7, 48
2, 149283, Control_c, 0, 7, 47
2, 149466, Note_off_c, 0, 73, 0
2, 149525, Note_on_c, 0, 87, 94
2, 149973, Note_off_c, 0, 87, 0
2, 150035, Note_on_c, 0, 75, 111
2, 150478, Note_off_c, 0, 75, 0
2, 151045, Note_on_c, 0, 79, 91
2, 151236, Note_off_c, 0, 79, 0
2, 151293, Note_on_c, 0, 75, 91
2, 151495, Note_off_c, 0, 75, 0
2, 151556, Note_on_c, 0, 80, 96
2, 151905, Control_c, 0, 7, 48
2, 151999, Control_c, 0, 7, 49
2, 152187, Control_c, 0, 7, 50
2, 152281, Control_c, 0, 7, 51
2, 152579, Control_c, 0, 7, 52
2, 152679, Control_c, 0, 7, 51
2, 152879, Control_c, 0, 7, 50
2, 153079, Control_c, 0, 7, 49
2, 153179, Control_c, 0, 7, 48
2, 153379, Control_c, 0, 7, 47
2, 153559, Note_off_c, 0, 80, 0
2, 153621, Note_on_c, 0, 84, 94
2, 154069, Note_off_c, 0, 84, 0
2, 154131, Note_on_c, 0, 72, 111
2, 154574, Note_off_c, 0, 72, 0
2, 155141, Note_on_c, 0, 72, 91
2, 155332, Note_off_c, 0, 72, 0
2, 155389, Note_on_c, 0, 77, 91
2, 155493, Note_off_c, 0, 77, 0
2, 155652, Note_on_c, 0, 76, 96
2, 156499, Control_c, 0, 7, 48
2, 156775, Control_c, 0, 7, 49
2, 157051, Control_c, 0, 7, 50
2, 157235, Control_c, 0, 7, 51
2, 157419, Control_c, 0, 7, 52
2, 157511, Control_c, 0, 7, 53
2, 157655, Note_off_c, 0, 76, 0
2, 157695, Control_c, 0, 7, 54
2, 157717, Note_on_c, 0, 86, 94
2, 157787, Control_c, 0, 7, 55
2, 157971, Control_c, 0, 7, 56
2, 158063, Control_c, 0, 7, 57
2, 158155, Control_c, 0, 7, 58
2, 158165, Note_off_c, 0, 86, 0
2, 158227, Note_on_c, 0, 74, 111
2, 158339, Control_c, 0, 7, 59
2, 158431, Control_c, 0, 7, 60
2, 158523, Control_c, 0, 7, 61
2, 158615, Control_c, 0, 7, 62
2, 158670, Note_off_c, 0, 74, 0
2, 158707, Control_c, 0, 7, 63
2, 158799, Control_c, 0, 7, 64
2, 158983, Control_c, 0, 7, 65
2, 159075, Control_c, 0, 7, 66
2, 159167, Control_c, 0, 7, 67
2, 159237, Note_on_c, 0, 74, 103
2, 159259, Control_c, 0, 7, 68
2, 159351, Control_c, 0, 7, 69
2, 159428, Note_off_c, 0, 74, 0
2, 159443, Control_c, 0, 7, 70
2, 159485, Note_on_c, 0, 77, 103
2, 159535, Control_c, 0, 7, 71
2, 159627, Control_c, 0, 7, 72
2, 159687, Note_off_c, 0, 77, 0
2, 159719, Control_c, 0, 7, 73
2, 159748, Note_on_c, 0, 79, 96
2, 159811, Control_c, 0, 7, 74
2, 159903, Control_c, 0, 7, 75
2, 159995, Control_c, 0, 7, 76
2, 160087, Control_c, 0, 7, 77
2, 160179, Control_c, 0, 7, 78
2, 160271, Control_c, 0, 7, 79
2, 160363, Control_c, 0, 7, 80
2, 160455, Control_c, 0, 7, 81
2, 160639, Control_c, 0, 7, 82
2, 160731, Control_c, 0, 7, 83
2, 160736, Note_off_c, 0, 79, 0
2, 160798, Note_on_c, 0, 77, 92
2, 160823, Control_c, 0, 7, 84
2, 160915, Control_c, 0, 7, 85
2, 161007, Control_c, 0, 7, 86
2, 161099, Control_c, 0, 7, 87
2, 161191, Control_c, 0, 7, 88
2, 161375, Control_c, 0, 7, 89
2, 161467, Control_c, 0, 7, 90
2, 161559, Control_c, 0, 7, 91
2, 161651, Control_c, 0, 7, 92
2, 161751, Note_off_c, 0, 77, 0
2, 161813, Note_on_c, 0, 79, 94
2, 161835, Control_c, 0, 7, 93
2, 161927, Control_c, 0, 7, 94
2, 162111, Control_c, 0, 7, 95
2, 162203, Control_c, 0, 7, 96
2, 162387, Control_c, 0, 7, 97
2, 162571, Control_c, 0, 7, 98
2, 162755, Control_c, 0, 7, 99
2, 162766, Note_off_c, 0, 79, 0
2, 162828, Note_on_c, 0, 74, 92
2, 162939, Control_c, 0, 7, 100
2, 163215, Control_c, 0, 7, 101
2, 163779, Note_off_c, 0, 74, 0
2, 163817, Control_c, 0, 7, 102
2, 163844, Note_on_c, 0, 72, 84
2, 164907, Control_c, 0, 7, 101
2, 165506, Control_c, 0, 7, 102
2, 165599, Control_c, 0, 7, 101
2, 165785, Control_c, 0, 7, 100
2, 165878, Control_c, 0, 7, 99
2, 165971, Control_c, 0, 7, 98
2, 166064, Control_c, 0, 7, 96
2, 166157, Control_c, 0, 7, 94
2, 166250, Control_c, 0, 7, 92
2, 166343, Control_c, 0, 7, 90
2, 166436, Control_c, 0, 7, 88
2, 166529, Control_c, 0, 7, 85
2, 166622, Control_c, 0, 7, 83
2, 166715, Control_c, 0, 7, 80
2, 166808, Control_c, 0, 7, 77
2, 166901, Control_c, 0, 7, 74
2, 166994, Control_c, 0, 7, 72
2, 167087, Control_c, 0, 7, 69
2, 167091, Control_c, 0, 7, 100
2, 167180, Control_c, 0, 7, 66
2, 167273, Control_c, 0, 7, 63
2, 167366, Control_c, 0, 7, 60
2, 167459, Control_c, 0, 7, 57
2, 167552, Control_c, 0, 7, 54
2, 167645, Control_c, 0, 7, 51
2, 167739, Control_c, 0, 7, 48
2, 167832, Control_c, 0, 7, 46
2, 167914, Control_c, 0, 7, 30
2, 167925, Control_c, 0, 7, 43
2, 168018, Control_c, 0, 7, 41
2, 168092, Control_c, 0, 7, 99
2, 168111, Control_c, 0, 7, 39
2, 168203, Control_c, 0, 7, 37
2, 168296, Control_c, 0, 7, 35
2, 168389, Control_c, 0, 7, 33
2, 168482, Control_c, 0, 7, 32
2, 168575, Control_c, 0, 7, 31
2, 168668, Control_c, 0, 7, 30
2, 168820, Control_c, 0, 7, 98
2, 169548, Control_c, 0, 7, 97
2, 170094, Control_c, 0, 7, 96
2, 170640, Control_c, 0, 7, 95
2, 170961, Note_off_c, 0, 72, 0
2, 171095, Control_c, 0, 7, 94
2, 171641, Control_c, 0, 7, 93
2, 172005, Control_c, 0, 7, 92
2, 172009, Control_c, 0, 7, 77
2, 172036, Note_on_c, 0, 82, 38
2, 172460, Control_c, 0, 7, 91
2, 172516, Note_off_c, 0, 82, 0
2, 172578, Note_on_c, 0, 70, 42
2, 172915, Control_c, 0, 7, 90
2, 173024, Note_off_c, 0, 70, 0
2, 173279, Control_c, 0, 7, 89
2, 173591, Note_on_c, 0, 73, 33
2, 173643, Control_c, 0, 7, 88
2, 173782, Note_off_c, 0, 73, 0
2, 173839, Note_on_c, 0, 70, 33
2, 174044, Note_off_c, 0, 70, 0
2, 174074, Control_c, 0, 7, 77
2, 174098, Control_c, 0, 7, 87
2, 174101, Note_on_c, 0, 76, 36
2, 174274, Control_c, 0, 7, 79
2, 174374, Control_c, 0, 7, 82
2, 174462, Control_c, 0, 7, 86
2, 174474, Control_c, 0, 7, 85
2, 174574, Control_c, 0, 7, 89
2, 174674, Control_c, 0, 7, 93
2, 174774, Control_c, 0, 7, 96
2, 174826, Control_c, 0, 7, 85
2, 174874, Control_c, 0, 7, 99
2, 174974, Control_c, 0, 7, 101
2, 175089, Control_c, 0, 7, 102
2, 175099, Control_c, 0, 7, 84
2, 175179, Control_c, 0, 7, 101
2, 175269, Control_c, 0, 7, 99
2, 175359, Control_c, 0, 7, 97
2, 175449, Control_c, 0, 7, 94
2, 175463, Control_c, 0, 7, 83
2, 175539, Control_c, 0, 7, 91
2, 175629, Control_c, 0, 7, 87
2, 175719, Control_c, 0, 7, 84
2, 175809, Control_c, 0, 7, 81
2, 175827, Control_c, 0, 7, 82
2, 175900, Control_c, 0, 7, 79
2, 175990, Control_c, 0, 7, 77
2, 176066, Note_off_c, 0, 76, 0
2, 176191, Control_c, 0, 7, 81
2, 176464, Control_c, 0, 7, 80
2, 176828, Control_c, 0, 7, 79
2, 177182, Note_on_c, 0, 82, 34
2, 177192, Control_c, 0, 7, 78
2, 177465, Control_c, 0, 7, 77
2, 177625, Note_off_c, 0, 82, 0
2, 177687, Note_on_c, 0, 70, 42
2, 177829, Control_c, 0, 7, 76
2, 177878, Note_off_c, 0, 70, 0
2, 177935, Note_on_c, 0, 73, 33
2, 178102, Control_c, 0, 7, 75
2, 178140, Note_off_c, 0, 73, 0
2, 178170, Control_c, 0, 7, 77
2, 178197, Note_on_c, 0, 76, 36
2, 178370, Control_c, 0, 7, 79
2, 178466, Control_c, 0, 7, 74
2, 178470, Control_c, 0, 7, 82
2, 178570, Control_c, 0, 7, 85
2, 178670, Control_c, 0, 7, 89
2, 178739, Control_c, 0, 7, 73
2, 178770, Control_c, 0, 7, 93
2, 178870, Control_c, 0, 7, 96
2, 178970, Control_c, 0, 7, 99
2, 179012, Control_c, 0, 7, 72
2, 179070, Control_c, 0, 7, 101
2, 179185, Control_c, 0, 7, 102
2, 179284, Control_c, 0, 7, 101
2, 179376, Control_c, 0, 7, 71
2, 179383, Control_c, 0, 7, 99
2, 179482, Control_c, 0, 7, 96
2, 179581, Control_c, 0, 7, 93
2, 179649, Control_c, 0, 7, 70
2, 179680, Control_c, 0, 7, 89
2, 179779, Control_c, 0, 7, 85
2, 179878, Control_c, 0, 7, 82
2, 179977, Control_c, 0, 7, 79
2, 180013, Control_c, 0, 7, 69
2, 180076, Control_c, 0, 7, 77
2, 180162, Note_off_c, 0, 76, 0
2, 180228, Note_on_c, 0, 85, 38
2, 180286, Control_c, 0, 7, 68
2, 180559, Control_c, 0, 7, 67
2, 180708, Note_off_c, 0, 85, 0
2, 180770, Note_on_c, 0, 73, 42
2, 180923, Control_c, 0, 7, 66
2, 181196, Control_c, 0, 7, 65
2, 181216, Note_off_c, 0, 73, 0
2, 181469, Control_c, 0, 7, 64
2, 181783, Note_on_c, 0, 76, 33
2, 181833, Control_c, 0, 7, 63
2, 181974, Note_off_c, 0, 76, 0
2, 182031, Note_on_c, 0, 73, 33
2, 182106, Control_c, 0, 7, 62
2, 182236, Note_off_c, 0, 73, 0
2, 182266, Control_c, 0, 7, 77
2, 182293, Note_on_c, 0, 79, 36
2, 182466, Control_c, 0, 7, 79
2, 182470, Control_c, 0, 7, 61
2, 182566, Control_c, 0, 7, 82
2, 182666, Control_c, 0, 7, 85
2, 182743, Control_c, 0, 7, 60
2, 182766, Control_c, 0, 7, 89
2, 182866, Control_c, 0, 7, 93
2, 182966, Control_c, 0, 7, 96
2, 183016, Control_c, 0, 7, 59
2, 183066, Control_c, 0, 7, 99
2, 183166, Control_c, 0, 7, 101
2, 183281, Control_c, 0, 7, 102
2, 183380, Control_c, 0, 7, 58
2, 183380, Control_c, 0, 7, 95
2, 183479, Control_c, 0, 7, 89
2, 183578, Control_c, 0, 7, 83
2, 183653, Control_c, 0, 7, 57
2, 183677, Control_c, 0, 7, 76
2, 183776, Control_c, 0, 7, 70
2, 183875, Control_c, 0, 7, 64
2, 183974, Control_c, 0, 7, 57
2, 184017, Control_c, 0, 7, 56
2, 184073, Control_c, 0, 7, 51
2, 184172, Control_c, 0, 7, 45
2, 184258, Note_off_c, 0, 79, 0
2, 184271, Control_c, 0, 7, 39
2, 184290, Control_c, 0, 7, 55
2, 184654, Control_c, 0, 7, 54
2, 185018, Control_c, 0, 7, 53
2, 185291, Control_c, 0, 7, 52
2, 185321, Control_c, 0, 7, 77
2, 185374, Note_on_c, 0, 85, 34
2, 185655, Control_c, 0, 7, 51
2, 185817, Note_off_c, 0, 85, 0
2, 185879, Note_on_c, 0, 73, 42
2, 186019, Control_c, 0, 7, 50
2, 186070, Note_off_c, 0, 73, 0
2, 186127, Note_on_c, 0, 76, 33
2, 186332, Note_off_c, 0, 76, 0
2, 186362, Control_c, 0, 7, 77
2, 186383, Control_c, 0, 7, 49
2, 186389, Note_on_c, 0, 79, 36
2, 186562, Control_c, 0, 7, 79
2, 186656, Control_c, 0, 7, 48
2, 186662, Control_c, 0, 7, 82
2, 186762, Control_c, 0, 7, 85
2, 186862, Control_c, 0, 7, 89
2, 186962, Control_c, 0, 7, 93
2, 187020, Control_c, 0, 7, 47
2, 187062, Control_c, 0, 7, 96
2, 187162, Control_c, 0, 7, 99
2, 187262, Control_c, 0, 7, 101
2, 187377, Control_c, 0, 7, 102
2, 187384, Control_c, 0, 7, 46
2, 187476, Control_c, 0, 7, 101
2, 187575, Control_c, 0, 7, 99
2, 187674, Control_c, 0, 7, 96
2, 187773, Control_c, 0, 7, 93
2, 187839, Control_c, 0, 7, 45
2, 187872, Control_c, 0, 7, 89
2, 187971, Control_c, 0, 7, 85
2, 188070, Control_c, 0, 7, 82
2, 188169, Control_c, 0, 7, 79
2, 188203, Control_c, 0, 7, 44
2, 188268, Control_c, 0, 7, 77
2, 188354, Note_off_c, 0, 79, 0
2, 188420, Note_on_c, 0, 88, 38
2, 188567, Control_c, 0, 7, 43
2, 188900, Note_off_c, 0, 88, 0
2, 188962, Note_on_c, 0, 76, 42
2, 189022, Control_c, 0, 7, 42
2, 189408, Note_off_c, 0, 76, 0
2, 189477, Control_c, 0, 7, 41
2, 189841, Control_c, 0, 7, 40
2, 189975, Note_on_c, 0, 79, 33
2, 190166, Note_off_c, 0, 79, 0
2, 190223, Note_on_c, 0, 76, 33
2, 190387, Control_c, 0, 7, 39
2, 190428, Note_off_c, 0, 76, 0
2, 190458, Control_c, 0, 7, 77
2, 190485, Note_on_c, 0, 82, 36
2, 190658, Control_c, 0, 7, 79
2, 190758, Control_c, 0, 7, 81
2, 190842, Control_c, 0, 7, 38
2, 190858, Control_c, 0, 7, 84
2, 190958, Control_c, 0, 7, 87
2, 191058, Control_c, 0, 7, 90
2, 191158, Control_c, 0, 7, 92
2, 191258, Control_c, 0, 7, 94
2, 191358, Control_c, 0, 7, 96
2, 191388, Control_c, 0, 7, 37
2, 191473, Control_c, 0, 7, 97
2, 191572, Control_c, 0, 7, 91
2, 191671, Control_c, 0, 7, 85
2, 191770, Control_c, 0, 7, 79
2, 191869, Control_c, 0, 7, 73
2, 191934, Control_c, 0, 7, 36
2, 191968, Control_c, 0, 7, 68
2, 192067, Control_c, 0, 7, 62
2, 192166, Control_c, 0, 7, 56
2, 192265, Control_c, 0, 7, 50
2, 192364, Control_c, 0, 7, 44
2, 192450, Note_off_c, 0, 82, 0
2, 192463, Control_c, 0, 7, 39
2, 192662, Control_c, 0, 7, 35
2, 193390, Control_c, 0, 7, 34
2, 193513, Control_c, 0, 7, 102
2, 193566, Note_on_c, 0, 88, 24
2, 194009, Note_off_c, 0, 88, 0
2, 194071, Note_on_c, 0, 76, 32
2, 194262, Note_off_c, 0, 76, 0
2, 194319, Note_on_c, 0, 79, 23
2, 194391, Control_c, 0, 7, 33
2, 194524, Note_off_c, 0, 79, 0
2, 194581, Note_on_c, 0, 82, 26
2, 196546, Note_off_c, 0, 82, 0
2, 200681, Control_c, 0, 7, 32
2, 200708, Note_on_c, 0, 79, 70
2, 201188, Note_off_c, 0, 79, 0
2, 201250, Note_on_c, 0, 78, 65
2, 201696, Note_off_c, 0, 78, 0
2, 201758, Note_on_c, 0, 79, 66
2, 202711, Note_off_c, 0, 79, 0
2, 202773, Note_on_c, 0, 72, 68
2, 203046, Control_c, 0, 7, 33
2, 203146, Control_c, 0, 7, 34
2, 203246, Control_c, 0, 7, 35
2, 203446, Control_c, 0, 7, 36
2, 203546, Control_c, 0, 7, 37
2, 203761, Control_c, 0, 7, 38
2, 203860, Control_c, 0, 7, 37
2, 204058, Control_c, 0, 7, 36
2, 204157, Control_c, 0, 7, 35
2, 204355, Control_c, 0, 7, 34
2, 204454, Control_c, 0, 7, 33
2, 204553, Control_c, 0, 7, 32
2, 204738, Note_off_c, 0, 72, 0
2, 204800, Note_on_c, 0, 68, 65
2, 205064, Control_c, 0, 7, 36
2, 205121, Control_c, 0, 7, 41
2, 205127, Note_on_c, 0, 70, 65
2, 205166, Note_off_c, 0, 68, 0
2, 205178, Control_c, 0, 7, 46
2, 205235, Control_c, 0, 7, 51
2, 205292, Control_c, 0, 7, 56
2, 205349, Control_c, 0, 7, 61
2, 205394, Note_on_c, 0, 68, 65
2, 205406, Control_c, 0, 7, 66
2, 205426, Note_off_c, 0, 70, 0
2, 205463, Control_c, 0, 7, 70
2, 205600, Note_on_c, 0, 70, 65
2, 205624, Note_off_c, 0, 68, 0
2, 205746, Note_on_c, 0, 68, 65
2, 205763, Note_off_c, 0, 70, 0
2, 205883, Note_on_c, 0, 70, 65
2, 205899, Note_off_c, 0, 68, 0
2, 206020, Note_on_c, 0, 68, 65
2, 206036, Note_off_c, 0, 70, 0
2, 206157, Note_on_c, 0, 70, 65
2, 206173, Note_off_c, 0, 68, 0
2, 206294, Note_on_c, 0, 68, 65
2, 206310, Note_off_c, 0, 70, 0
2, 206431, Note_on_c, 0, 70, 65
2, 206447, Note_off_c, 0, 68, 0
2, 206568, Note_on_c, 0, 68, 65
2, 206584, Note_off_c, 0, 70, 0
2, 206705, Note_on_c, 0, 70, 65
2, 206721, Note_off_c, 0, 68, 0
2, 206848, Note_on_c, 0, 72, 65
2, 206865, Note_off_c, 0, 70, 0
2, 206994, Note_on_c, 0, 74, 65
2, 207011, Note_off_c, 0, 72, 0
2, 207042, Control_c, 0, 7, 32
2, 207140, Note_on_c, 0, 72, 65
2, 207142, Control_c, 0, 7, 33
2, 207157, Note_off_c, 0, 74, 0
2, 207242, Control_c, 0, 7, 37
2, 207286, Note_on_c, 0, 74, 65
2, 207303, Note_off_c, 0, 72, 0
2, 207342, Control_c, 0, 7, 43
2, 207432, Note_on_c, 0, 72, 65
2, 207442, Control_c, 0, 7, 50
2, 207449, Note_off_c, 0, 74, 0
2, 207542, Control_c, 0, 7, 57
2, 207578, Note_on_c, 0, 74, 65
2, 207595, Note_off_c, 0, 72, 0
2, 207642, Control_c, 0, 7, 63
2, 207724, Note_on_c, 0, 72, 65
2, 207741, Note_off_c, 0, 74, 0
2, 207742, Control_c, 0, 7, 68
2, 207842, Control_c, 0, 7, 69
2, 207870, Note_on_c, 0, 74, 65
2, 207887, Note_off_c, 0, 72, 0
2, 208016, Note_on_c, 0, 72, 65
2, 208033, Note_off_c, 0, 74, 0
2, 208162, Note_on_c, 0, 74, 65
2, 208179, Note_off_c, 0, 72, 0
2, 208308, Note_on_c, 0, 72, 65
2, 208325, Note_off_c, 0, 74, 0
2, 208454, Note_on_c, 0, 74, 65
2, 208471, Note_off_c, 0, 72, 0
2, 208600, Note_on_c, 0, 72, 65
2, 208617, Note_off_c, 0, 74, 0
2, 208746, Note_on_c, 0, 74, 65
2, 208763, Note_off_c, 0, 72, 0
2, 208896, Note_on_c, 0, 75, 65
2, 208914, Note_off_c, 0, 74, 0
2, 209042, Note_on_c, 0, 77, 65
2, 209059, Note_off_c, 0, 75, 0
2, 209103, Control_c, 0, 7, 32
2, 209188, Note_on_c, 0, 75, 65
2, 209205, Note_off_c, 0, 77, 0
2, 209207, Control_c, 0, 7, 33
2, 209311, Control_c, 0, 7, 37
2, 209334, Note_on_c, 0, 77, 65
2, 209351, Note_off_c, 0, 75, 0
2, 209415, Control_c, 0, 7, 44
2, 209480, Note_on_c, 0, 75, 65
2, 209497, Note_off_c, 0, 77, 0
2, 209519, Control_c, 0, 7, 51
2, 209623, Control_c, 0, 7, 58
2, 209626, Note_on_c, 0, 77, 65
2, 209643, Note_off_c, 0, 75, 0
2, 209727, Control_c, 0, 7, 64
2, 209772, Note_on_c, 0, 75, 65
2, 209789, Note_off_c, 0, 77, 0
2, 209831, Control_c, 0, 7, 68
2, 209918, Note_on_c, 0, 77, 65
2, 209935, Control_c, 0, 7, 69
2, 209935, Note_off_c, 0, 75, 0
2, 210064, Note_on_c, 0, 75, 65
2, 210081, Note_off_c, 0, 77, 0
2, 210210, Note_on_c, 0, 77, 65
2, 210227, Note_off_c, 0, 75, 0
2, 210356, Note_on_c, 0, 75, 65
2, 210373, Note_off_c, 0, 77, 0
2, 210502, Note_on_c, 0, 77, 65
2, 210519, Note_off_c, 0, 75, 0
2, 210648, Note_on_c, 0, 75, 65
2, 210665, Note_off_c, 0, 77, 0
2, 210668, Control_c, 0, 7, 32
2, 210763, Control_c, 0, 7, 34
2, 210794, Note_on_c, 0, 77, 65
2, 210811, Note_off_c, 0, 75, 0
2, 210858, Control_c, 0, 7, 37
2, 210944, Note_on_c, 0, 79, 60
2, 210953, Control_c, 0, 7, 39
2, 210962, Note_off_c, 0, 77, 0
2, 211048, Control_c, 0, 7, 42
2, 211090, Note_off_c, 0, 79, 0
2, 211090, Note_on_c, 0, 80, 60
2, 211143, Control_c, 0, 7, 45
2, 211236, Note_off_c, 0, 80, 0
2, 211236, Note_on_c, 0, 79, 60
2, 211238, Control_c, 0, 7, 47
2, 211333, Control_c, 0, 7, 50
2, 211382, Note_off_c, 0, 79, 0
2, 211382, Note_on_c, 0, 80, 60
2, 211428, Control_c, 0, 7, 53
2, 211523, Control_c, 0, 7, 55
2, 211528, Note_off_c, 0, 80, 0
2, 211528, Note_on_c, 0, 79, 60
2, 211618, Control_c, 0, 7, 58
2, 211674, Note_off_c, 0, 79, 0
2, 211674, Note_on_c, 0, 80, 60
2, 211713, Control_c, 0, 7, 60
2, 211808, Control_c, 0, 7, 63
2, 211820, Note_off_c, 0, 80, 0
2, 211820, Note_on_c, 0, 79, 60
2, 211903, Control_c, 0, 7, 66
2, 211966, Note_off_c, 0, 79, 0
2, 211966, Note_on_c, 0, 80, 60
2, 211998, Control_c, 0, 7, 68
2, 212093, Control_c, 0, 7, 71
2, 212112, Note_off_c, 0, 80, 0
2, 212112, Note_on_c, 0, 79, 60
2, 212188, Control_c, 0, 7, 74
2, 212258, Note_off_c, 0, 79, 0
2, 212258, Note_on_c, 0, 80, 60
2, 212283, Control_c, 0, 7, 76
2, 212378, Control_c, 0, 7, 79
2, 212404, Note_off_c, 0, 80, 0
2, 212404, Note_on_c, 0, 79, 60
2, 212473, Control_c, 0, 7, 81
2, 212550, Note_off_c, 0, 79, 0
2, 212550, Note_on_c, 0, 80, 60
2, 212568, Control_c, 0, 7, 84
2, 212663, Control_c, 0, 7, 87
2, 212696, Note_off_c, 0, 80, 0
2, 212696, Note_on_c, 0, 79, 60
2, 212758, Control_c, 0, 7, 89
2, 212842, Note_off_c, 0, 79, 0
2, 212842, Note_on_c, 0, 80, 60
2, 212853, Control_c, 0, 7, 92
2, 212948, Control_c, 0, 7, 95
2, 212992, Note_off_c, 0, 80, 0
2, 212992, Note_on_c, 0, 79, 84
2, 213133, Note_on_c, 0, 80, 79
2, 213149, Note_off_c, 0, 79, 0
2, 213274, Note_on_c, 0, 79, 79
2, 213290, Note_off_c, 0, 80, 0
2, 213415, Note_on_c, 0, 80, 79
2, 213431, Note_off_c, 0, 79, 0
2, 213556, Note_on_c, 0, 79, 79
2, 213572, Note_off_c, 0, 80, 0
2, 213697, Note_on_c, 0, 80, 79
2, 213713, Note_off_c, 0, 79, 0
2, 213838, Note_on_c, 0, 79, 79
2, 213854, Note_off_c, 0, 80, 0
2, 213979, Note_on_c, 0, 80, 79
2, 213995, Note_off_c, 0, 79, 0
2, 214104, Control_c, 0, 7, 94
2, 214120, Note_on_c, 0, 79, 79
2, 214136, Note_off_c, 0, 80, 0
2, 214261, Note_on_c, 0, 80, 79
2, 214277, Note_off_c, 0, 79, 0
2, 214389, Control_c, 0, 7, 93
2, 214402, Note_on_c, 0, 79, 79
2, 214418, Note_off_c, 0, 80, 0
2, 214484, Control_c, 0, 7, 92
2, 214543, Note_on_c, 0, 80, 79
2, 214559, Note_off_c, 0, 79, 0
2, 214579, Control_c, 0, 7, 91
2, 214674, Control_c, 0, 7, 90
2, 214684, Note_on_c, 0, 79, 79
2, 214700, Note_off_c, 0, 80, 0
2, 214769, Control_c, 0, 7, 89
2, 214825, Note_on_c, 0, 80, 79
2, 214841, Note_off_c, 0, 79, 0
2, 214864, Control_c, 0, 7, 88
2, 214959, Control_c, 0, 7, 86
2, 214966, Note_on_c, 0, 79, 79
2, 214982, Note_off_c, 0, 80, 0
2, 215054, Control_c, 0, 7, 85
2, 215107, Note_on_c, 0, 80, 79
2, 215123, Note_off_c, 0, 79, 0
2, 215149, Control_c, 0, 7, 83
2, 215244, Control_c, 0, 7, 82
2, 215248, Note_on_c, 0, 79, 79
2, 215264, Note_off_c, 0, 80, 0
2, 215339, Control_c, 0, 7, 80
2, 215389, Note_on_c, 0, 80, 79
2, 215405, Note_off_c, 0, 79, 0
2, 215434, Control_c, 0, 7, 79
2, 215529, Control_c, 0, 7, 77
2, 215530, Note_on_c, 0, 79, 79
2, 215546, Note_off_c, 0, 80, 0
2, 215624, Control_c, 0, 7, 75
2, 215671, Note_on_c, 0, 80, 79
2, 215687, Note_off_c, 0, 79, 0
2, 215719, Control_c, 0, 7, 74
2, 215812, Note_on_c, 0, 79, 79
2, 215814, Control_c, 0, 7, 72
2, 215828, Note_off_c, 0, 80, 0
2, 215909, Control_c, 0, 7, 70
2, 215953, Note_on_c, 0, 80, 79
2, 215969, Note_off_c, 0, 79, 0
2, 216004, Control_c, 0, 7, 69
2, 216094, Note_on_c, 0, 79, 79
2, 216099, Control_c, 0, 7, 68
2, 216110, Note_off_c, 0, 80, 0
2, 216194, Control_c, 0, 7, 66
2, 216235, Note_on_c, 0, 80, 79
2, 216251, Note_off_c, 0, 79, 0
2, 216289, Control_c, 0, 7, 65
2, 216376, Note_on_c, 0, 79, 79
2, 216384, Control_c, 0, 7, 64
2, 216392, Note_off_c, 0, 80, 0
2, 216479, Control_c, 0, 7, 63
2, 216517, Note_on_c, 0, 80, 79
2, 216533, Note_off_c, 0, 79, 0
2, 216574, Control_c, 0, 7, 62
2, 216658, Note_on_c, 0, 79, 79
2, 216669, Control_c, 0, 7, 61
2, 216674, Note_off_c, 0, 80, 0
2, 216764, Control_c, 0, 7, 60
2, 216799, Note_on_c, 0, 80, 79
2, 216815, Note_off_c, 0, 79, 0
2, 216940, Note_on_c, 0, 79, 79
2, 216956, Note_off_c, 0, 80, 0
2, 217088, Note_on_c, 0, 80, 82
2, 217105, Note_off_c, 0, 79, 0
2, 217229, Note_on_c, 0, 82, 77
2, 217245, Note_off_c, 0, 80, 0
2, 217370, Note_on_c, 0, 80, 77
2, 217386, Note_off_c, 0, 82, 0
2, 217479, Control_c, 0, 7, 61
2, 217511, Note_on_c, 0, 82, 77
2, 217527, Note_off_c, 0, 80, 0
2, 217571, Control_c, 0, 7, 62
2, 217652, Note_on_c, 0, 80, 77
2, 217663, Control_c, 0, 7, 63
2, 217668, Note_off_c, 0, 82, 0
2, 217755, Control_c, 0, 7, 64
2, 217793, Note_on_c, 0, 82, 77
2, 217809, Note_off_c, 0, 80, 0
2, 217847, Control_c, 0, 7, 65
2, 217934, Note_on_c, 0, 80, 77
2, 217939, Control_c, 0, 7, 66
2, 217950, Note_off_c, 0, 82, 0
2, 218031, Control_c, 0, 7, 67
2, 218075, Note_on_c, 0, 82, 77
2, 218091, Note_off_c, 0, 80, 0
2, 218123, Control_c, 0, 7, 68
2, 218215, Control_c, 0, 7, 69
2, 218216, Note_on_c, 0, 80, 77
2, 218232, Note_off_c, 0, 82, 0
2, 218307, Control_c, 0, 7, 70
2, 218357, Note_on_c, 0, 82, 77
2, 218373, Note_off_c, 0, 80, 0
2, 218399, Control_c, 0, 7, 71
2, 218491, Control_c, 0, 7, 72
2, 218498, Note_on_c, 0, 80, 77
2, 218514, Note_off_c, 0, 82, 0
2, 218583, Control_c, 0, 7, 73
2, 218639, Note_on_c, 0, 82, 77
2, 218655, Note_off_c, 0, 80, 0
2, 218675, Control_c, 0, 7, 74
2, 218767, Control_c, 0, 7, 75
2, 218780, Note_on_c, 0, 80, 77
2, 218796, Note_off_c, 0, 82, 0
2, 218859, Control_c, 0, 7, 76
2, 218921, Note_on_c, 0, 82, 77
2, 218937, Note_off_c, 0, 80, 0
2, 218951, Control_c, 0, 7, 77
2, 219043, Control_c, 0, 7, 78
2, 219062, Note_on_c, 0, 80, 77
2, 219078, Note_off_c, 0, 82, 0
2, 219135, Control_c, 0, 7, 79
2, 219203, Note_on_c, 0, 82, 77
2, 219219, Note_off_c, 0, 80, 0
2, 219227, Control_c, 0, 7, 80
2, 219319, Control_c, 0, 7, 81
2, 219344, Note_on_c, 0, 80, 77
2, 219360, Note_off_c, 0, 82, 0
2, 219411, Control_c, 0, 7, 82
2, 219485, Note_on_c, 0, 82, 77
2, 219501, Note_off_c, 0, 80, 0
2, 219503, Control_c, 0, 7, 83
2, 219595, Control_c, 0, 7, 84
2, 219626, Note_on_c, 0, 80, 77
2, 219642, Note_off_c, 0, 82, 0
2, 219687, Control_c, 0, 7, 85
2, 219767, Note_on_c, 0, 82, 77
2, 219779, Control_c, 0, 7, 86
2, 219783, Note_off_c, 0, 80, 0
2, 219871, Control_c, 0, 7, 87
2, 219908, Note_on_c, 0, 80, 77
2, 219924, Note_off_c, 0, 82, 0
2, 219963, Control_c, 0, 7, 88
2, 220049, Note_on_c, 0, 82, 77
2, 220055, Control_c, 0, 7, 89
2, 220065, Note_off_c, 0, 80, 0
2, 220147, Control_c, 0, 7, 90
2, 220190, Note_on_c, 0, 80, 77
2, 220206, Note_off_c, 0, 82, 0
2, 220239, Control_c, 0, 7, 91
2, 220331, Control_c, 0, 7, 92
2, 220331, Note_on_c, 0, 82, 77
2, 220347, Note_off_c, 0, 80, 0
2, 220423, Control_c, 0, 7, 93
2, 220472, Note_on_c, 0, 80, 77
2, 220488, Note_off_c, 0, 82, 0
2, 220515, Control_c, 0, 7, 94
2, 220607, Control_c, 0, 7, 95
2, 220613, Note_on_c, 0, 82, 77
2, 220629, Note_off_c, 0, 80, 0
2, 220699, Control_c, 0, 7, 96
2, 220754, Note_on_c, 0, 80, 77
2, 220770, Note_off_c, 0, 82, 0
2, 220791, Control_c, 0, 7, 97
2, 220883, Control_c, 0, 7, 98
2, 220895, Note_on_c, 0, 82, 77
2, 220911, Note_off_c, 0, 80, 0
2, 220976, Control_c, 0, 7, 99
2, 221036, Note_on_c, 0, 80, 77
2, 221052, Note_off_c, 0, 82, 0
2, 221068, Control_c, 0, 7, 100
2, 221160, Control_c, 0, 7, 101
2, 221201, Note_off_c, 0, 80, 0
2, 221696, Control_c, 0, 7, 102
2, 221730, Note_on_c, 0, 82, 49
2, 222176, Note_off_c, 0, 82, 0
2, 222238, Note_on_c, 0, 70, 70
2, 222681, Note_off_c, 0, 70, 0
2, 223253, Note_on_c, 0, 73, 52
2, 223459, Note_off_c, 0, 73, 0
2, 223516, Note_on_c, 0, 70, 49
2, 223706, Note_off_c, 0, 70, 0
2, 224268, Note_on_c, 0, 76, 49
2, 225284, Note_on_c, 0, 77, 44
2, 225331, Note_off_c, 0, 76, 0
2, 225583, Control_c, 0, 7, 100
2, 225679, Control_c, 0, 7, 98
2, 225775, Control_c, 0, 7, 96
2, 225871, Control_c, 0, 7, 94
2, 225967, Control_c, 0, 7, 92
2, 226063, Control_c, 0, 7, 90
2, 226159, Control_c, 0, 7, 88
2, 226255, Control_c, 0, 7, 86
2, 226351, Control_c, 0, 7, 85
2, 226447, Control_c, 0, 7, 83
2, 226543, Control_c, 0, 7, 81
2, 226639, Control_c, 0, 7, 79
2, 226735, Control_c, 0, 7, 77
2, 226831, Control_c, 0, 7, 75
2, 226927, Control_c, 0, 7, 73
2, 227023, Control_c, 0, 7, 71
2, 227119, Control_c, 0, 7, 70
2, 227215, Control_c, 0, 7, 68
2, 227311, Control_c, 0, 7, 66
2, 227407, Control_c, 0, 7, 64
2, 227503, Control_c, 0, 7, 62
2, 227599, Control_c, 0, 7, 60
2, 227695, Control_c, 0, 7, 58
2, 227791, Control_c, 0, 7, 56
2, 227887, Control_c, 0, 7, 54
2, 227983, Control_c, 0, 7, 53
2, 228079, Control_c, 0, 7, 51
2, 228262, Note_off_c, 0, 77, 0
2, 229865, Control_c, 0, 7, 77
2, 229922, Note_on_c, 0, 82, 64
2, 230368, Note_off_c, 0, 82, 0
2, 230430, Note_on_c, 0, 70, 85
2, 230873, Note_off_c, 0, 70, 0
2, 231445, Note_on_c, 0, 73, 67
2, 231651, Note_off_c, 0, 73, 0
2, 231708, Note_on_c, 0, 70, 64
2, 231898, Note_off_c, 0, 70, 0
2, 232093, Control_c, 0, 7, 78
2, 232378, Control_c, 0, 7, 79
2, 232460, Note_on_c, 0, 76, 65
2, 232473, Control_c, 0, 7, 80
2, 232663, Control_c, 0, 7, 81
2, 232758, Control_c, 0, 7, 82
2, 232903, Note_off_c, 0, 76, 0
2, 232948, Control_c, 0, 7, 83
2, 232965, Note_on_c, 0, 72, 64
2, 233043, Control_c, 0, 7, 84
2, 233138, Control_c, 0, 7, 85
2, 233233, Control_c, 0, 7, 86
2, 233328, Control_c, 0, 7, 87
2, 233423, Control_c, 0, 7, 88
2, 233518, Control_c, 0, 7, 89
2, 233613, Control_c, 0, 7, 90
2, 233803, Control_c, 0, 7, 91
2, 233898, Control_c, 0, 7, 92
2, 233993, Control_c, 0, 7, 93
2, 234088, Control_c, 0, 7, 94
2, 234183, Control_c, 0, 7, 95
2, 234278, Control_c, 0, 7, 96
2, 234464, Note_off_c, 0, 72, 0
2, 234468, Control_c, 0, 7, 97
2, 234563, Control_c, 0, 7, 98
2, 234658, Control_c, 0, 7, 99
2, 234848, Control_c, 0, 7, 100
2, 235038, Control_c, 0, 7, 101
2, 235514, Control_c, 0, 7, 102
2, 235541, Note_on_c, 0, 73, 65
2, 236494, Note_off_c, 0, 73, 0
2, 236556, Note_on_c, 0, 70, 63
2, 236999, Note_off_c, 0, 70, 0
2, 238057, Control_c, 0, 7, 77
2, 238114, Note_on_c, 0, 82, 64
2, 238560, Note_off_c, 0, 82, 0
2, 238622, Note_on_c, 0, 70, 85
2, 239065, Note_off_c, 0, 70, 0
2, 239637, Note_on_c, 0, 73, 67
2, 239843, Note_off_c, 0, 73, 0
2, 239900, Note_on_c, 0, 70, 64
2, 240090, Note_off_c, 0, 70, 0
2, 240652, Note_on_c, 0, 76, 65
2, 241602, Note_off_c, 0, 76, 0
2, 242210, Note_on_c, 0, 77, 64
2, 242656, Note_off_c, 0, 77, 0
2, 242718, Note_on_c, 0, 65, 85
2, 243161, Note_off_c, 0, 65, 0
2, 243733, Note_on_c, 0, 85, 67
2, 243939, Note_off_c, 0, 85, 0
2, 243996, Note_on_c, 0, 82, 64
2, 244088, Note_off_c, 0, 82, 0
2, 244658, Control_c, 0, 7, 78
2, 244748, Note_on_c, 0, 80, 65
2, 244940, Control_c, 0, 7, 79
2, 245222, Control_c, 0, 7, 80
2, 245410, Control_c, 0, 7, 81
2, 245692, Control_c, 0, 7, 82
2, 245698, Note_off_c, 0, 80, 0
2, 245880, Control_c, 0, 7, 83
2, 245974, Control_c, 0, 7, 84
2, 246162, Control_c, 0, 7, 85
2, 246306, Note_on_c, 0, 82, 64
2, 246350, Control_c, 0, 7, 86
2, 246538, Control_c, 0, 7, 87
2, 246632, Control_c, 0, 7, 88
2, 246752, Note_off_c, 0, 82, 0
2, 246814, Note_on_c, 0, 70, 85
2, 246820, Control_c, 0, 7, 89
2, 247008, Control_c, 0, 7, 90
2, 247196, Control_c, 0, 7, 91
2, 247257, Note_off_c, 0, 70, 0
2, 247290, Control_c, 0, 7, 92
2, 247478, Control_c, 0, 7, 93
2, 247666, Control_c, 0, 7, 94
2, 247829, Note_on_c, 0, 73, 67
2, 247854, Control_c, 0, 7, 95
2, 247948, Control_c, 0, 7, 96
2, 248035, Note_off_c, 0, 73, 0
2, 248092, Note_on_c, 0, 70, 64
2, 248136, Control_c, 0, 7, 97
2, 248282, Note_off_c, 0, 70, 0
2, 248418, Control_c, 0, 7, 98
2, 248606, Control_c, 0, 7, 99
2, 248844, Note_on_c, 0, 76, 65
2, 248888, Control_c, 0, 7, 100
2, 249170, Control_c, 0, 7, 101
2, 249794, Note_off_c, 0, 76, 0
2, 249833, Control_c, 0, 7, 102
2, 250402, Note_on_c, 0, 76, 62
2, 250848, Note_off_c, 0, 76, 0
2, 250910, Note_on_c, 0, 73, 62
2, 251168, Note_on_c, 0, 71, 57
2, 251219, Note_off_c, 0, 73, 0
2, 251324, Note_off_c, 0, 71, 0
2, 251415, Note_on_c, 0, 69, 62
2, 251508, Note_off_c, 0, 69, 0
2, 251663, Note_on_c, 0, 65, 62
2, 251770, Note_off_c, 0, 65, 0
2, 251925, Note_on_c, 0, 70, 65
2, 252373, Note_off_c, 0, 70, 0
2, 254441, Control_c, 0, 7, 63
2, 254498, Note_on_c, 0, 82, 74
2, 254750, Control_c, 0, 7, 64
2, 254843, Control_c, 0, 7, 66
2, 254936, Control_c, 0, 7, 67
2, 254944, Note_off_c, 0, 82, 0
2, 255006, Note_on_c, 0, 70, 95
2, 255029, Control_c, 0, 7, 69
2, 255122, Control_c, 0, 7, 70
2, 255215, Control_c, 0, 7, 72
2, 255308, Control_c, 0, 7, 73
2, 255401, Control_c, 0, 7, 75
2, 255449, Note_off_c, 0, 70, 0
2, 255494, Control_c, 0, 7, 76
2, 255587, Control_c, 0, 7, 78
2, 255680, Control_c, 0, 7, 80
2, 255773, Control_c, 0, 7, 81
2, 255866, Control_c, 0, 7, 83
2, 255959, Control_c, 0, 7, 84
2, 256021, Note_on_c, 0, 73, 77
2, 256052, Control_c, 0, 7, 86
2, 256145, Control_c, 0, 7, 87
2, 256227, Note_off_c, 0, 73, 0
2, 256238, Control_c, 0, 7, 89
2, 256284, Note_on_c, 0, 70, 74
2, 256331, Control_c, 0, 7, 90
2, 256424, Control_c, 0, 7, 92
2, 256474, Note_off_c, 0, 70, 0
2, 256517, Control_c, 0, 7, 94
2, 256610, Control_c, 0, 7, 95
2, 256703, Control_c, 0, 7, 97
2, 256796, Control_c, 0, 7, 98
2, 256889, Control_c, 0, 7, 100
2, 256896, Note_on_c, 0, 75, 49
2, 256982, Control_c, 0, 7, 101
2, 257009, Control_c, 0, 7, 102
2, 257024, Note_off_c, 0, 75, 0
2, 257032, Note_on_c, 0, 76, 76
2, 257986, Note_off_c, 0, 76, 0
2, 258537, Control_c, 0, 7, 60
2, 258594, Note_on_c, 0, 77, 77
2, 259040, Note_off_c, 0, 77, 0
2, 259102, Note_on_c, 0, 65, 98
2, 259545, Note_off_c, 0, 65, 0
2, 260117, Note_on_c, 0, 85, 80
2, 260323, Note_off_c, 0, 85, 0
2, 260380, Note_on_c, 0, 82, 77
2, 260472, Note_off_c, 0, 82, 0
2, 261105, Control_c, 0, 7, 95
2, 261132, Note_on_c, 0, 82, 80
2, 261575, Note_off_c, 0, 82, 0
2, 261637, Note_on_c, 0, 80, 79
2, 262082, Note_off_c, 0, 80, 0
2, 262121, Control_c, 0, 7, 60
2, 262690, Note_on_c, 0, 82, 77
2, 263136, Note_off_c, 0, 82, 0
2, 263198, Note_on_c, 0, 70, 98
2, 263641, Note_off_c, 0, 70, 0
2, 264213, Note_on_c, 0, 73, 80
2, 264419, Note_off_c, 0, 73, 0
2, 264476, Note_on_c, 0, 70, 77
2, 264666, Note_off_c, 0, 70, 0
2, 265030, Control_c, 0, 7, 61
2, 265088, Note_on_c, 0, 75, 77
2, 265216, Note_off_c, 0, 75, 0
2, 265224, Note_on_c, 0, 76, 78
2, 265306, Control_c, 0, 7, 62
2, 265490, Control_c, 0, 7, 63
2, 265674, Control_c, 0, 7, 64
2, 265858, Control_c, 0, 7, 65
2, 265950, Control_c, 0, 7, 66
2, 266134, Control_c, 0, 7, 67
2, 266178, Note_off_c, 0, 76, 0
2, 266226, Control_c, 0, 7, 68
2, 266244, Note_on_c, 0, 73, 82
2, 266410, Control_c, 0, 7, 69
2, 266502, Control_c, 0, 7, 70
2, 266594, Control_c, 0, 7, 71
2, 266778, Control_c, 0, 7, 72
2, 266870, Control_c, 0, 7, 73
2, 266962, Control_c, 0, 7, 74
2, 267146, Control_c, 0, 7, 75
2, 267232, Note_off_c, 0, 73, 0
2, 267238, Control_c, 0, 7, 76
2, 267294, Note_on_c, 0, 75, 78
2, 267330, Control_c, 0, 7, 77
2, 267422, Control_c, 0, 7, 78
2, 267514, Control_c, 0, 7, 79
2, 267698, Control_c, 0, 7, 80
2, 267790, Control_c, 0, 7, 81
2, 267882, Control_c, 0, 7, 82
2, 267974, Control_c, 0, 7, 83
2, 268158, Control_c, 0, 7, 84
2, 268247, Note_off_c, 0, 75, 0
2, 268250, Control_c, 0, 7, 85
2, 268309, Note_on_c, 0, 76, 80
2, 268342, Control_c, 0, 7, 86
2, 268526, Control_c, 0, 7, 87
2, 268618, Control_c, 0, 7, 88
2, 268802, Control_c, 0, 7, 89
2, 268894, Control_c, 0, 7, 90
2, 269078, Control_c, 0, 7, 91
2, 269262, Control_c, 0, 7, 92
2, 269262, Note_off_c, 0, 76, 0
2, 269324, Note_on_c, 0, 78, 78
2, 269446, Control_c, 0, 7, 93
2, 269722, Control_c, 0, 7, 94
2, 270275, Note_off_c, 0, 78, 0
2, 270313, Control_c, 0, 7, 95
2, 270340, Note_on_c, 0, 80, 79
2, 270748, Control_c, 0, 7, 94
2, 270936, Control_c, 0, 7, 93
2, 271124, Control_c, 0, 7, 92
2, 271218, Control_c, 0, 7, 91
2, 271312, Control_c, 0, 7, 89
2, 271406, Control_c, 0, 7, 88
2, 271500, Control_c, 0, 7, 86
2, 271594, Control_c, 0, 7, 85
2, 271688, Control_c, 0, 7, 83
2, 271782, Control_c, 0, 7, 81
2, 271876, Control_c, 0, 7, 80
2, 271970, Control_c, 0, 7, 78
2, 272064, Control_c, 0, 7, 76
2, 272158, Control_c, 0, 7, 74
2, 272252, Control_c, 0, 7, 72
2, 272346, Control_c, 0, 7, 71
2, 272440, Control_c, 0, 7, 69
2, 272534, Control_c, 0, 7, 67
2, 272628, Control_c, 0, 7, 66
2, 272722, Control_c, 0, 7, 65
2, 272816, Control_c, 0, 7, 63
2, 272910, Control_c, 0, 7, 62
2, 273004, Control_c, 0, 7, 61
2, 273192, Control_c, 0, 7, 60
2, 273733, Pitch_bend_c, 0, 8192
2, 273792, Pitch_bend_c, 0, 8267
2, 273851, Pitch_bend_c, 0, 8462
2, 273910, Pitch_bend_c, 0, 8728
2, 273924, Note_off_c, 0, 80, 0
2, 273969, Pitch_bend_c, 0, 9019
2, 274028, Pitch_bend_c, 0, 9285
2, 274087, Pitch_bend_c, 0, 9480
2, 274146, Pitch_bend_c, 0, 9556
2, 274206, Pitch_bend_c, 0, 8192
2, 274410, Pitch_bend_c, 0, 6828
2, 274453, Note_on_c, 0, 84, 80
2, 275116, Pitch_bend_c, 0, 6828
2, 275213, Pitch_bend_c, 0, 6848
2, 275310, Pitch_bend_c, 0, 6904
2, 275407, Pitch_bend_c, 0, 6990
2, 275504, Pitch_bend_c, 0, 7099
2, 275601, Pitch_bend_c, 0, 7226
2, 275698, Pitch_bend_c, 0, 7365
2, 275795, Pitch_bend_c, 0, 7510
2, 275892, Pitch_bend_c, 0, 7656
2, 275989, Pitch_bend_c, 0, 7795
2, 276086, Pitch_bend_c, 0, 7922
2, 276183, Pitch_bend_c, 0, 8031
2, 276280, Pitch_bend_c, 0, 8117
2, 276377, Pitch_bend_c, 0, 8173
2, 276474, Pitch_bend_c, 0, 8192
2, 276769, Control_c, 0, 7, 62
2, 276864, Control_c, 0, 7, 64
2, 276959, Control_c, 0, 7, 66
2, 277054, Control_c, 0, 7, 68
2, 277149, Control_c, 0, 7, 71
2, 277244, Control_c, 0, 7, 73
2, 277339, Control_c, 0, 7, 75
2, 277434, Control_c, 0, 7, 77
2, 277529, Control_c, 0, 7, 79
2, 277624, Control_c, 0, 7, 82
2, 277719, Control_c, 0, 7, 84
2, 277814, Control_c, 0, 7, 86
2, 277909, Control_c, 0, 7, 88
2, 278004, Control_c, 0, 7, 90
2, 278099, Control_c, 0, 7, 93
2, 278194, Control_c, 0, 7, 95
2, 278289, Control_c, 0, 7, 97
2, 278322, Note_off_c, 0, 84, 0
2, 278384, Control_c, 0, 7, 99
2, 278479, Control_c, 0, 7, 101
2, 278528, Control_c, 0, 7, 102
2, 278532, Note_on_c, 0, 80, 49
2, 278831, Control_c, 0, 7, 99
2, 278927, Control_c, 0, 7, 97
2, 279023, Control_c, 0, 7, 94
2, 279119, Control_c, 0, 7, 92
2, 279215, Control_c, 0, 7, 89
2, 279311, Control_c, 0, 7, 87
2, 279407, Control_c, 0, 7, 84
2, 279503, Control_c, 0, 7, 82
2, 279599, Control_c, 0, 7, 79
2, 279695, Control_c, 0, 7, 77
2, 279791, Control_c, 0, 7, 74
2, 279887, Control_c, 0, 7, 72
2, 279983, Control_c, 0, 7, 69
2, 280079, Control_c, 0, 7, 67
2, 280175, Control_c, 0, 7, 65
2, 280271, Control_c, 0, 7, 62
2, 280367, Control_c, 0, 7, 60
2, 280463, Control_c, 0, 7, 57
2, 280559, Control_c, 0, 7, 55
2, 280655, Control_c, 0, 7, 52
2, 280751, Control_c, 0, 7, 50
2, 280847, Control_c, 0, 7, 47
2, 282394, Note_off_c, 0, 80, 0
2, 283108, Control_c, 0, 7, 102
2, 283170, Note_on_c, 0, 80, 75
2, 283616, Note_off_c, 0, 80, 0
2, 283678, Note_on_c, 0, 78, 75
2, 283936, Note_on_c, 0, 75, 70
2, 283987, Note_off_c, 0, 78, 0
2, 284092, Note_off_c, 0, 75, 0
2, 284183, Note_on_c, 0, 72, 75
2, 284276, Note_off_c, 0, 72, 0
2, 284431, Note_on_c, 0, 68, 75
2, 284538, Note_off_c, 0, 68, 0
2, 284693, Note_on_c, 0, 73, 78
2, 285141, Note_off_c, 0, 73, 0
2, 287774, Note_on_c, 0, 80, 50
2, 288217, Note_off_c, 0, 80, 0
2, 288279, Note_on_c, 0, 68, 69
2, 288727, Note_off_c, 0, 68, 0
2, 289299, Note_on_c, 0, 76, 49
2, 289490, Note_off_c, 0, 76, 0
2, 289547, Note_on_c, 0, 73, 49
2, 289649, Note_off_c, 0, 73, 0
2, 289804, Note_on_c, 0, 73, 50
2, 290754, Note_off_c, 0, 73, 0
2, 291817, Control_c, 0, 7, 77
2, 291870, Note_on_c, 0, 80, 65
2, 292313, Note_off_c, 0, 80, 0
2, 292375, Note_on_c, 0, 68, 84
2, 292695, Note_off_c, 0, 68, 0
2, 293395, Note_on_c, 0, 76, 64
2, 293586, Note_off_c, 0, 76, 0
2, 293643, Note_on_c, 0, 73, 64
2, 293745, Note_off_c, 0, 73, 0
2, 293900, Note_on_c, 0, 73, 65
2, 294850, Note_off_c, 0, 73, 0
2, 295966, Note_on_c, 0, 80, 65
2, 296409, Note_off_c, 0, 80, 0
2, 296471, Note_on_c, 0, 68, 84
2, 296791, Note_off_c, 0, 68, 0
2, 297491, Note_on_c, 0, 76, 64
2, 297614, Control_c, 0, 7, 78
2, 297682, Note_off_c, 0, 76, 0
2, 297739, Note_on_c, 0, 73, 64
2, 297841, Note_off_c, 0, 73, 0
2, 297899, Control_c, 0, 7, 79
2, 297994, Control_c, 0, 7, 80
2, 297996, Note_on_c, 0, 73, 65
2, 298184, Control_c, 0, 7, 81
2, 298279, Control_c, 0, 7, 82
2, 298469, Control_c, 0, 7, 83
2, 298564, Control_c, 0, 7, 84
2, 298659, Control_c, 0, 7, 85
2, 298754, Control_c, 0, 7, 86
2, 298849, Control_c, 0, 7, 87
2, 298944, Control_c, 0, 7, 88
2, 299039, Control_c, 0, 7, 89
2, 299229, Control_c, 0, 7, 90
2, 299324, Control_c, 0, 7, 91
2, 299419, Control_c, 0, 7, 92
2, 299514, Control_c, 0, 7, 93
2, 299609, Control_c, 0, 7, 94
2, 299704, Control_c, 0, 7, 95
2, 299799, Control_c, 0, 7, 96
2, 299989, Control_c, 0, 7, 97
2, 300000, Note_off_c, 0, 73, 0
2, 300084, Control_c, 0, 7, 98
2, 300274, Control_c, 0, 7, 99
2, 300369, Control_c, 0, 7, 100
2, 300654, Control_c, 0, 7, 101
2, 301050, Control_c, 0, 7, 102
2, 301077, Note_on_c, 0, 75, 65
2, 302030, Note_off_c, 0, 75, 0
2, 302092, Note_on_c, 0, 73, 63
2, 302535, Note_off_c, 0, 73, 0
2, 304105, Control_c, 0, 7, 68
2, 304158, Note_on_c, 0, 80, 88
2, 304601, Note_off_c, 0, 80, 0
2, 304663, Note_on_c, 0, 68, 112
2, 305111, Note_off_c, 0, 68, 0
2, 305683, Note_on_c, 0, 76, 87
2, 305874, Note_off_c, 0, 76, 0
2, 305931, Note_on_c, 0, 73, 87
2, 306033, Note_off_c, 0, 73, 0
2, 306188, Note_on_c, 0, 73, 88
2, 306448, Control_c, 0, 7, 69
2, 306540, Control_c, 0, 7, 73
2, 306632, Control_c, 0, 7, 78
2, 306724, Control_c, 0, 7, 85
2, 306816, Control_c, 0, 7, 91
2, 306908, Control_c, 0, 7, 96
2, 307000, Control_c, 0, 7, 100
2, 307092, Control_c, 0, 7, 101
2, 307138, Note_off_c, 0, 73, 0
2, 308254, Note_on_c, 0, 80, 88
2, 308697, Note_off_c, 0, 80, 0
2, 308759, Note_on_c, 0, 68, 112
2, 309079, Note_off_c, 0, 68, 0
2, 309779, Note_on_c, 0, 76, 87
2, 309970, Note_off_c, 0, 76, 0
2, 310027, Note_on_c, 0, 73, 87
2, 310129, Note_off_c, 0, 73, 0
2, 310189, Control_c, 0, 7, 68
2, 310284, Note_on_c, 0, 73, 88
2, 310288, Control_c, 0, 7, 69
2, 310387, Control_c, 0, 7, 72
2, 310486, Control_c, 0, 7, 76
2, 310585, Control_c, 0, 7, 82
2, 310684, Control_c, 0, 7, 87
2, 310783, Control_c, 0, 7, 93
2, 310882, Control_c, 0, 7, 97
2, 310981, Control_c, 0, 7, 100
2, 311080, Control_c, 0, 7, 101
2, 311138, Note_off_c, 0, 73, 0
2, 312297, Control_c, 0, 7, 65
2, 312350, Note_on_c, 0, 80, 91
2, 312793, Note_off_c, 0, 80, 0
2, 312855, Note_on_c, 0, 68, 115
2, 313175, Note_off_c, 0, 68, 0
2, 313726, Control_c, 0, 7, 66
2, 313823, Control_c, 0, 7, 67
2, 313875, Note_on_c, 0, 77, 90
2, 314017, Control_c, 0, 7, 68
2, 314066, Note_off_c, 0, 77, 0
2, 314114, Control_c, 0, 7, 69
2, 314123, Note_on_c, 0, 73, 90
2, 314211, Control_c, 0, 7, 70
2, 314225, Note_off_c, 0, 73, 0
2, 314308, Control_c, 0, 7, 71
2, 314380, Note_on_c, 0, 73, 91
2, 314405, Control_c, 0, 7, 73
2, 314502, Control_c, 0, 7, 74
2, 314599, Control_c, 0, 7, 75
2, 314696, Control_c, 0, 7, 76
2, 314793, Control_c, 0, 7, 77
2, 314987, Control_c, 0, 7, 78
2, 315084, Control_c, 0, 7, 79
2, 315330, Note_off_c, 0, 73, 0
2, 316419, Control_c, 0, 7, 80
2, 316446, Note_on_c, 0, 85, 93
2, 317399, Note_off_c, 0, 85, 0
2, 317461, Note_on_c, 0, 83, 92
2, 317724, Note_on_c, 0, 81, 92
2, 317775, Note_off_c, 0, 83, 0
2, 317971, Note_on_c, 0, 80, 92
2, 318022, Note_off_c, 0, 81, 0
2, 318219, Note_on_c, 0, 78, 92
2, 318270, Note_off_c, 0, 80, 0
2, 318476, Note_on_c, 0, 80, 87
2, 318527, Note_off_c, 0, 78, 0
2, 319258, Note_off_c, 0, 80, 0
2, 319465, Control_c, 0, 7, 96
2, 319492, Note_on_c, 0, 78, 97
2, 319972, Note_off_c, 0, 78, 0
2, 320034, Note_on_c, 0, 66, 127
2, 320480, Note_off_c, 0, 66, 0
2, 321047, Note_on_c, 0, 69, 92
2, 321238, Note_off_c, 0, 69, 0
2, 321295, Note_on_c, 0, 66, 92
2, 321402, Note_off_c, 0, 66, 0
2, 321557, Note_on_c, 0, 72, 95
2, 321830, Control_c, 0, 7, 97
2, 321930, Control_c, 0, 7, 98
2, 322030, Control_c, 0, 7, 99
2, 322230, Control_c, 0, 7, 100
2, 322330, Control_c, 0, 7, 101
2, 322545, Control_c, 0, 7, 102
2, 322637, Control_c, 0, 7, 101
2, 322729, Control_c, 0, 7, 98
2, 322821, Control_c, 0, 7, 95
2, 322913, Control_c, 0, 7, 90
2, 323005, Control_c, 0, 7, 86
2, 323097, Control_c, 0, 7, 81
2, 323189, Control_c, 0, 7, 76
2, 323281, Control_c, 0, 7, 71
2, 323374, Control_c, 0, 7, 68
2, 323466, Control_c, 0, 7, 65
2, 323522, Note_off_c, 0, 72, 0
2, 324130, Note_on_c, 0, 85, 90
2, 324383, Control_c, 0, 7, 64
2, 324571, Control_c, 0, 7, 63
2, 324576, Note_off_c, 0, 85, 0
2, 324638, Note_on_c, 0, 73, 116
2, 324665, Control_c, 0, 7, 62
2, 324759, Control_c, 0, 7, 60
2, 324853, Control_c, 0, 7, 59
2, 324947, Control_c, 0, 7, 58
2, 325041, Control_c, 0, 7, 56
2, 325081, Note_off_c, 0, 73, 0
2, 325135, Control_c, 0, 7, 55
2, 325143, Note_on_c, 0, 76, 90
2, 325229, Control_c, 0, 7, 53
2, 325323, Control_c, 0, 7, 52
2, 325334, Note_off_c, 0, 76, 0
2, 325391, Note_on_c, 0, 75, 90
2, 325417, Control_c, 0, 7, 51
2, 325596, Note_off_c, 0, 75, 0
2, 325653, Note_on_c, 0, 73, 101
2, 327111, Note_off_c, 0, 73, 0
2, 327657, Control_c, 0, 7, 77
2, 327845, Control_c, 0, 7, 79
2, 327939, Control_c, 0, 7, 81
2, 328033, Control_c, 0, 7, 84
2, 328127, Control_c, 0, 7, 87
2, 328169, Control_c, 0, 7, 77
2, 328221, Control_c, 0, 7, 91
2, 328226, Note_on_c, 0, 88, 64
2, 328315, Control_c, 0, 7, 94
2, 328409, Control_c, 0, 7, 97
2, 328503, Control_c, 0, 7, 99
2, 328597, Control_c, 0, 7, 101
2, 328672, Note_off_c, 0, 88, 0
2, 328707, Control_c, 0, 7, 102
2, 328734, Note_on_c, 0, 76, 70
2, 329177, Note_off_c, 0, 76, 0
2, 329749, Note_on_c, 0, 78, 65
2, 329955, Note_off_c, 0, 78, 0
2, 330012, Note_on_c, 0, 75, 62
2, 330104, Note_off_c, 0, 75, 0
2, 330764, Note_on_c, 0, 75, 62
2, 331269, Note_on_c, 0, 78, 57
2, 331318, Note_off_c, 0, 75, 0
2, 331677, Note_off_c, 0, 78, 0
2, 331754, Control_c, 0, 7, 77
2, 332303, Control_c, 0, 7, 78
2, 332322, Note_on_c, 0, 85, 64
2, 332397, Control_c, 0, 7, 79
2, 332491, Control_c, 0, 7, 81
2, 332585, Control_c, 0, 7, 82
2, 332679, Control_c, 0, 7, 84
2, 332768, Note_off_c, 0, 85, 0
2, 332773, Control_c, 0, 7, 86
2, 332830, Note_on_c, 0, 73, 85
2, 332867, Control_c, 0, 7, 88
2, 332961, Control_c, 0, 7, 90
2, 333055, Control_c, 0, 7, 92
2, 333149, Control_c, 0, 7, 94
2, 333243, Control_c, 0, 7, 96
2, 333273, Note_off_c, 0, 73, 0
2, 333337, Control_c, 0, 7, 97
2, 333431, Control_c, 0, 7, 99
2, 333525, Control_c, 0, 7, 100
2, 333619, Control_c, 0, 7, 101
2, 333818, Control_c, 0, 7, 102
2, 333845, Note_on_c, 0, 76, 65
2, 334051, Note_off_c, 0, 76, 0
2, 334108, Note_on_c, 0, 73, 62
2, 334200, Note_off_c, 0, 73, 0
2, 334365, Control_c, 0, 7, 99
2, 334463, Control_c, 0, 7, 96
2, 334561, Control_c, 0, 7, 93
2, 334659, Control_c, 0, 7, 90
2, 334757, Control_c, 0, 7, 87
2, 334855, Control_c, 0, 7, 84
2, 334860, Note_on_c, 0, 78, 62
2, 334953, Control_c, 0, 7, 81
2, 335051, Control_c, 0, 7, 79
2, 335149, Control_c, 0, 7, 76
2, 335247, Control_c, 0, 7, 73
2, 335345, Control_c, 0, 7, 70
2, 335365, Note_on_c, 0, 80, 57
2, 335416, Note_off_c, 0, 78, 0
2, 335443, Control_c, 0, 7, 67
2, 335541, Control_c, 0, 7, 64
2, 335639, Control_c, 0, 7, 61
2, 335651, Note_off_c, 0, 80, 0
2, 335737, Control_c, 0, 7, 59
2, 335835, Control_c, 0, 7, 56
2, 340429, Control_c, 0, 7, 102
2, 340514, Note_on_c, 0, 80, 88
2, 340960, Note_off_c, 0, 80, 0
2, 341022, Note_on_c, 0, 84, 88
2, 341280, Note_on_c, 0, 81, 83
2, 341331, Note_off_c, 0, 84, 0
2, 341436, Note_off_c, 0, 81, 0
2, 341527, Note_on_c, 0, 84, 88
2, 341620, Note_off_c, 0, 84, 0
2, 341775, Note_on_c, 0, 87, 88
2, 341882, Note_off_c, 0, 87, 0
2, 342037, Note_on_c, 0, 85, 113
2, 342485, Note_off_c, 0, 85, 0
2, 343052, Note_on_c, 0, 73, 111
2, 343495, Note_off_c, 0, 73, 0
2, 343548, End_track
3, 0, Start_track
3, 0, Unknown_meta_event, 9, 22, 83, 109, 97, 114, 116, 77, 117, 115, 105, 99, 32, 83, 111, 102, 116, 83, 121, 110, 116, 104, 32, 49
3, 0, Title_t, "Clarinet in Bb"
3, 0, Program_c, 2, 71
3, 0, Control_c, 2, 7, 101
3, 0, Control_c, 2, 10, 84
3, 0, Control_c, 2, 7, 102
3, 3, Control_c, 2, 100, 0
3, 3, Control_c, 2, 101, 0
3, 4, Control_c, 2, 6, 12
3, 5, Control_c, 2, 38, 0
3, 3084, Note_on_c, 2, 73, 37
3, 4034, Note_off_c, 2, 73, 0
3, 4100, Note_on_c, 2, 70, 36
3, 4397, Control_c, 2, 7, 99
3, 4491, Control_c, 2, 7, 97
3, 4585, Control_c, 2, 7, 95
3, 4679, Control_c, 2, 7, 93
3, 4773, Control_c, 2, 7, 91
3, 4867, Control_c, 2, 7, 89
3, 4961, Control_c, 2, 7, 87
3, 5055, Control_c, 2, 7, 85
3, 5149, Control_c, 2, 7, 83
3, 5243, Control_c, 2, 7, 81
3, 5337, Control_c, 2, 7, 79
3, 5431, Control_c, 2, 7, 77
3, 5525, Control_c, 2, 7, 75
3, 5619, Control_c, 2, 7, 72
3, 5713, Control_c, 2, 7, 70
3, 5807, Control_c, 2, 7, 68
3, 5901, Control_c, 2, 7, 66
3, 5995, Control_c, 2, 7, 64
3, 6089, Control_c, 2, 7, 62
3, 6183, Control_c, 2, 7, 60
3, 6277, Control_c, 2, 7, 58
3, 6371, Control_c, 2, 7, 56
3, 6465, Control_c, 2, 7, 54
3, 6559, Control_c, 2, 7, 52
3, 6653, Control_c, 2, 7, 50
3, 6747, Control_c, 2, 7, 48
3, 6841, Control_c, 2, 7, 46
3, 6935, Control_c, 2, 7, 43
3, 7118, Note_off_c, 2, 70, 0
3, 10217, Control_c, 2, 7, 71
3, 10261, Note_on_c, 2, 68, 55
3, 11085, Control_c, 2, 7, 72
3, 11214, Note_off_c, 2, 68, 0
3, 11275, Control_c, 2, 7, 73
3, 11276, Note_on_c, 2, 69, 53
3, 11370, Control_c, 2, 7, 74
3, 11465, Control_c, 2, 7, 75
3, 11560, Control_c, 2, 7, 76
3, 11655, Control_c, 2, 7, 77
3, 11750, Control_c, 2, 7, 78
3, 11845, Control_c, 2, 7, 79
3, 11940, Control_c, 2, 7, 80
3, 12035, Control_c, 2, 7, 81
3, 12130, Control_c, 2, 7, 82
3, 12225, Control_c, 2, 7, 83
3, 12320, Control_c, 2, 7, 84
3, 12415, Control_c, 2, 7, 85
3, 12510, Control_c, 2, 7, 87
3, 12605, Control_c, 2, 7, 88
3, 12700, Control_c, 2, 7, 89
3, 12795, Control_c, 2, 7, 90
3, 12890, Control_c, 2, 7, 91
3, 12985, Control_c, 2, 7, 92
3, 13080, Control_c, 2, 7, 93
3, 13175, Control_c, 2, 7, 95
3, 13270, Control_c, 2, 7, 96
3, 13280, Note_off_c, 2, 69, 0
3, 13460, Control_c, 2, 7, 97
3, 13555, Control_c, 2, 7, 98
3, 13650, Control_c, 2, 7, 99
3, 13745, Control_c, 2, 7, 100
3, 13935, Control_c, 2, 7, 101
3, 14330, Control_c, 2, 7, 102
3, 14357, Note_on_c, 2, 64, 49
3, 14620, Note_on_c, 2, 63, 49
3, 14671, Note_off_c, 2, 64, 0
3, 14867, Note_on_c, 2, 61, 49
3, 14918, Note_off_c, 2, 63, 0
3, 15115, Note_on_c, 2, 59, 49
3, 15166, Note_off_c, 2, 61, 0
3, 15372, Note_on_c, 2, 58, 44
3, 15423, Note_off_c, 2, 59, 0
3, 15775, Note_off_c, 2, 58, 0
3, 20457, Control_c, 2, 7, 71
3, 20484, Note_on_c, 2, 70, 57
3, 20964, Note_off_c, 2, 70, 0
3, 21026, Note_on_c, 2, 58, 66
3, 21472, Note_off_c, 2, 58, 0
3, 22039, Note_on_c, 2, 61, 52
3, 22230, Note_off_c, 2, 61, 0
3, 22287, Note_on_c, 2, 58, 52
3, 22492, Note_off_c, 2, 58, 0
3, 22549, Note_on_c, 2, 64, 55
3, 22722, Control_c, 2, 7, 72
3, 22822, Control_c, 2, 7, 73
3, 22922, Control_c, 2, 7, 74
3, 23022, Control_c, 2, 7, 76
3, 23122, Control_c, 2, 7, 78
3, 23222, Control_c, 2, 7, 79
3, 23322, Control_c, 2, 7, 80
3, 23422, Control_c, 2, 7, 81
3, 23537, Control_c, 2, 7, 82
3, 23636, Control_c, 2, 7, 81
3, 23735, Control_c, 2, 7, 80
3, 23834, Control_c, 2, 7, 79
3, 23933, Control_c, 2, 7, 78
3, 24032, Control_c, 2, 7, 76
3, 24131, Control_c, 2, 7, 74
3, 24230, Control_c, 2, 7, 73
3, 24329, Control_c, 2, 7, 72
3, 24428, Control_c, 2, 7, 71
3, 24514, Note_off_c, 2, 64, 0
3, 24580, Note_on_c, 2, 65, 57
3, 25060, Note_off_c, 2, 65, 0
3, 25122, Note_on_c, 2, 53, 66
3, 25568, Note_off_c, 2, 53, 0
3, 26135, Note_on_c, 2, 73, 52
3, 26326, Note_off_c, 2, 73, 0
3, 26383, Note_on_c, 2, 70, 52
3, 26490, Note_off_c, 2, 70, 0
3, 26645, Note_on_c, 2, 70, 55
3, 27598, Note_off_c, 2, 70, 0
3, 27660, Note_on_c, 2, 68, 53
3, 28362, Note_off_c, 2, 68, 0
3, 28649, Control_c, 2, 7, 102
3, 29218, Note_on_c, 2, 76, 49
3, 29664, Note_off_c, 2, 76, 0
3, 29726, Note_on_c, 2, 73, 49
3, 29984, Note_on_c, 2, 71, 44
3, 30035, Note_off_c, 2, 73, 0
3, 30140, Note_off_c, 2, 71, 0
3, 30231, Note_on_c, 2, 69, 49
3, 30324, Note_off_c, 2, 69, 0
3, 30479, Note_on_c, 2, 65, 49
3, 30586, Note_off_c, 2, 65, 0
3, 30741, Note_on_c, 2, 70, 52
3, 31189, Note_off_c, 2, 70, 0
3, 31756, Note_on_c, 2, 58, 49
3, 32013, Note_on_c, 2, 60, 49
3, 32064, Note_off_c, 2, 58, 0
3, 32261, Note_on_c, 2, 61, 49
3, 32312, Note_off_c, 2, 60, 0
3, 32509, Note_on_c, 2, 63, 49
3, 32560, Note_off_c, 2, 61, 0
3, 32768, Control_c, 2, 7, 97
3, 32772, Note_on_c, 2, 65, 44
3, 32819, Note_off_c, 2, 63, 0
3, 32865, Control_c, 2, 7, 93
3, 32962, Control_c, 2, 7, 89
3, 33059, Control_c, 2, 7, 85
3, 33156, Control_c, 2, 7, 81
3, 33253, Control_c, 2, 7, 76
3, 33350, Control_c, 2, 7, 72
3, 33447, Control_c, 2, 7, 68
3, 33544, Control_c, 2, 7, 64
3, 33641, Control_c, 2, 7, 60
3, 33738, Control_c, 2, 7, 56
3, 33835, Control_c, 2, 7, 51
3, 33932, Control_c, 2, 7, 47
3, 33967, Control_c, 2, 7, 48
3, 34347, Control_c, 2, 7, 49
3, 34537, Control_c, 2, 7, 50
3, 34632, Control_c, 2, 7, 51
3, 34727, Control_c, 2, 7, 52
3, 34917, Control_c, 2, 7, 53
3, 35012, Control_c, 2, 7, 55
3, 35107, Control_c, 2, 7, 56
3, 35202, Control_c, 2, 7, 57
3, 35297, Control_c, 2, 7, 58
3, 35392, Control_c, 2, 7, 59
3, 35487, Control_c, 2, 7, 60
3, 35582, Control_c, 2, 7, 61
3, 35677, Control_c, 2, 7, 62
3, 35750, Note_off_c, 2, 65, 0
3, 35772, Control_c, 2, 7, 63
3, 35867, Control_c, 2, 7, 65
3, 35962, Control_c, 2, 7, 66
3, 36152, Control_c, 2, 7, 67
3, 36247, Control_c, 2, 7, 68
3, 36342, Control_c, 2, 7, 69
3, 36532, Control_c, 2, 7, 70
3, 36817, Control_c, 2, 7, 71
3, 36841, Control_c, 2, 7, 45
3, 36868, Note_on_c, 2, 70, 77
3, 37348, Note_off_c, 2, 70, 0
3, 37410, Note_on_c, 2, 58, 86
3, 37757, Control_c, 2, 7, 47
3, 37851, Control_c, 2, 7, 46
3, 37856, Note_off_c, 2, 58, 0
3, 37945, Control_c, 2, 7, 47
3, 38039, Control_c, 2, 7, 49
3, 38133, Control_c, 2, 7, 50
3, 38227, Control_c, 2, 7, 51
3, 38321, Control_c, 2, 7, 53
3, 38415, Control_c, 2, 7, 54
3, 38423, Note_on_c, 2, 61, 72
3, 38509, Control_c, 2, 7, 56
3, 38603, Control_c, 2, 7, 57
3, 38614, Note_off_c, 2, 61, 0
3, 38671, Note_on_c, 2, 58, 72
3, 38697, Control_c, 2, 7, 58
3, 38784, Note_on_c, 2, 63, 52
3, 38791, Control_c, 2, 7, 82
3, 38876, Note_off_c, 2, 58, 0
3, 38906, Control_c, 2, 7, 78
3, 38912, Note_off_c, 2, 63, 0
3, 38920, Note_on_c, 2, 64, 81
3, 40898, Note_off_c, 2, 64, 0
3, 40937, Control_c, 2, 7, 45
3, 40964, Note_on_c, 2, 65, 77
3, 41444, Note_off_c, 2, 65, 0
3, 41506, Note_on_c, 2, 53, 86
3, 41952, Note_off_c, 2, 53, 0
3, 42519, Note_on_c, 2, 73, 72
3, 42710, Note_off_c, 2, 73, 0
3, 42767, Note_on_c, 2, 70, 72
3, 42874, Note_off_c, 2, 70, 0
3, 43029, Note_on_c, 2, 70, 75
3, 43573, Control_c, 2, 7, 46
3, 43941, Control_c, 2, 7, 47
3, 43982, Note_off_c, 2, 70, 0
3, 44044, Note_on_c, 2, 68, 73
3, 44125, Control_c, 2, 7, 48
3, 44309, Control_c, 2, 7, 49
3, 44493, Control_c, 2, 7, 50
3, 44677, Control_c, 2, 7, 51
3, 44769, Control_c, 2, 7, 52
3, 44953, Control_c, 2, 7, 53
3, 44994, Note_off_c, 2, 68, 0
3, 45137, Control_c, 2, 7, 54
3, 45229, Control_c, 2, 7, 55
3, 45321, Control_c, 2, 7, 56
3, 45505, Control_c, 2, 7, 57
3, 45597, Control_c, 2, 7, 58
3, 45602, Note_on_c, 2, 68, 72
3, 45781, Control_c, 2, 7, 59
3, 45873, Control_c, 2, 7, 60
3, 45965, Control_c, 2, 7, 61
3, 46149, Control_c, 2, 7, 62
3, 46241, Control_c, 2, 7, 63
3, 46333, Control_c, 2, 7, 64
3, 46517, Control_c, 2, 7, 65
3, 46553, Note_off_c, 2, 68, 0
3, 46609, Control_c, 2, 7, 66
3, 46615, Note_on_c, 2, 66, 72
3, 46793, Control_c, 2, 7, 67
3, 46885, Control_c, 2, 7, 68
3, 47069, Control_c, 2, 7, 69
3, 47161, Control_c, 2, 7, 70
3, 47345, Control_c, 2, 7, 71
3, 47437, Control_c, 2, 7, 72
3, 47621, Control_c, 2, 7, 73
3, 47634, Note_off_c, 2, 66, 0
3, 47635, Note_on_c, 2, 66, 72
3, 47805, Control_c, 2, 7, 74
3, 47989, Control_c, 2, 7, 75
3, 48265, Control_c, 2, 7, 76
3, 48541, Control_c, 2, 7, 77
3, 48584, Note_off_c, 2, 66, 0
3, 48645, Note_on_c, 2, 63, 72
3, 49092, Note_off_c, 2, 63, 0
3, 49130, Control_c, 2, 7, 78
3, 49156, Note_on_c, 2, 64, 78
3, 49740, Control_c, 2, 7, 77
3, 50025, Control_c, 2, 7, 76
3, 50215, Control_c, 2, 7, 75
3, 50310, Control_c, 2, 7, 74
3, 50500, Control_c, 2, 7, 73
3, 50595, Control_c, 2, 7, 72
3, 50690, Control_c, 2, 7, 71
3, 50785, Control_c, 2, 7, 70
3, 50880, Control_c, 2, 7, 69
3, 50975, Control_c, 2, 7, 68
3, 51070, Control_c, 2, 7, 67
3, 51165, Control_c, 2, 7, 66
3, 51260, Control_c, 2, 7, 65
3, 51355, Control_c, 2, 7, 64
3, 51450, Control_c, 2, 7, 63
3, 51545, Control_c, 2, 7, 62
3, 51735, Control_c, 2, 7, 61
3, 51925, Control_c, 2, 7, 60
3, 52177, Note_off_c, 2, 64, 0
3, 52741, Note_on_c, 2, 63, 76
3, 52932, Note_off_c, 2, 63, 0
3, 52989, Note_on_c, 2, 64, 76
3, 53191, Note_off_c, 2, 64, 0
3, 53252, Note_on_c, 2, 65, 81
3, 54931, Control_c, 2, 7, 61
3, 55026, Control_c, 2, 7, 63
3, 55121, Control_c, 2, 7, 64
3, 55216, Control_c, 2, 7, 66
3, 55255, Note_off_c, 2, 65, 0
3, 55311, Control_c, 2, 7, 68
3, 55317, Note_on_c, 2, 68, 79
3, 55406, Control_c, 2, 7, 69
3, 55501, Control_c, 2, 7, 71
3, 55596, Control_c, 2, 7, 72
3, 55691, Control_c, 2, 7, 74
3, 55786, Control_c, 2, 7, 76
3, 55881, Control_c, 2, 7, 77
3, 55976, Control_c, 2, 7, 79
3, 56071, Control_c, 2, 7, 81
3, 56166, Control_c, 2, 7, 82
3, 56261, Control_c, 2, 7, 84
3, 56356, Control_c, 2, 7, 85
3, 56451, Control_c, 2, 7, 87
3, 56546, Control_c, 2, 7, 89
3, 56641, Control_c, 2, 7, 90
3, 56736, Control_c, 2, 7, 92
3, 56831, Control_c, 2, 7, 94
3, 56926, Control_c, 2, 7, 95
3, 57021, Control_c, 2, 7, 97
3, 57116, Control_c, 2, 7, 98
3, 57138, Note_off_c, 2, 68, 0
3, 57211, Control_c, 2, 7, 100
3, 57306, Control_c, 2, 7, 102
3, 57348, Note_on_c, 2, 64, 49
3, 57648, Control_c, 2, 7, 99
3, 57745, Control_c, 2, 7, 96
3, 57842, Control_c, 2, 7, 93
3, 57939, Control_c, 2, 7, 91
3, 58036, Control_c, 2, 7, 88
3, 58133, Control_c, 2, 7, 85
3, 58230, Control_c, 2, 7, 82
3, 58327, Control_c, 2, 7, 80
3, 58424, Control_c, 2, 7, 77
3, 58521, Control_c, 2, 7, 74
3, 58618, Control_c, 2, 7, 71
3, 58715, Control_c, 2, 7, 69
3, 58812, Control_c, 2, 7, 66
3, 58909, Control_c, 2, 7, 63
3, 59006, Control_c, 2, 7, 60
3, 59103, Control_c, 2, 7, 58
3, 59200, Control_c, 2, 7, 55
3, 59297, Control_c, 2, 7, 52
3, 59394, Control_c, 2, 7, 49
3, 59491, Control_c, 2, 7, 47
3, 59588, Control_c, 2, 7, 44
3, 59685, Control_c, 2, 7, 41
3, 61210, Note_off_c, 2, 64, 0
3, 61929, Control_c, 2, 7, 102
3, 61986, Note_on_c, 2, 80, 62
3, 62432, Note_off_c, 2, 80, 0
3, 62494, Note_on_c, 2, 78, 62
3, 62752, Note_on_c, 2, 75, 57
3, 62803, Note_off_c, 2, 78, 0
3, 62908, Note_off_c, 2, 75, 0
3, 62999, Note_on_c, 2, 72, 62
3, 63092, Note_off_c, 2, 72, 0
3, 63247, Note_on_c, 2, 68, 62
3, 63354, Note_off_c, 2, 68, 0
3, 63509, Note_on_c, 2, 73, 65
3, 63957, Note_off_c, 2, 73, 0
3, 64497, Control_c, 2, 7, 56
3, 64524, Note_on_c, 2, 73, 62
3, 64781, Note_on_c, 2, 75, 62
3, 64832, Note_off_c, 2, 73, 0
3, 65029, Note_on_c, 2, 76, 62
3, 65080, Note_off_c, 2, 75, 0
3, 65277, Note_on_c, 2, 75, 62
3, 65328, Note_off_c, 2, 76, 0
3, 65540, Note_on_c, 2, 73, 57
3, 65587, Note_off_c, 2, 75, 0
3, 65980, Note_off_c, 2, 73, 0
3, 66082, Note_on_c, 2, 61, 76
3, 66528, Note_off_c, 2, 61, 0
3, 67095, Note_on_c, 2, 76, 62
3, 67286, Note_off_c, 2, 76, 0
3, 67343, Note_on_c, 2, 73, 62
3, 67548, Note_off_c, 2, 73, 0
3, 67605, Note_on_c, 2, 79, 65
3, 67878, Control_c, 2, 7, 57
3, 67978, Control_c, 2, 7, 58
3, 68078, Control_c, 2, 7, 60
3, 68178, Control_c, 2, 7, 61
3, 68278, Control_c, 2, 7, 62
3, 68378, Control_c, 2, 7, 63
3, 68593, Control_c, 2, 7, 64
3, 68692, Control_c, 2, 7, 63
3, 68890, Control_c, 2, 7, 62
3, 68989, Control_c, 2, 7, 61
3, 69088, Control_c, 2, 7, 60
3, 69187, Control_c, 2, 7, 58
3, 69286, Control_c, 2, 7, 57
3, 69385, Control_c, 2, 7, 56
3, 69570, Note_off_c, 2, 79, 0
3, 69636, Note_on_c, 2, 73, 67
3, 70116, Note_off_c, 2, 73, 0
3, 70178, Note_on_c, 2, 61, 76
3, 70624, Note_off_c, 2, 61, 0
3, 71191, Note_on_c, 2, 76, 62
3, 71382, Note_off_c, 2, 76, 0
3, 71439, Note_on_c, 2, 73, 62
3, 71546, Note_off_c, 2, 73, 0
3, 71701, Note_on_c, 2, 73, 65
3, 72654, Note_off_c, 2, 73, 0
3, 72716, Note_on_c, 2, 71, 63
3, 73666, Note_off_c, 2, 71, 0
3, 73732, Note_on_c, 2, 73, 67
3, 74212, Note_off_c, 2, 73, 0
3, 74274, Note_on_c, 2, 61, 76
3, 74720, Note_off_c, 2, 61, 0
3, 75287, Note_on_c, 2, 76, 62
3, 75478, Note_off_c, 2, 76, 0
3, 75535, Note_on_c, 2, 73, 62
3, 75740, Note_off_c, 2, 73, 0
3, 75797, Note_on_c, 2, 79, 65
3, 76261, Control_c, 2, 7, 57
3, 76543, Control_c, 2, 7, 58
3, 76731, Control_c, 2, 7, 59
3, 76919, Control_c, 2, 7, 60
3, 77107, Control_c, 2, 7, 61
3, 77201, Control_c, 2, 7, 62
3, 77389, Control_c, 2, 7, 63
3, 77483, Control_c, 2, 7, 64
3, 77577, Control_c, 2, 7, 65
3, 77765, Control_c, 2, 7, 66
3, 77859, Control_c, 2, 7, 67
3, 78047, Control_c, 2, 7, 68
3, 78141, Control_c, 2, 7, 69
3, 78329, Control_c, 2, 7, 70
3, 78423, Control_c, 2, 7, 71
3, 78611, Control_c, 2, 7, 72
3, 78705, Control_c, 2, 7, 73
3, 78816, Note_off_c, 2, 79, 0
3, 78893, Control_c, 2, 7, 74
3, 79081, Control_c, 2, 7, 75
3, 79363, Control_c, 2, 7, 76
3, 79866, Control_c, 2, 7, 77
3, 79893, Note_on_c, 2, 66, 64
3, 80156, Note_on_c, 2, 64, 64
3, 80207, Note_off_c, 2, 66, 0
3, 80403, Note_on_c, 2, 63, 64
3, 80454, Note_off_c, 2, 64, 0
3, 80651, Note_on_c, 2, 60, 64
3, 80702, Note_off_c, 2, 63, 0
3, 80908, Note_on_c, 2, 61, 59
3, 80959, Note_off_c, 2, 60, 0
3, 81311, Note_off_c, 2, 61, 0
3, 81920, Control_c, 2, 7, 102
3, 81924, Note_on_c, 2, 73, 80
3, 82404, Note_off_c, 2, 73, 0
3, 82466, Note_on_c, 2, 61, 105
3, 82721, Control_c, 2, 7, 98
3, 82817, Control_c, 2, 7, 94
3, 82912, Note_off_c, 2, 61, 0
3, 82913, Control_c, 2, 7, 91
3, 83009, Control_c, 2, 7, 87
3, 83105, Control_c, 2, 7, 84
3, 83201, Control_c, 2, 7, 80
3, 83297, Control_c, 2, 7, 77
3, 83393, Control_c, 2, 7, 73
3, 83479, Note_on_c, 2, 76, 75
3, 83489, Control_c, 2, 7, 70
3, 83585, Control_c, 2, 7, 66
3, 83670, Note_off_c, 2, 76, 0
3, 83681, Control_c, 2, 7, 63
3, 83727, Note_on_c, 2, 73, 74
3, 83840, Note_on_c, 2, 78, 74
3, 83932, Note_off_c, 2, 73, 0
3, 83968, Note_off_c, 2, 78, 0
3, 83976, Note_on_c, 2, 79, 77
3, 84504, Control_c, 2, 7, 65
3, 84602, Control_c, 2, 7, 67
3, 84700, Control_c, 2, 7, 70
3, 84798, Control_c, 2, 7, 72
3, 84896, Control_c, 2, 7, 75
3, 84994, Control_c, 2, 7, 77
3, 85092, Control_c, 2, 7, 80
3, 85190, Control_c, 2, 7, 82
3, 85288, Control_c, 2, 7, 85
3, 85386, Control_c, 2, 7, 87
3, 85484, Control_c, 2, 7, 89
3, 85582, Control_c, 2, 7, 92
3, 85680, Control_c, 2, 7, 94
3, 85778, Control_c, 2, 7, 97
3, 85876, Control_c, 2, 7, 99
3, 85954, Note_off_c, 2, 79, 0
3, 85974, Control_c, 2, 7, 102
3, 86020, Note_on_c, 2, 73, 80
3, 86500, Note_off_c, 2, 73, 0
3, 86562, Note_on_c, 2, 61, 105
3, 86815, Control_c, 2, 7, 99
3, 86909, Control_c, 2, 7, 96
3, 87003, Control_c, 2, 7, 93
3, 87008, Note_off_c, 2, 61, 0
3, 87097, Control_c, 2, 7, 90
3, 87191, Control_c, 2, 7, 88
3, 87285, Control_c, 2, 7, 85
3, 87379, Control_c, 2, 7, 82
3, 87473, Control_c, 2, 7, 79
3, 87567, Control_c, 2, 7, 76
3, 87575, Note_on_c, 2, 76, 75
3, 87661, Control_c, 2, 7, 74
3, 87755, Control_c, 2, 7, 71
3, 87766, Note_off_c, 2, 76, 0
3, 87823, Note_on_c, 2, 73, 75
3, 87849, Control_c, 2, 7, 68
3, 87930, Note_off_c, 2, 73, 0
3, 87943, Control_c, 2, 7, 65
3, 88037, Control_c, 2, 7, 63
3, 88085, Note_on_c, 2, 73, 77
3, 88704, Control_c, 2, 7, 65
3, 88801, Control_c, 2, 7, 68
3, 88898, Control_c, 2, 7, 70
3, 88995, Control_c, 2, 7, 73
3, 89038, Note_off_c, 2, 73, 0
3, 89092, Control_c, 2, 7, 75
3, 89100, Note_on_c, 2, 71, 75
3, 89189, Control_c, 2, 7, 78
3, 89286, Control_c, 2, 7, 81
3, 89383, Control_c, 2, 7, 83
3, 89480, Control_c, 2, 7, 86
3, 89577, Control_c, 2, 7, 88
3, 89674, Control_c, 2, 7, 91
3, 89771, Control_c, 2, 7, 94
3, 89868, Control_c, 2, 7, 96
3, 89965, Control_c, 2, 7, 99
3, 90050, Note_off_c, 2, 71, 0
3, 90062, Control_c, 2, 7, 101
3, 90089, Control_c, 2, 7, 102
3, 90116, Note_on_c, 2, 73, 80
3, 90596, Note_off_c, 2, 73, 0
3, 90658, Note_on_c, 2, 61, 105
3, 90911, Control_c, 2, 7, 99
3, 91005, Control_c, 2, 7, 96
3, 91099, Control_c, 2, 7, 93
3, 91104, Note_off_c, 2, 61, 0
3, 91193, Control_c, 2, 7, 90
3, 91287, Control_c, 2, 7, 88
3, 91381, Control_c, 2, 7, 85
3, 91475, Control_c, 2, 7, 82
3, 91569, Control_c, 2, 7, 79
3, 91663, Control_c, 2, 7, 76
3, 91671, Note_on_c, 2, 77, 75
3, 91757, Control_c, 2, 7, 74
3, 91851, Control_c, 2, 7, 71
3, 91862, Note_off_c, 2, 77, 0
3, 91919, Note_on_c, 2, 73, 75
3, 91945, Control_c, 2, 7, 68
3, 92032, Note_on_c, 2, 79, 100
3, 92039, Control_c, 2, 7, 65
3, 92124, Note_off_c, 2, 73, 0
3, 92133, Control_c, 2, 7, 63
3, 92160, Note_off_c, 2, 79, 0
3, 92168, Note_on_c, 2, 80, 77
3, 92639, Control_c, 2, 7, 64
3, 92734, Control_c, 2, 7, 65
3, 92829, Control_c, 2, 7, 66
3, 92924, Control_c, 2, 7, 67
3, 93019, Control_c, 2, 7, 68
3, 93114, Control_c, 2, 7, 69
3, 93209, Control_c, 2, 7, 71
3, 93304, Control_c, 2, 7, 72
3, 93399, Control_c, 2, 7, 74
3, 93494, Control_c, 2, 7, 75
3, 93589, Control_c, 2, 7, 76
3, 93684, Control_c, 2, 7, 77
3, 93779, Control_c, 2, 7, 78
3, 93874, Control_c, 2, 7, 79
3, 93969, Control_c, 2, 7, 80
3, 94185, Control_c, 2, 7, 81
3, 94692, Note_off_c, 2, 80, 0
3, 94754, Note_on_c, 2, 81, 76
3, 95027, Control_c, 2, 7, 82
3, 95127, Control_c, 2, 7, 83
3, 95227, Control_c, 2, 7, 84
3, 95327, Control_c, 2, 7, 85
3, 95427, Control_c, 2, 7, 86
3, 95627, Control_c, 2, 7, 87
3, 95727, Control_c, 2, 7, 88
3, 95937, Control_c, 2, 7, 89
3, 96033, Control_c, 2, 7, 88
3, 96129, Control_c, 2, 7, 87
3, 96225, Control_c, 2, 7, 86
3, 96321, Control_c, 2, 7, 84
3, 96417, Control_c, 2, 7, 82
3, 96513, Control_c, 2, 7, 79
3, 96609, Control_c, 2, 7, 77
3, 96705, Control_c, 2, 7, 74
3, 96801, Control_c, 2, 7, 71
3, 96897, Control_c, 2, 7, 68
3, 96993, Control_c, 2, 7, 65
3, 97089, Control_c, 2, 7, 62
3, 97185, Control_c, 2, 7, 59
3, 97281, Control_c, 2, 7, 57
3, 97377, Control_c, 2, 7, 55
3, 97473, Control_c, 2, 7, 53
3, 97569, Control_c, 2, 7, 52
3, 97665, Control_c, 2, 7, 51
3, 97735, Note_off_c, 2, 81, 0
3, 99305, Control_c, 2, 7, 127
3, 99331, Control_c, 2, 7, 102
3, 99358, Note_on_c, 2, 74, 50
3, 99555, Note_off_c, 2, 74, 0
3, 101388, Note_on_c, 2, 68, 38
3, 101585, Note_off_c, 2, 68, 0
3, 102404, Note_on_c, 2, 68, 42
3, 102638, Note_off_c, 2, 68, 0
3, 102824, Control_c, 2, 7, 99
3, 102919, Control_c, 2, 7, 96
3, 103014, Control_c, 2, 7, 94
3, 103109, Control_c, 2, 7, 91
3, 103204, Control_c, 2, 7, 89
3, 103299, Control_c, 2, 7, 86
3, 103394, Control_c, 2, 7, 84
3, 103489, Control_c, 2, 7, 81
3, 103584, Control_c, 2, 7, 79
3, 103679, Control_c, 2, 7, 76
3, 103774, Control_c, 2, 7, 74
3, 103869, Control_c, 2, 7, 71
3, 103964, Control_c, 2, 7, 68
3, 104059, Control_c, 2, 7, 66
3, 104154, Control_c, 2, 7, 63
3, 104249, Control_c, 2, 7, 61
3, 104344, Control_c, 2, 7, 58
3, 104439, Control_c, 2, 7, 56
3, 104469, Note_on_c, 2, 73, 52
3, 104534, Control_c, 2, 7, 53
3, 104629, Control_c, 2, 7, 51
3, 104917, Note_off_c, 2, 73, 0
3, 104979, Note_on_c, 2, 61, 69
3, 105422, Note_off_c, 2, 61, 0
3, 107469, Control_c, 2, 7, 102
3, 107550, Note_on_c, 2, 59, 49
3, 108565, Note_on_c, 2, 61, 49
3, 108616, Note_off_c, 2, 59, 0
3, 109580, Note_on_c, 2, 60, 44
3, 109631, Note_off_c, 2, 61, 0
3, 110493, Note_off_c, 2, 60, 0
3, 111138, Note_on_c, 2, 68, 62
3, 111584, Note_off_c, 2, 68, 0
3, 111646, Note_on_c, 2, 72, 62
3, 111904, Note_on_c, 2, 69, 57
3, 111955, Note_off_c, 2, 72, 0
3, 112060, Note_off_c, 2, 69, 0
3, 112151, Note_on_c, 2, 72, 62
3, 112244, Note_off_c, 2, 72, 0
3, 112399, Note_on_c, 2, 75, 62
3, 112506, Note_off_c, 2, 75, 0
3, 112661, Note_on_c, 2, 76, 81
3, 113109, Note_off_c, 2, 76, 0
3, 114181, Note_on_c, 2, 71, 62
3, 114429, Note_on_c, 2, 72, 62
3, 114480, Note_off_c, 2, 71, 0
3, 114692, Note_on_c, 2, 73, 57
3, 114739, Note_off_c, 2, 72, 0
3, 115013, Note_off_c, 2, 73, 0
3, 115234, Note_on_c, 2, 61, 62
3, 115426, Note_off_c, 2, 61, 0
3, 115483, Note_on_c, 2, 63, 62
3, 115685, Note_off_c, 2, 63, 0
3, 115742, Note_on_c, 2, 64, 63
3, 115845, Note_off_c, 2, 64, 0
3, 116000, Note_on_c, 2, 63, 62
3, 116092, Note_off_c, 2, 63, 0
3, 116247, Note_on_c, 2, 61, 62
3, 116340, Note_off_c, 2, 61, 0
3, 116495, Note_on_c, 2, 63, 62
3, 116541, Note_off_c, 2, 63, 0
3, 116757, Note_on_c, 2, 67, 65
3, 116959, Note_off_c, 2, 67, 0
3, 117267, Note_on_c, 2, 61, 62
3, 117464, Note_off_c, 2, 61, 0
3, 118277, Note_on_c, 2, 78, 62
3, 118525, Note_on_c, 2, 79, 62
3, 118576, Note_off_c, 2, 78, 0
3, 118788, Note_on_c, 2, 80, 57
3, 118835, Note_off_c, 2, 79, 0
3, 119109, Note_off_c, 2, 80, 0
3, 119330, Note_on_c, 2, 68, 62
3, 119530, Note_off_c, 2, 68, 0
3, 119838, Note_on_c, 2, 71, 63
3, 119941, Note_off_c, 2, 71, 0
3, 120096, Note_on_c, 2, 70, 62
3, 120188, Note_off_c, 2, 70, 0
3, 120343, Note_on_c, 2, 71, 62
3, 120436, Note_off_c, 2, 71, 0
3, 120591, Note_on_c, 2, 73, 62
3, 120698, Note_off_c, 2, 73, 0
3, 120853, Note_on_c, 2, 71, 65
3, 121055, Note_off_c, 2, 71, 0
3, 121719, Control_c, 2, 7, 81
3, 122373, Note_on_c, 2, 73, 76
3, 122463, Control_c, 2, 7, 82
3, 122621, Note_on_c, 2, 71, 76
3, 122672, Note_off_c, 2, 73, 0
3, 122742, Control_c, 2, 7, 83
3, 122884, Note_on_c, 2, 69, 71
3, 122931, Note_off_c, 2, 71, 0
3, 123021, Control_c, 2, 7, 84
3, 123205, Note_off_c, 2, 69, 0
3, 123207, Control_c, 2, 7, 85
3, 123393, Control_c, 2, 7, 86
3, 123426, Note_on_c, 2, 57, 76
3, 123579, Control_c, 2, 7, 87
3, 123618, Note_off_c, 2, 57, 0
3, 123675, Note_on_c, 2, 59, 76
3, 123765, Control_c, 2, 7, 88
3, 123877, Note_off_c, 2, 59, 0
3, 123934, Note_on_c, 2, 61, 77
3, 123951, Control_c, 2, 7, 89
3, 124037, Note_off_c, 2, 61, 0
3, 124137, Control_c, 2, 7, 90
3, 124192, Note_on_c, 2, 59, 76
3, 124284, Note_off_c, 2, 59, 0
3, 124323, Control_c, 2, 7, 91
3, 124416, Control_c, 2, 7, 92
3, 124439, Note_on_c, 2, 57, 76
3, 124532, Note_off_c, 2, 57, 0
3, 124602, Control_c, 2, 7, 93
3, 124687, Note_on_c, 2, 59, 76
3, 124788, Control_c, 2, 7, 94
3, 124794, Note_off_c, 2, 59, 0
3, 124949, Note_on_c, 2, 61, 79
3, 124974, Control_c, 2, 7, 95
3, 125151, Note_off_c, 2, 61, 0
3, 125160, Control_c, 2, 7, 96
3, 125346, Control_c, 2, 7, 97
3, 125459, Note_on_c, 2, 67, 76
3, 125532, Control_c, 2, 7, 98
3, 125656, Note_off_c, 2, 67, 0
3, 125718, Control_c, 2, 7, 99
3, 125997, Control_c, 2, 7, 100
3, 126276, Control_c, 2, 7, 101
3, 126469, Note_on_c, 2, 78, 76
3, 126717, Note_on_c, 2, 79, 76
3, 126768, Note_off_c, 2, 78, 0
3, 126953, Control_c, 2, 7, 102
3, 126980, Note_on_c, 2, 80, 70
3, 127027, Note_off_c, 2, 79, 0
3, 127301, Note_off_c, 2, 80, 0
3, 127522, Note_on_c, 2, 68, 105
3, 127968, Note_off_c, 2, 68, 0
3, 128535, Note_on_c, 2, 71, 75
3, 128726, Note_off_c, 2, 71, 0
3, 128783, Note_on_c, 2, 68, 75
3, 128988, Note_off_c, 2, 68, 0
3, 129045, Note_on_c, 2, 74, 75
3, 129308, Note_on_c, 2, 73, 75
3, 129359, Note_off_c, 2, 74, 0
3, 129555, Note_on_c, 2, 70, 75
3, 129605, Note_off_c, 2, 73, 0
3, 129803, Note_on_c, 2, 67, 75
3, 129853, Note_off_c, 2, 70, 0
3, 130060, Note_on_c, 2, 68, 70
3, 130110, Note_off_c, 2, 67, 0
3, 130466, Note_off_c, 2, 68, 0
3, 131072, Control_c, 2, 7, 63
3, 131076, Note_on_c, 2, 73, 79
3, 131310, Note_off_c, 2, 73, 0
3, 131443, Control_c, 2, 7, 64
3, 131537, Control_c, 2, 7, 66
3, 131618, Note_on_c, 2, 61, 74
3, 131631, Control_c, 2, 7, 67
3, 131725, Control_c, 2, 7, 69
3, 131810, Note_off_c, 2, 61, 0
3, 131819, Control_c, 2, 7, 71
3, 131867, Note_on_c, 2, 63, 74
3, 131913, Control_c, 2, 7, 72
3, 132007, Control_c, 2, 7, 74
3, 132069, Note_off_c, 2, 63, 0
3, 132101, Control_c, 2, 7, 75
3, 132126, Note_on_c, 2, 64, 75
3, 132195, Control_c, 2, 7, 77
3, 132229, Note_off_c, 2, 64, 0
3, 132289, Control_c, 2, 7, 79
3, 132383, Control_c, 2, 7, 80
3, 132384, Note_on_c, 2, 63, 74
3, 132476, Note_off_c, 2, 63, 0
3, 132477, Control_c, 2, 7, 82
3, 132571, Control_c, 2, 7, 84
3, 132631, Note_on_c, 2, 61, 74
3, 132665, Control_c, 2, 7, 85
3, 132724, Note_off_c, 2, 61, 0
3, 132759, Control_c, 2, 7, 87
3, 132853, Control_c, 2, 7, 88
3, 132879, Note_on_c, 2, 63, 74
3, 132925, Note_off_c, 2, 63, 0
3, 132947, Control_c, 2, 7, 90
3, 133041, Control_c, 2, 7, 92
3, 133135, Control_c, 2, 7, 93
3, 133141, Note_on_c, 2, 67, 77
3, 133229, Control_c, 2, 7, 95
3, 133323, Control_c, 2, 7, 97
3, 133343, Note_off_c, 2, 67, 0
3, 133417, Control_c, 2, 7, 98
3, 133511, Control_c, 2, 7, 100
3, 133605, Control_c, 2, 7, 101
3, 133624, Control_c, 2, 7, 102
3, 133651, Note_on_c, 2, 61, 75
3, 133848, Note_off_c, 2, 61, 0
3, 134246, Control_c, 2, 7, 56
3, 134303, Control_c, 2, 7, 96
3, 134343, Control_c, 2, 7, 55
3, 134405, Control_c, 2, 7, 91
3, 134440, Control_c, 2, 7, 54
3, 134507, Control_c, 2, 7, 86
3, 134537, Control_c, 2, 7, 53
3, 134609, Control_c, 2, 7, 81
3, 134634, Control_c, 2, 7, 51
3, 134661, Note_on_c, 2, 78, 75
3, 134711, Control_c, 2, 7, 76
3, 134731, Control_c, 2, 7, 50
3, 134813, Control_c, 2, 7, 71
3, 134828, Control_c, 2, 7, 48
3, 134909, Note_on_c, 2, 79, 70
3, 134915, Control_c, 2, 7, 66
3, 134925, Control_c, 2, 7, 47
3, 134960, Note_off_c, 2, 78, 0
3, 135017, Control_c, 2, 7, 61
3, 135022, Control_c, 2, 7, 46
3, 135077, Note_off_c, 2, 79, 0
3, 135119, Control_c, 2, 7, 56
3, 135145, Control_c, 2, 7, 63
3, 135172, Note_on_c, 2, 80, 79
3, 135406, Note_off_c, 2, 80, 0
3, 135714, Note_on_c, 2, 68, 74
3, 135914, Note_off_c, 2, 68, 0
3, 136155, Control_c, 2, 7, 65
3, 136222, Note_on_c, 2, 71, 75
3, 136249, Control_c, 2, 7, 66
3, 136325, Note_off_c, 2, 71, 0
3, 136343, Control_c, 2, 7, 68
3, 136437, Control_c, 2, 7, 70
3, 136480, Note_on_c, 2, 70, 74
3, 136531, Control_c, 2, 7, 71
3, 136572, Note_off_c, 2, 70, 0
3, 136625, Control_c, 2, 7, 73
3, 136719, Control_c, 2, 7, 75
3, 136727, Note_on_c, 2, 71, 74
3, 136813, Control_c, 2, 7, 77
3, 136820, Note_off_c, 2, 71, 0
3, 136907, Control_c, 2, 7, 78
3, 136975, Note_on_c, 2, 73, 74
3, 137001, Control_c, 2, 7, 79
3, 137082, Note_off_c, 2, 73, 0
3, 137095, Control_c, 2, 7, 80
3, 137210, Control_c, 2, 7, 81
3, 137237, Note_on_c, 2, 71, 79
3, 137439, Note_off_c, 2, 71, 0
3, 138024, Control_c, 2, 7, 102
3, 138123, Control_c, 2, 7, 101
3, 138222, Control_c, 2, 7, 100
3, 138321, Control_c, 2, 7, 98
3, 138420, Control_c, 2, 7, 95
3, 138519, Control_c, 2, 7, 92
3, 138618, Control_c, 2, 7, 89
3, 138717, Control_c, 2, 7, 86
3, 138729, Control_c, 2, 7, 102
3, 138757, Note_on_c, 2, 73, 62
3, 138816, Control_c, 2, 7, 83
3, 138915, Control_c, 2, 7, 80
3, 139005, Note_on_c, 2, 71, 62
3, 139014, Control_c, 2, 7, 78
3, 139056, Note_off_c, 2, 73, 0
3, 139113, Control_c, 2, 7, 77
3, 139268, Note_on_c, 2, 70, 59
3, 139315, Note_off_c, 2, 71, 0
3, 139589, Note_off_c, 2, 70, 0
3, 139810, Note_on_c, 2, 58, 64
3, 140002, Note_off_c, 2, 58, 0
3, 140059, Note_on_c, 2, 59, 64
3, 140261, Note_off_c, 2, 59, 0
3, 140318, Note_on_c, 2, 61, 65
3, 140421, Note_off_c, 2, 61, 0
3, 140576, Note_on_c, 2, 63, 64
3, 140668, Note_off_c, 2, 63, 0
3, 140823, Note_on_c, 2, 61, 64
3, 140916, Note_off_c, 2, 61, 0
3, 141071, Note_on_c, 2, 63, 64
3, 141178, Note_off_c, 2, 63, 0
3, 141333, Note_on_c, 2, 67, 67
3, 141535, Note_off_c, 2, 67, 0
3, 141843, Note_on_c, 2, 61, 64
3, 142040, Note_off_c, 2, 61, 0
3, 142853, Note_on_c, 2, 68, 64
3, 143101, Note_on_c, 2, 70, 64
3, 143152, Note_off_c, 2, 68, 0
3, 143364, Note_on_c, 2, 71, 59
3, 143411, Note_off_c, 2, 70, 0
3, 143685, Note_off_c, 2, 71, 0
3, 143844, Control_c, 2, 7, 102
3, 143906, Note_on_c, 2, 59, 75
3, 144106, Note_off_c, 2, 59, 0
3, 145429, Note_on_c, 2, 70, 75
3, 145692, Note_on_c, 2, 68, 75
3, 145743, Note_off_c, 2, 70, 0
3, 145939, Note_on_c, 2, 67, 75
3, 145989, Note_off_c, 2, 68, 0
3, 146187, Note_on_c, 2, 70, 75
3, 146237, Note_off_c, 2, 67, 0
3, 146444, Note_on_c, 2, 68, 70
3, 146494, Note_off_c, 2, 70, 0
3, 146850, Note_off_c, 2, 68, 0
3, 147460, Note_on_c, 2, 71, 62
3, 147753, Note_on_c, 2, 72, 62
3, 147801, Note_off_c, 2, 71, 0
3, 148002, Note_on_c, 2, 73, 57
3, 148053, Note_off_c, 2, 72, 0
3, 148408, Note_off_c, 2, 73, 0
3, 148510, Note_on_c, 2, 61, 63
3, 148613, Note_off_c, 2, 61, 0
3, 148768, Note_on_c, 2, 63, 62
3, 148860, Note_off_c, 2, 63, 0
3, 149015, Note_on_c, 2, 64, 62
3, 149108, Note_off_c, 2, 64, 0
3, 149263, Note_on_c, 2, 63, 62
3, 149370, Note_off_c, 2, 63, 0
3, 149525, Note_on_c, 2, 61, 65
3, 149633, Note_off_c, 2, 61, 0
3, 149788, Note_on_c, 2, 63, 62
3, 149820, Note_off_c, 2, 63, 0
3, 150035, Note_on_c, 2, 67, 62
3, 150232, Note_off_c, 2, 67, 0
3, 151529, Control_c, 2, 7, 59
3, 151556, Note_on_c, 2, 78, 96
3, 151849, Note_on_c, 2, 79, 96
3, 151900, Note_off_c, 2, 78, 0
3, 152098, Note_on_c, 2, 80, 91
3, 152149, Note_off_c, 2, 79, 0
3, 152504, Note_off_c, 2, 80, 0
3, 152606, Note_on_c, 2, 68, 97
3, 152803, Note_off_c, 2, 68, 0
3, 153111, Note_on_c, 2, 70, 96
3, 153204, Note_off_c, 2, 70, 0
3, 153359, Note_on_c, 2, 71, 96
3, 153466, Note_off_c, 2, 71, 0
3, 153621, Note_on_c, 2, 72, 99
3, 153729, Note_off_c, 2, 72, 0
3, 153884, Note_on_c, 2, 73, 96
3, 153976, Note_off_c, 2, 73, 0
3, 154131, Note_on_c, 2, 72, 96
3, 154328, Note_off_c, 2, 72, 0
3, 155652, Note_on_c, 2, 79, 96
3, 155945, Note_on_c, 2, 77, 96
3, 155996, Note_off_c, 2, 79, 0
3, 156194, Note_on_c, 2, 76, 91
3, 156245, Note_off_c, 2, 77, 0
3, 156481, Note_off_c, 2, 76, 0
3, 156702, Note_on_c, 2, 77, 97
3, 156849, Control_c, 2, 7, 60
3, 156903, Note_off_c, 2, 77, 0
3, 156960, Note_on_c, 2, 76, 96
3, 157128, Control_c, 2, 7, 61
3, 157150, Note_off_c, 2, 76, 0
3, 157207, Note_on_c, 2, 77, 96
3, 157300, Note_off_c, 2, 77, 0
3, 157407, Control_c, 2, 7, 62
3, 157455, Note_on_c, 2, 78, 96
3, 157562, Note_off_c, 2, 78, 0
3, 157593, Control_c, 2, 7, 63
3, 157717, Note_on_c, 2, 79, 99
3, 157779, Control_c, 2, 7, 64
3, 157825, Note_off_c, 2, 79, 0
3, 157965, Control_c, 2, 7, 65
3, 157980, Note_on_c, 2, 74, 96
3, 158072, Note_off_c, 2, 74, 0
3, 158151, Control_c, 2, 7, 66
3, 158227, Note_on_c, 2, 71, 96
3, 158244, Control_c, 2, 7, 67
3, 158424, Note_off_c, 2, 71, 0
3, 158430, Control_c, 2, 7, 68
3, 158523, Control_c, 2, 7, 69
3, 158709, Control_c, 2, 7, 70
3, 158802, Control_c, 2, 7, 71
3, 158988, Control_c, 2, 7, 72
3, 159081, Control_c, 2, 7, 73
3, 159174, Control_c, 2, 7, 74
3, 159237, Note_on_c, 2, 71, 96
3, 159360, Control_c, 2, 7, 75
3, 159453, Control_c, 2, 7, 76
3, 159485, Note_on_c, 2, 74, 96
3, 159536, Note_off_c, 2, 71, 0
3, 159546, Control_c, 2, 7, 77
3, 159732, Control_c, 2, 7, 78
3, 159748, Note_on_c, 2, 72, 91
3, 159795, Note_off_c, 2, 74, 0
3, 159825, Control_c, 2, 7, 79
3, 159918, Control_c, 2, 7, 80
3, 160011, Control_c, 2, 7, 81
3, 160197, Control_c, 2, 7, 82
3, 160290, Control_c, 2, 7, 83
3, 160383, Control_c, 2, 7, 84
3, 160569, Control_c, 2, 7, 85
3, 160662, Control_c, 2, 7, 86
3, 160696, Note_off_c, 2, 72, 0
3, 160755, Control_c, 2, 7, 87
3, 160798, Note_on_c, 2, 74, 97
3, 160941, Control_c, 2, 7, 88
3, 161034, Control_c, 2, 7, 89
3, 161127, Control_c, 2, 7, 90
3, 161313, Control_c, 2, 7, 91
3, 161406, Control_c, 2, 7, 92
3, 161592, Control_c, 2, 7, 93
3, 161685, Control_c, 2, 7, 94
3, 161751, Note_off_c, 2, 74, 0
3, 161813, Note_on_c, 2, 76, 99
3, 161871, Control_c, 2, 7, 95
3, 162057, Control_c, 2, 7, 96
3, 162243, Control_c, 2, 7, 97
3, 162429, Control_c, 2, 7, 98
3, 162615, Control_c, 2, 7, 99
3, 162766, Note_off_c, 2, 76, 0
3, 162801, Control_c, 2, 7, 100
3, 162828, Note_on_c, 2, 77, 97
3, 163173, Control_c, 2, 7, 101
3, 163779, Note_off_c, 2, 77, 0
3, 163817, Control_c, 2, 7, 102
3, 163844, Note_on_c, 2, 76, 85
3, 165627, Control_c, 2, 7, 101
3, 165817, Control_c, 2, 7, 100
3, 165912, Control_c, 2, 7, 99
3, 166007, Control_c, 2, 7, 98
3, 166102, Control_c, 2, 7, 96
3, 166197, Control_c, 2, 7, 94
3, 166292, Control_c, 2, 7, 92
3, 166387, Control_c, 2, 7, 90
3, 166482, Control_c, 2, 7, 88
3, 166577, Control_c, 2, 7, 85
3, 166672, Control_c, 2, 7, 83
3, 166767, Control_c, 2, 7, 80
3, 166862, Control_c, 2, 7, 77
3, 166957, Control_c, 2, 7, 74
3, 167052, Control_c, 2, 7, 71
3, 167147, Control_c, 2, 7, 68
3, 167242, Control_c, 2, 7, 65
3, 167337, Control_c, 2, 7, 62
3, 167432, Control_c, 2, 7, 59
3, 167527, Control_c, 2, 7, 56
3, 167622, Control_c, 2, 7, 53
3, 167718, Control_c, 2, 7, 51
3, 167813, Control_c, 2, 7, 48
3, 167908, Control_c, 2, 7, 45
3, 167914, Control_c, 2, 7, 30
3, 168003, Control_c, 2, 7, 43
3, 168098, Control_c, 2, 7, 41
3, 168193, Control_c, 2, 7, 38
3, 168287, Control_c, 2, 7, 36
3, 168382, Control_c, 2, 7, 35
3, 168477, Control_c, 2, 7, 33
3, 168572, Control_c, 2, 7, 32
3, 168667, Control_c, 2, 7, 31
3, 168762, Control_c, 2, 7, 30
3, 170961, Note_off_c, 2, 76, 0
3, 172521, Control_c, 2, 7, 77
3, 172578, Note_on_c, 2, 76, 21
3, 173076, Note_off_c, 2, 76, 0
3, 173086, Note_on_c, 2, 64, 31
3, 173581, Note_off_c, 2, 64, 0
3, 174101, Note_on_c, 2, 79, 36
3, 174307, Note_off_c, 2, 79, 0
3, 174364, Note_on_c, 2, 76, 33
3, 174456, Note_off_c, 2, 76, 0
3, 175116, Note_on_c, 2, 82, 34
3, 176068, Note_off_c, 2, 82, 0
3, 176132, Note_on_c, 2, 76, 38
3, 176615, Note_off_c, 2, 76, 0
3, 176674, Note_on_c, 2, 64, 42
3, 177120, Note_off_c, 2, 64, 0
3, 177687, Note_on_c, 2, 79, 33
3, 177878, Note_off_c, 2, 79, 0
3, 177935, Note_on_c, 2, 76, 33
3, 178042, Note_off_c, 2, 76, 0
3, 178197, Note_on_c, 2, 82, 36
3, 178370, Control_c, 2, 7, 79
3, 178470, Control_c, 2, 7, 82
3, 178570, Control_c, 2, 7, 85
3, 178670, Control_c, 2, 7, 89
3, 178770, Control_c, 2, 7, 93
3, 178870, Control_c, 2, 7, 96
3, 178970, Control_c, 2, 7, 99
3, 179070, Control_c, 2, 7, 101
3, 179185, Control_c, 2, 7, 102
3, 179284, Control_c, 2, 7, 101
3, 179383, Control_c, 2, 7, 99
3, 179482, Control_c, 2, 7, 96
3, 179581, Control_c, 2, 7, 93
3, 179680, Control_c, 2, 7, 89
3, 179779, Control_c, 2, 7, 85
3, 179878, Control_c, 2, 7, 82
3, 179977, Control_c, 2, 7, 79
3, 180076, Control_c, 2, 7, 77
3, 180162, Note_off_c, 2, 82, 0
3, 180770, Note_on_c, 2, 79, 33
3, 181216, Note_off_c, 2, 79, 0
3, 181278, Note_on_c, 2, 67, 43
3, 181721, Note_off_c, 2, 67, 0
3, 182293, Note_on_c, 2, 70, 36
3, 182499, Note_off_c, 2, 70, 0
3, 182556, Note_on_c, 2, 67, 33
3, 182648, Note_off_c, 2, 67, 0
3, 183308, Note_on_c, 2, 73, 34
3, 184258, Note_off_c, 2, 73, 0
3, 184324, Note_on_c, 2, 79, 38
3, 184804, Note_off_c, 2, 79, 0
3, 184866, Note_on_c, 2, 67, 42
3, 185312, Note_off_c, 2, 67, 0
3, 185879, Note_on_c, 2, 70, 33
3, 186070, Note_off_c, 2, 70, 0
3, 186127, Note_on_c, 2, 67, 33
3, 186234, Note_off_c, 2, 67, 0
3, 186389, Note_on_c, 2, 73, 36
3, 186562, Control_c, 2, 7, 79
3, 186662, Control_c, 2, 7, 82
3, 186762, Control_c, 2, 7, 85
3, 186862, Control_c, 2, 7, 89
3, 186962, Control_c, 2, 7, 93
3, 187062, Control_c, 2, 7, 96
3, 187162, Control_c, 2, 7, 99
3, 187262, Control_c, 2, 7, 101
3, 187377, Control_c, 2, 7, 102
3, 187476, Control_c, 2, 7, 101
3, 187575, Control_c, 2, 7, 99
3, 187674, Control_c, 2, 7, 96
3, 187773, Control_c, 2, 7, 93
3, 187872, Control_c, 2, 7, 89
3, 187971, Control_c, 2, 7, 85
3, 188070, Control_c, 2, 7, 82
3, 188169, Control_c, 2, 7, 79
3, 188268, Control_c, 2, 7, 77
3, 188354, Note_off_c, 2, 73, 0
3, 188962, Note_on_c, 2, 82, 33
3, 189408, Note_off_c, 2, 82, 0
3, 189470, Note_on_c, 2, 70, 43
3, 189913, Note_off_c, 2, 70, 0
3, 190485, Note_on_c, 2, 73, 36
3, 190691, Note_off_c, 2, 73, 0
3, 190748, Note_on_c, 2, 70, 33
3, 190840, Note_off_c, 2, 70, 0
3, 191500, Note_on_c, 2, 76, 34
3, 192450, Note_off_c, 2, 76, 0
3, 192516, Note_on_c, 2, 82, 38
3, 192996, Note_off_c, 2, 82, 0
3, 193058, Note_on_c, 2, 70, 42
3, 193504, Note_off_c, 2, 70, 0
3, 194071, Note_on_c, 2, 73, 33
3, 194262, Note_off_c, 2, 73, 0
3, 194319, Note_on_c, 2, 70, 33
3, 194426, Note_off_c, 2, 70, 0
3, 194581, Note_on_c, 2, 76, 36
3, 194754, Control_c, 2, 7, 79
3, 194854, Control_c, 2, 7, 82
3, 194954, Control_c, 2, 7, 85
3, 195054, Control_c, 2, 7, 89
3, 195154, Control_c, 2, 7, 93
3, 195254, Control_c, 2, 7, 96
3, 195354, Control_c, 2, 7, 99
3, 195454, Control_c, 2, 7, 101
3, 195569, Control_c, 2, 7, 102
3, 195659, Control_c, 2, 7, 96
3, 195749, Control_c, 2, 7, 90
3, 195839, Control_c, 2, 7, 84
3, 195929, Control_c, 2, 7, 79
3, 196019, Control_c, 2, 7, 73
3, 196109, Control_c, 2, 7, 67
3, 196199, Control_c, 2, 7, 61
3, 196289, Control_c, 2, 7, 56
3, 196380, Control_c, 2, 7, 50
3, 196470, Control_c, 2, 7, 44
3, 196546, Note_off_c, 2, 76, 0
3, 196560, Control_c, 2, 7, 39
3, 200681, Control_c, 2, 7, 28
3, 200708, Note_on_c, 2, 70, 80
3, 201188, Note_off_c, 2, 70, 0
3, 201250, Note_on_c, 2, 69, 75
3, 201696, Note_off_c, 2, 69, 0
3, 201758, Note_on_c, 2, 70, 76
3, 202711, Note_off_c, 2, 70, 0
3, 202773, Note_on_c, 2, 64, 78
3, 203146, Control_c, 2, 7, 29
3, 203246, Control_c, 2, 7, 30
3, 203446, Control_c, 2, 7, 31
3, 203761, Control_c, 2, 7, 32
3, 203860, Control_c, 2, 7, 31
3, 204157, Control_c, 2, 7, 30
3, 204355, Control_c, 2, 7, 29
3, 204454, Control_c, 2, 7, 28
3, 204738, Note_off_c, 2, 64, 0
3, 204800, Note_on_c, 2, 60, 75
3, 205067, Control_c, 2, 7, 29
3, 205127, Control_c, 2, 7, 31
3, 205152, Note_on_c, 2, 62, 75
3, 205187, Control_c, 2, 7, 35
3, 205194, Note_off_c, 2, 60, 0
3, 205247, Control_c, 2, 7, 40
3, 205307, Control_c, 2, 7, 44
3, 205367, Control_c, 2, 7, 49
3, 205427, Control_c, 2, 7, 51
3, 205435, Note_on_c, 2, 60, 75
3, 205468, Note_off_c, 2, 62, 0
3, 205487, Control_c, 2, 7, 52
3, 205649, Note_on_c, 2, 62, 75
3, 205674, Note_off_c, 2, 60, 0
3, 205795, Note_on_c, 2, 60, 75
3, 205812, Note_off_c, 2, 62, 0
3, 205926, Note_on_c, 2, 62, 75
3, 205941, Note_off_c, 2, 60, 0
3, 206057, Note_on_c, 2, 60, 75
3, 206072, Note_off_c, 2, 62, 0
3, 206188, Note_on_c, 2, 62, 75
3, 206203, Note_off_c, 2, 60, 0
3, 206319, Note_on_c, 2, 60, 75
3, 206334, Note_off_c, 2, 62, 0
3, 206450, Note_on_c, 2, 62, 75
3, 206465, Note_off_c, 2, 60, 0
3, 206508, Control_c, 2, 7, 28
3, 206581, Note_on_c, 2, 60, 75
3, 206596, Note_off_c, 2, 62, 0
3, 206706, Control_c, 2, 7, 30
3, 206712, Note_on_c, 2, 62, 75
3, 206727, Note_off_c, 2, 60, 0
3, 206805, Control_c, 2, 7, 33
3, 206848, Note_on_c, 2, 63, 75
3, 206864, Note_off_c, 2, 62, 0
3, 206904, Control_c, 2, 7, 37
3, 206994, Note_on_c, 2, 65, 75
3, 207003, Control_c, 2, 7, 41
3, 207011, Note_off_c, 2, 63, 0
3, 207102, Control_c, 2, 7, 44
3, 207140, Note_on_c, 2, 63, 75
3, 207157, Note_off_c, 2, 65, 0
3, 207201, Control_c, 2, 7, 48
3, 207286, Note_on_c, 2, 65, 75
3, 207300, Control_c, 2, 7, 51
3, 207303, Note_off_c, 2, 63, 0
3, 207399, Control_c, 2, 7, 53
3, 207432, Note_on_c, 2, 63, 75
3, 207449, Note_off_c, 2, 65, 0
3, 207578, Note_on_c, 2, 65, 75
3, 207595, Note_off_c, 2, 63, 0
3, 207724, Note_on_c, 2, 63, 75
3, 207741, Note_off_c, 2, 65, 0
3, 207870, Note_on_c, 2, 65, 75
3, 207887, Note_off_c, 2, 63, 0
3, 208016, Note_on_c, 2, 63, 75
3, 208033, Note_off_c, 2, 65, 0
3, 208162, Note_on_c, 2, 65, 75
3, 208179, Note_off_c, 2, 63, 0
3, 208308, Note_on_c, 2, 63, 75
3, 208325, Note_off_c, 2, 65, 0
3, 208454, Note_on_c, 2, 65, 75
3, 208471, Note_off_c, 2, 63, 0
3, 208600, Note_on_c, 2, 63, 75
3, 208617, Note_off_c, 2, 65, 0
3, 208746, Note_on_c, 2, 65, 75
3, 208763, Note_off_c, 2, 63, 0
3, 208896, Note_on_c, 2, 68, 75
3, 208914, Note_off_c, 2, 65, 0
3, 209032, Note_on_c, 2, 70, 75
3, 209048, Note_off_c, 2, 68, 0
3, 209103, Control_c, 2, 7, 28
3, 209145, Control_c, 2, 7, 29
3, 209168, Note_on_c, 2, 68, 75
3, 209184, Note_off_c, 2, 70, 0
3, 209187, Control_c, 2, 7, 32
3, 209229, Control_c, 2, 7, 36
3, 209271, Control_c, 2, 7, 41
3, 209304, Note_on_c, 2, 70, 75
3, 209313, Control_c, 2, 7, 46
3, 209320, Note_off_c, 2, 68, 0
3, 209355, Control_c, 2, 7, 50
3, 209397, Control_c, 2, 7, 53
3, 209439, Control_c, 2, 7, 54
3, 209440, Note_on_c, 2, 68, 75
3, 209456, Note_off_c, 2, 70, 0
3, 209576, Note_on_c, 2, 70, 75
3, 209592, Note_off_c, 2, 68, 0
3, 209712, Note_on_c, 2, 68, 75
3, 209728, Note_off_c, 2, 70, 0
3, 209848, Note_on_c, 2, 70, 75
3, 209864, Note_off_c, 2, 68, 0
3, 209984, Note_on_c, 2, 68, 75
3, 210000, Note_off_c, 2, 70, 0
3, 210120, Note_on_c, 2, 70, 75
3, 210136, Note_off_c, 2, 68, 0
3, 210256, Note_on_c, 2, 68, 75
3, 210272, Note_off_c, 2, 70, 0
3, 210392, Note_on_c, 2, 70, 75
3, 210408, Note_off_c, 2, 68, 0
3, 210528, Note_on_c, 2, 68, 75
3, 210544, Note_off_c, 2, 70, 0
3, 210664, Note_on_c, 2, 70, 75
3, 210680, Note_off_c, 2, 68, 0
3, 210800, Note_on_c, 2, 68, 75
3, 210816, Note_off_c, 2, 70, 0
3, 210944, Note_on_c, 2, 70, 70
3, 210961, Note_off_c, 2, 68, 0
3, 211090, Note_off_c, 2, 70, 0
3, 211090, Note_on_c, 2, 72, 70
3, 211138, Control_c, 2, 7, 28
3, 211236, Note_off_c, 2, 72, 0
3, 211236, Note_on_c, 2, 70, 70
3, 211382, Note_off_c, 2, 70, 0
3, 211382, Note_on_c, 2, 72, 70
3, 211423, Control_c, 2, 7, 30
3, 211518, Control_c, 2, 7, 31
3, 211528, Note_off_c, 2, 72, 0
3, 211528, Note_on_c, 2, 70, 70
3, 211613, Control_c, 2, 7, 33
3, 211674, Note_off_c, 2, 70, 0
3, 211674, Note_on_c, 2, 72, 70
3, 211708, Control_c, 2, 7, 35
3, 211803, Control_c, 2, 7, 37
3, 211820, Note_off_c, 2, 72, 0
3, 211820, Note_on_c, 2, 70, 70
3, 211898, Control_c, 2, 7, 39
3, 211966, Note_off_c, 2, 70, 0
3, 211966, Note_on_c, 2, 72, 70
3, 211993, Control_c, 2, 7, 42
3, 212088, Control_c, 2, 7, 44
3, 212112, Note_off_c, 2, 72, 0
3, 212112, Note_on_c, 2, 70, 70
3, 212183, Control_c, 2, 7, 47
3, 212258, Note_off_c, 2, 70, 0
3, 212258, Note_on_c, 2, 72, 70
3, 212278, Control_c, 2, 7, 49
3, 212373, Control_c, 2, 7, 51
3, 212404, Note_off_c, 2, 72, 0
3, 212404, Note_on_c, 2, 70, 70
3, 212468, Control_c, 2, 7, 53
3, 212550, Note_off_c, 2, 70, 0
3, 212550, Note_on_c, 2, 72, 70
3, 212563, Control_c, 2, 7, 55
3, 212658, Control_c, 2, 7, 56
3, 212696, Note_off_c, 2, 72, 0
3, 212696, Note_on_c, 2, 70, 70
3, 212753, Control_c, 2, 7, 58
3, 212842, Note_off_c, 2, 70, 0
3, 212842, Note_on_c, 2, 72, 70
3, 212969, Control_c, 2, 7, 59
3, 212992, Note_off_c, 2, 72, 0
3, 212992, Note_on_c, 2, 70, 101
3, 213138, Note_on_c, 2, 72, 96
3, 213155, Note_off_c, 2, 70, 0
3, 213284, Note_on_c, 2, 70, 96
3, 213301, Note_off_c, 2, 72, 0
3, 213430, Note_on_c, 2, 72, 96
3, 213447, Note_off_c, 2, 70, 0
3, 213576, Note_on_c, 2, 70, 96
3, 213593, Note_off_c, 2, 72, 0
3, 213722, Note_on_c, 2, 72, 96
3, 213739, Note_off_c, 2, 70, 0
3, 213801, Control_c, 2, 7, 58
3, 213868, Note_on_c, 2, 70, 96
3, 213885, Note_off_c, 2, 72, 0
3, 214014, Note_on_c, 2, 72, 96
3, 214031, Note_off_c, 2, 70, 0
3, 214160, Note_on_c, 2, 70, 96
3, 214177, Note_off_c, 2, 72, 0
3, 214181, Control_c, 2, 7, 57
3, 214306, Note_on_c, 2, 72, 96
3, 214323, Note_off_c, 2, 70, 0
3, 214371, Control_c, 2, 7, 56
3, 214452, Note_on_c, 2, 70, 96
3, 214469, Note_off_c, 2, 72, 0
3, 214561, Control_c, 2, 7, 55
3, 214598, Note_on_c, 2, 72, 96
3, 214615, Note_off_c, 2, 70, 0
3, 214656, Control_c, 2, 7, 54
3, 214744, Note_on_c, 2, 70, 96
3, 214751, Control_c, 2, 7, 53
3, 214761, Note_off_c, 2, 72, 0
3, 214890, Note_on_c, 2, 72, 96
3, 214907, Note_off_c, 2, 70, 0
3, 214941, Control_c, 2, 7, 52
3, 215036, Control_c, 2, 7, 51
3, 215036, Note_on_c, 2, 70, 96
3, 215053, Note_off_c, 2, 72, 0
3, 215131, Control_c, 2, 7, 50
3, 215182, Note_on_c, 2, 72, 96
3, 215199, Note_off_c, 2, 70, 0
3, 215226, Control_c, 2, 7, 49
3, 215321, Control_c, 2, 7, 48
3, 215328, Note_on_c, 2, 70, 96
3, 215345, Note_off_c, 2, 72, 0
3, 215416, Control_c, 2, 7, 47
3, 215474, Note_on_c, 2, 72, 96
3, 215491, Note_off_c, 2, 70, 0
3, 215511, Control_c, 2, 7, 46
3, 215606, Control_c, 2, 7, 45
3, 215620, Note_on_c, 2, 70, 96
3, 215637, Note_off_c, 2, 72, 0
3, 215701, Control_c, 2, 7, 44
3, 215766, Note_on_c, 2, 72, 96
3, 215783, Note_off_c, 2, 70, 0
3, 215796, Control_c, 2, 7, 43
3, 215912, Note_on_c, 2, 70, 96
3, 215929, Note_off_c, 2, 72, 0
3, 215986, Control_c, 2, 7, 42
3, 216058, Note_on_c, 2, 72, 96
3, 216075, Note_off_c, 2, 70, 0
3, 216081, Control_c, 2, 7, 41
3, 216176, Control_c, 2, 7, 40
3, 216204, Note_on_c, 2, 70, 96
3, 216221, Note_off_c, 2, 72, 0
3, 216271, Control_c, 2, 7, 39
3, 216350, Note_on_c, 2, 72, 96
3, 216367, Note_off_c, 2, 70, 0
3, 216461, Control_c, 2, 7, 38
3, 216496, Note_on_c, 2, 70, 96
3, 216513, Note_off_c, 2, 72, 0
3, 216642, Note_on_c, 2, 72, 96
3, 216651, Control_c, 2, 7, 37
3, 216659, Note_off_c, 2, 70, 0
3, 216788, Note_on_c, 2, 70, 96
3, 216805, Note_off_c, 2, 72, 0
3, 216934, Note_on_c, 2, 72, 96
3, 216951, Note_off_c, 2, 70, 0
3, 217088, Note_on_c, 2, 75, 41
3, 217106, Note_off_c, 2, 72, 0
3, 217224, Note_on_c, 2, 77, 36
3, 217240, Note_off_c, 2, 75, 0
3, 217360, Note_on_c, 2, 75, 36
3, 217376, Note_off_c, 2, 77, 0
3, 217496, Note_on_c, 2, 77, 36
3, 217512, Note_off_c, 2, 75, 0
3, 217632, Note_on_c, 2, 75, 36
3, 217648, Note_off_c, 2, 77, 0
3, 217768, Note_on_c, 2, 77, 36
3, 217769, Control_c, 2, 7, 38
3, 217784, Note_off_c, 2, 75, 0
3, 217860, Control_c, 2, 7, 40
3, 217904, Note_on_c, 2, 75, 36
3, 217920, Note_off_c, 2, 77, 0
3, 217951, Control_c, 2, 7, 42
3, 218040, Note_on_c, 2, 77, 36
3, 218042, Control_c, 2, 7, 43
3, 218056, Note_off_c, 2, 75, 0
3, 218133, Control_c, 2, 7, 45
3, 218176, Note_on_c, 2, 75, 36
3, 218192, Note_off_c, 2, 77, 0
3, 218224, Control_c, 2, 7, 47
3, 218312, Note_on_c, 2, 77, 36
3, 218315, Control_c, 2, 7, 48
3, 218328, Note_off_c, 2, 75, 0
3, 218406, Control_c, 2, 7, 50
3, 218448, Note_on_c, 2, 75, 36
3, 218464, Note_off_c, 2, 77, 0
3, 218497, Control_c, 2, 7, 52
3, 218584, Note_on_c, 2, 77, 36
3, 218588, Control_c, 2, 7, 54
3, 218600, Note_off_c, 2, 75, 0
3, 218679, Control_c, 2, 7, 55
3, 218720, Note_on_c, 2, 75, 36
3, 218736, Note_off_c, 2, 77, 0
3, 218770, Control_c, 2, 7, 57
3, 218856, Note_on_c, 2, 77, 36
3, 218861, Control_c, 2, 7, 59
3, 218872, Note_off_c, 2, 75, 0
3, 218952, Control_c, 2, 7, 60
3, 218992, Note_on_c, 2, 75, 36
3, 219008, Note_off_c, 2, 77, 0
3, 219043, Control_c, 2, 7, 62
3, 219128, Note_on_c, 2, 77, 36
3, 219134, Control_c, 2, 7, 64
3, 219144, Note_off_c, 2, 75, 0
3, 219225, Control_c, 2, 7, 66
3, 219264, Note_on_c, 2, 75, 36
3, 219280, Note_off_c, 2, 77, 0
3, 219316, Control_c, 2, 7, 67
3, 219400, Note_on_c, 2, 77, 36
3, 219407, Control_c, 2, 7, 69
3, 219416, Note_off_c, 2, 75, 0
3, 219498, Control_c, 2, 7, 71
3, 219536, Note_on_c, 2, 75, 36
3, 219552, Note_off_c, 2, 77, 0
3, 219589, Control_c, 2, 7, 72
3, 219672, Note_on_c, 2, 77, 36
3, 219680, Control_c, 2, 7, 74
3, 219688, Note_off_c, 2, 75, 0
3, 219771, Control_c, 2, 7, 76
3, 219808, Note_on_c, 2, 75, 36
3, 219824, Note_off_c, 2, 77, 0
3, 219862, Control_c, 2, 7, 78
3, 219944, Note_on_c, 2, 77, 36
3, 219953, Control_c, 2, 7, 79
3, 219960, Note_off_c, 2, 75, 0
3, 220044, Control_c, 2, 7, 81
3, 220080, Note_on_c, 2, 75, 36
3, 220096, Note_off_c, 2, 77, 0
3, 220135, Control_c, 2, 7, 83
3, 220216, Note_on_c, 2, 77, 36
3, 220226, Control_c, 2, 7, 84
3, 220232, Note_off_c, 2, 75, 0
3, 220317, Control_c, 2, 7, 86
3, 220352, Note_on_c, 2, 75, 36
3, 220368, Note_off_c, 2, 77, 0
3, 220408, Control_c, 2, 7, 88
3, 220488, Note_on_c, 2, 77, 36
3, 220499, Control_c, 2, 7, 90
3, 220504, Note_off_c, 2, 75, 0
3, 220590, Control_c, 2, 7, 91
3, 220624, Note_on_c, 2, 75, 36
3, 220640, Note_off_c, 2, 77, 0
3, 220681, Control_c, 2, 7, 93
3, 220760, Note_on_c, 2, 77, 36
3, 220772, Control_c, 2, 7, 95
3, 220776, Note_off_c, 2, 75, 0
3, 220863, Control_c, 2, 7, 96
3, 220896, Note_on_c, 2, 75, 36
3, 220912, Note_off_c, 2, 77, 0
3, 220955, Control_c, 2, 7, 98
3, 221032, Note_on_c, 2, 77, 36
3, 221046, Control_c, 2, 7, 100
3, 221048, Note_off_c, 2, 75, 0
3, 221137, Control_c, 2, 7, 101
3, 221162, Control_c, 2, 7, 102
3, 221188, Note_on_c, 2, 73, 90
3, 221202, Note_off_c, 2, 77, 0
3, 221373, Control_c, 2, 7, 95
3, 221406, Control_c, 2, 7, 89
3, 221439, Control_c, 2, 7, 83
3, 221471, Control_c, 2, 7, 77
3, 221504, Control_c, 2, 7, 70
3, 221537, Control_c, 2, 7, 64
3, 221570, Control_c, 2, 7, 58
3, 221603, Control_c, 2, 7, 52
3, 221671, Note_off_c, 2, 73, 0
3, 224241, Control_c, 2, 7, 40
3, 224268, Note_on_c, 2, 73, 80
3, 225218, Note_off_c, 2, 73, 0
3, 225284, Note_on_c, 2, 70, 79
3, 225581, Control_c, 2, 7, 39
3, 226051, Control_c, 2, 7, 38
3, 226333, Control_c, 2, 7, 37
3, 226521, Control_c, 2, 7, 36
3, 226709, Control_c, 2, 7, 35
3, 226803, Control_c, 2, 7, 34
3, 226991, Control_c, 2, 7, 33
3, 227179, Control_c, 2, 7, 32
3, 227273, Control_c, 2, 7, 31
3, 227461, Control_c, 2, 7, 30
3, 227649, Control_c, 2, 7, 29
3, 227743, Control_c, 2, 7, 28
3, 227931, Control_c, 2, 7, 27
3, 228119, Control_c, 2, 7, 26
3, 228302, Note_off_c, 2, 70, 0
3, 228364, Note_on_c, 2, 73, 80
3, 228401, Control_c, 2, 7, 25
3, 229314, Note_off_c, 2, 73, 0
3, 229380, Note_on_c, 2, 70, 84
3, 229729, Control_c, 2, 7, 26
3, 229917, Control_c, 2, 7, 27
3, 230105, Control_c, 2, 7, 28
3, 230403, Control_c, 2, 7, 29
3, 230505, Control_c, 2, 7, 28
3, 230811, Control_c, 2, 7, 27
3, 230913, Control_c, 2, 7, 26
3, 231117, Control_c, 2, 7, 25
3, 231383, Note_off_c, 2, 70, 0
3, 231728, Control_c, 2, 7, 71
3, 232198, Control_c, 2, 7, 72
3, 232386, Control_c, 2, 7, 73
3, 232425, Control_c, 2, 7, 71
3, 232460, Note_on_c, 2, 68, 53
3, 232480, Control_c, 2, 7, 74
3, 232668, Control_c, 2, 7, 75
3, 232762, Control_c, 2, 7, 76
3, 232856, Control_c, 2, 7, 77
3, 232903, Note_off_c, 2, 68, 0
3, 232950, Control_c, 2, 7, 78
3, 232965, Note_on_c, 2, 69, 52
3, 233044, Control_c, 2, 7, 79
3, 233138, Control_c, 2, 7, 80
3, 233232, Control_c, 2, 7, 81
3, 233326, Control_c, 2, 7, 83
3, 233420, Control_c, 2, 7, 84
3, 233514, Control_c, 2, 7, 85
3, 233608, Control_c, 2, 7, 86
3, 233702, Control_c, 2, 7, 87
3, 233796, Control_c, 2, 7, 88
3, 233890, Control_c, 2, 7, 89
3, 233984, Control_c, 2, 7, 91
3, 234078, Control_c, 2, 7, 92
3, 234172, Control_c, 2, 7, 93
3, 234266, Control_c, 2, 7, 94
3, 234360, Control_c, 2, 7, 95
3, 234454, Control_c, 2, 7, 96
3, 234464, Note_off_c, 2, 69, 0
3, 234548, Control_c, 2, 7, 97
3, 234736, Control_c, 2, 7, 98
3, 234830, Control_c, 2, 7, 99
3, 234924, Control_c, 2, 7, 100
3, 235112, Control_c, 2, 7, 101
3, 235514, Control_c, 2, 7, 102
3, 235541, Note_on_c, 2, 64, 49
3, 235804, Note_on_c, 2, 63, 49
3, 235855, Note_off_c, 2, 64, 0
3, 236051, Note_on_c, 2, 61, 49
3, 236102, Note_off_c, 2, 63, 0
3, 236299, Note_on_c, 2, 59, 49
3, 236350, Note_off_c, 2, 61, 0
3, 236556, Note_on_c, 2, 58, 44
3, 236607, Note_off_c, 2, 59, 0
3, 236959, Note_off_c, 2, 58, 0
3, 241641, Control_c, 2, 7, 54
3, 241668, Note_on_c, 2, 70, 68
3, 242148, Note_off_c, 2, 70, 0
3, 242210, Note_on_c, 2, 58, 77
3, 242656, Note_off_c, 2, 58, 0
3, 243223, Note_on_c, 2, 61, 63
3, 243414, Note_off_c, 2, 61, 0
3, 243471, Note_on_c, 2, 58, 63
3, 243676, Note_off_c, 2, 58, 0
3, 243733, Note_on_c, 2, 64, 66
3, 244006, Control_c, 2, 7, 55
3, 244106, Control_c, 2, 7, 57
3, 244206, Control_c, 2, 7, 58
3, 244306, Control_c, 2, 7, 59
3, 244406, Control_c, 2, 7, 61
3, 244506, Control_c, 2, 7, 62
3, 244721, Control_c, 2, 7, 63
3, 244820, Control_c, 2, 7, 62
3, 245018, Control_c, 2, 7, 61
3, 245117, Control_c, 2, 7, 59
3, 245216, Control_c, 2, 7, 58
3, 245315, Control_c, 2, 7, 57
3, 245414, Control_c, 2, 7, 55
3, 245513, Control_c, 2, 7, 54
3, 245698, Note_off_c, 2, 64, 0
3, 245764, Note_on_c, 2, 65, 68
3, 246244, Note_off_c, 2, 65, 0
3, 246306, Note_on_c, 2, 53, 77
3, 246752, Note_off_c, 2, 53, 0
3, 247319, Note_on_c, 2, 73, 63
3, 247510, Note_off_c, 2, 73, 0
3, 247567, Note_on_c, 2, 70, 63
3, 247674, Note_off_c, 2, 70, 0
3, 247829, Note_on_c, 2, 70, 66
3, 248782, Note_off_c, 2, 70, 0
3, 248844, Note_on_c, 2, 68, 64
3, 249634, Note_off_c, 2, 68, 0
3, 249833, Control_c, 2, 7, 74
3, 250402, Note_on_c, 2, 76, 65
3, 250848, Note_off_c, 2, 76, 0
3, 250910, Note_on_c, 2, 73, 65
3, 251168, Note_on_c, 2, 71, 60
3, 251219, Note_off_c, 2, 73, 0
3, 251324, Note_off_c, 2, 71, 0
3, 251415, Note_on_c, 2, 69, 65
3, 251508, Note_off_c, 2, 69, 0
3, 251663, Note_on_c, 2, 65, 65
3, 251770, Note_off_c, 2, 65, 0
3, 251925, Note_on_c, 2, 70, 68
3, 252373, Note_off_c, 2, 70, 0
3, 252940, Note_on_c, 2, 58, 65
3, 253197, Note_on_c, 2, 60, 65
3, 253248, Note_off_c, 2, 58, 0
3, 253445, Note_on_c, 2, 61, 65
3, 253496, Note_off_c, 2, 60, 0
3, 253693, Note_on_c, 2, 63, 65
3, 253744, Note_off_c, 2, 61, 0
3, 253956, Note_on_c, 2, 65, 60
3, 254003, Note_off_c, 2, 63, 0
3, 254351, Control_c, 2, 7, 75
3, 254447, Control_c, 2, 7, 77
3, 254543, Control_c, 2, 7, 79
3, 254639, Control_c, 2, 7, 82
3, 254735, Control_c, 2, 7, 84
3, 254831, Control_c, 2, 7, 87
3, 254927, Control_c, 2, 7, 90
3, 255023, Control_c, 2, 7, 93
3, 255119, Control_c, 2, 7, 96
3, 255215, Control_c, 2, 7, 98
3, 255311, Control_c, 2, 7, 100
3, 255407, Control_c, 2, 7, 101
3, 255620, Control_c, 2, 7, 102
3, 255715, Control_c, 2, 7, 100
3, 255810, Control_c, 2, 7, 98
3, 255905, Control_c, 2, 7, 96
3, 256000, Control_c, 2, 7, 94
3, 256095, Control_c, 2, 7, 92
3, 256190, Control_c, 2, 7, 90
3, 256285, Control_c, 2, 7, 88
3, 256380, Control_c, 2, 7, 86
3, 256475, Control_c, 2, 7, 84
3, 256570, Control_c, 2, 7, 82
3, 256665, Control_c, 2, 7, 80
3, 256760, Control_c, 2, 7, 79
3, 256855, Control_c, 2, 7, 77
3, 256934, Note_off_c, 2, 65, 0
3, 256950, Control_c, 2, 7, 75
3, 257045, Control_c, 2, 7, 73
3, 257140, Control_c, 2, 7, 71
3, 257235, Control_c, 2, 7, 69
3, 257330, Control_c, 2, 7, 67
3, 257425, Control_c, 2, 7, 65
3, 257520, Control_c, 2, 7, 63
3, 257615, Control_c, 2, 7, 61
3, 257710, Control_c, 2, 7, 59
3, 257805, Control_c, 2, 7, 57
3, 257900, Control_c, 2, 7, 56
3, 257995, Control_c, 2, 7, 54
3, 258025, Control_c, 2, 7, 53
3, 258052, Note_on_c, 2, 70, 70
3, 258532, Note_off_c, 2, 70, 0
3, 258594, Note_on_c, 2, 58, 79
3, 258737, Control_c, 2, 7, 105
3, 258739, Control_c, 2, 7, 98
3, 258741, Control_c, 2, 7, 92
3, 258743, Control_c, 2, 7, 85
3, 258745, Control_c, 2, 7, 79
3, 258747, Control_c, 2, 7, 72
3, 258749, Control_c, 2, 7, 66
3, 258751, Control_c, 2, 7, 59
3, 258753, Control_c, 2, 7, 53
3, 258847, Control_c, 2, 7, 55
3, 258941, Control_c, 2, 7, 58
3, 259035, Control_c, 2, 7, 61
3, 259040, Note_off_c, 2, 58, 0
3, 259129, Control_c, 2, 7, 64
3, 259223, Control_c, 2, 7, 67
3, 259317, Control_c, 2, 7, 70
3, 259411, Control_c, 2, 7, 73
3, 259505, Control_c, 2, 7, 76
3, 259599, Control_c, 2, 7, 79
3, 259607, Note_on_c, 2, 61, 65
3, 259693, Control_c, 2, 7, 82
3, 259787, Control_c, 2, 7, 85
3, 259798, Note_off_c, 2, 61, 0
3, 259855, Note_on_c, 2, 58, 65
3, 259881, Control_c, 2, 7, 88
3, 259968, Note_on_c, 2, 63, 40
3, 259975, Control_c, 2, 7, 91
3, 260060, Note_off_c, 2, 58, 0
3, 260069, Control_c, 2, 7, 93
3, 260090, Control_c, 2, 7, 94
3, 260096, Note_off_c, 2, 63, 0
3, 260104, Note_on_c, 2, 64, 69
3, 262082, Note_off_c, 2, 64, 0
3, 262144, Control_c, 2, 7, 46
3, 262148, Note_on_c, 2, 65, 76
3, 262628, Note_off_c, 2, 65, 0
3, 262690, Note_on_c, 2, 53, 85
3, 263136, Note_off_c, 2, 53, 0
3, 263703, Note_on_c, 2, 73, 71
3, 263894, Note_off_c, 2, 73, 0
3, 263951, Note_on_c, 2, 70, 71
3, 264058, Note_off_c, 2, 70, 0
3, 264213, Note_on_c, 2, 70, 74
3, 264757, Control_c, 2, 7, 47
3, 265125, Control_c, 2, 7, 48
3, 265166, Note_off_c, 2, 70, 0
3, 265228, Note_on_c, 2, 68, 72
3, 265309, Control_c, 2, 7, 49
3, 265493, Control_c, 2, 7, 50
3, 265677, Control_c, 2, 7, 51
3, 265861, Control_c, 2, 7, 52
3, 265953, Control_c, 2, 7, 53
3, 266137, Control_c, 2, 7, 54
3, 266178, Note_off_c, 2, 68, 0
3, 266321, Control_c, 2, 7, 55
3, 266413, Control_c, 2, 7, 56
3, 266505, Control_c, 2, 7, 57
3, 266689, Control_c, 2, 7, 58
3, 266781, Control_c, 2, 7, 59
3, 266786, Note_on_c, 2, 68, 71
3, 266965, Control_c, 2, 7, 60
3, 267057, Control_c, 2, 7, 61
3, 267149, Control_c, 2, 7, 62
3, 267333, Control_c, 2, 7, 63
3, 267425, Control_c, 2, 7, 64
3, 267517, Control_c, 2, 7, 65
3, 267701, Control_c, 2, 7, 66
3, 267737, Note_off_c, 2, 68, 0
3, 267793, Control_c, 2, 7, 67
3, 267799, Note_on_c, 2, 66, 71
3, 267977, Control_c, 2, 7, 68
3, 268069, Control_c, 2, 7, 69
3, 268253, Control_c, 2, 7, 70
3, 268345, Control_c, 2, 7, 71
3, 268529, Control_c, 2, 7, 72
3, 268621, Control_c, 2, 7, 73
3, 268805, Control_c, 2, 7, 74
3, 268818, Note_off_c, 2, 66, 0
3, 268819, Note_on_c, 2, 66, 71
3, 268989, Control_c, 2, 7, 75
3, 269173, Control_c, 2, 7, 76
3, 269449, Control_c, 2, 7, 77
3, 269725, Control_c, 2, 7, 78
3, 269768, Note_off_c, 2, 66, 0
3, 269829, Note_on_c, 2, 63, 71
3, 270275, Note_off_c, 2, 63, 0
3, 270313, Control_c, 2, 7, 79
3, 270340, Note_on_c, 2, 65, 78
3, 270924, Control_c, 2, 7, 78
3, 271209, Control_c, 2, 7, 77
3, 271399, Control_c, 2, 7, 76
3, 271494, Control_c, 2, 7, 75
3, 271684, Control_c, 2, 7, 74
3, 271779, Control_c, 2, 7, 73
3, 271874, Control_c, 2, 7, 72
3, 271969, Control_c, 2, 7, 71
3, 272064, Control_c, 2, 7, 70
3, 272159, Control_c, 2, 7, 69
3, 272254, Control_c, 2, 7, 68
3, 272349, Control_c, 2, 7, 67
3, 272444, Control_c, 2, 7, 66
3, 272539, Control_c, 2, 7, 65
3, 272634, Control_c, 2, 7, 64
3, 272729, Control_c, 2, 7, 63
3, 272919, Control_c, 2, 7, 62
3, 273109, Control_c, 2, 7, 61
3, 273358, Note_off_c, 2, 65, 0
3, 273925, Note_on_c, 2, 63, 76
3, 274116, Note_off_c, 2, 63, 0
3, 274173, Note_on_c, 2, 65, 76
3, 274375, Note_off_c, 2, 65, 0
3, 274436, Note_on_c, 2, 66, 81
3, 275855, Control_c, 2, 7, 62
3, 275949, Control_c, 2, 7, 63
3, 276043, Control_c, 2, 7, 65
3, 276137, Control_c, 2, 7, 66
3, 276231, Control_c, 2, 7, 68
3, 276325, Control_c, 2, 7, 69
3, 276419, Control_c, 2, 7, 70
3, 276442, Note_off_c, 2, 66, 0
3, 276501, Note_on_c, 2, 68, 79
3, 276513, Control_c, 2, 7, 72
3, 276607, Control_c, 2, 7, 73
3, 276701, Control_c, 2, 7, 75
3, 276795, Control_c, 2, 7, 76
3, 276889, Control_c, 2, 7, 78
3, 276983, Control_c, 2, 7, 79
3, 277077, Control_c, 2, 7, 80
3, 277171, Control_c, 2, 7, 82
3, 277265, Control_c, 2, 7, 83
3, 277359, Control_c, 2, 7, 85
3, 277453, Control_c, 2, 7, 86
3, 277547, Control_c, 2, 7, 87
3, 277641, Control_c, 2, 7, 89
3, 277735, Control_c, 2, 7, 90
3, 277829, Control_c, 2, 7, 92
3, 277923, Control_c, 2, 7, 93
3, 278017, Control_c, 2, 7, 95
3, 278111, Control_c, 2, 7, 96
3, 278205, Control_c, 2, 7, 97
3, 278299, Control_c, 2, 7, 99
3, 278322, Note_off_c, 2, 68, 0
3, 278393, Control_c, 2, 7, 100
3, 278487, Control_c, 2, 7, 102
3, 278532, Note_on_c, 2, 65, 49
3, 278832, Control_c, 2, 7, 99
3, 278929, Control_c, 2, 7, 96
3, 279026, Control_c, 2, 7, 93
3, 279123, Control_c, 2, 7, 91
3, 279220, Control_c, 2, 7, 88
3, 279317, Control_c, 2, 7, 85
3, 279414, Control_c, 2, 7, 82
3, 279511, Control_c, 2, 7, 80
3, 279608, Control_c, 2, 7, 77
3, 279705, Control_c, 2, 7, 74
3, 279802, Control_c, 2, 7, 71
3, 279899, Control_c, 2, 7, 69
3, 279996, Control_c, 2, 7, 66
3, 280093, Control_c, 2, 7, 63
3, 280190, Control_c, 2, 7, 60
3, 280287, Control_c, 2, 7, 58
3, 280384, Control_c, 2, 7, 55
3, 280481, Control_c, 2, 7, 52
3, 280578, Control_c, 2, 7, 49
3, 280675, Control_c, 2, 7, 47
3, 280772, Control_c, 2, 7, 44
3, 280869, Control_c, 2, 7, 41
3, 282394, Note_off_c, 2, 65, 0
3, 283113, Control_c, 2, 7, 102
3, 283170, Note_on_c, 2, 80, 62
3, 283616, Note_off_c, 2, 80, 0
3, 283678, Note_on_c, 2, 78, 62
3, 283936, Note_on_c, 2, 75, 57
3, 283987, Note_off_c, 2, 78, 0
3, 284092, Note_off_c, 2, 75, 0
3, 284183, Note_on_c, 2, 72, 62
3, 284276, Note_off_c, 2, 72, 0
3, 284431, Note_on_c, 2, 68, 62
3, 284538, Note_off_c, 2, 68, 0
3, 284693, Note_on_c, 2, 73, 65
3, 285141, Note_off_c, 2, 73, 0
3, 285681, Control_c, 2, 7, 56
3, 285708, Note_on_c, 2, 73, 62
3, 285965, Note_on_c, 2, 75, 62
3, 286016, Note_off_c, 2, 73, 0
3, 286213, Note_on_c, 2, 76, 62
3, 286264, Note_off_c, 2, 75, 0
3, 286461, Note_on_c, 2, 75, 62
3, 286512, Note_off_c, 2, 76, 0
3, 286724, Note_on_c, 2, 73, 57
3, 286771, Note_off_c, 2, 75, 0
3, 287164, Note_off_c, 2, 73, 0
3, 287266, Note_on_c, 2, 68, 62
3, 287712, Note_off_c, 2, 68, 0
3, 287774, Note_on_c, 2, 61, 77
3, 288217, Note_off_c, 2, 61, 0
3, 288789, Note_on_c, 2, 76, 65
3, 288995, Note_off_c, 2, 76, 0
3, 289052, Note_on_c, 2, 73, 62
3, 289242, Note_off_c, 2, 73, 0
3, 289804, Note_on_c, 2, 79, 63
3, 290754, Note_off_c, 2, 79, 0
3, 291362, Note_on_c, 2, 73, 62
3, 291808, Note_off_c, 2, 73, 0
3, 291870, Note_on_c, 2, 61, 77
3, 292313, Note_off_c, 2, 61, 0
3, 292885, Note_on_c, 2, 76, 65
3, 293091, Note_off_c, 2, 76, 0
3, 293148, Note_on_c, 2, 73, 62
3, 293240, Note_off_c, 2, 73, 0
3, 293900, Note_on_c, 2, 73, 63
3, 294343, Note_off_c, 2, 73, 0
3, 294405, Note_on_c, 2, 71, 62
3, 294850, Note_off_c, 2, 71, 0
3, 295458, Note_on_c, 2, 73, 62
3, 295904, Note_off_c, 2, 73, 0
3, 295966, Note_on_c, 2, 61, 77
3, 296409, Note_off_c, 2, 61, 0
3, 296981, Note_on_c, 2, 76, 65
3, 297187, Note_off_c, 2, 76, 0
3, 297244, Note_on_c, 2, 73, 62
3, 297434, Note_off_c, 2, 73, 0
3, 297724, Control_c, 2, 7, 57
3, 297914, Control_c, 2, 7, 58
3, 297996, Note_on_c, 2, 79, 63
3, 298104, Control_c, 2, 7, 59
3, 298294, Control_c, 2, 7, 60
3, 298389, Control_c, 2, 7, 61
3, 298579, Control_c, 2, 7, 62
3, 298674, Control_c, 2, 7, 63
3, 298864, Control_c, 2, 7, 64
3, 298959, Control_c, 2, 7, 65
3, 299054, Control_c, 2, 7, 66
3, 299244, Control_c, 2, 7, 67
3, 299339, Control_c, 2, 7, 68
3, 299434, Control_c, 2, 7, 69
3, 299624, Control_c, 2, 7, 70
3, 299719, Control_c, 2, 7, 71
3, 299814, Control_c, 2, 7, 72
3, 300000, Note_off_c, 2, 79, 0
3, 300004, Control_c, 2, 7, 73
3, 300194, Control_c, 2, 7, 74
3, 300384, Control_c, 2, 7, 75
3, 300574, Control_c, 2, 7, 76
3, 301050, Control_c, 2, 7, 77
3, 301077, Note_on_c, 2, 66, 64
3, 301340, Note_on_c, 2, 64, 64
3, 301391, Note_off_c, 2, 66, 0
3, 301587, Note_on_c, 2, 63, 64
3, 301638, Note_off_c, 2, 64, 0
3, 301835, Note_on_c, 2, 60, 64
3, 301886, Note_off_c, 2, 63, 0
3, 302092, Note_on_c, 2, 61, 59
3, 302143, Note_off_c, 2, 60, 0
3, 302495, Note_off_c, 2, 61, 0
3, 303593, Control_c, 2, 7, 102
3, 303650, Note_on_c, 2, 73, 75
3, 303912, Control_c, 2, 7, 97
3, 304015, Control_c, 2, 7, 92
3, 304096, Note_off_c, 2, 73, 0
3, 304118, Control_c, 2, 7, 87
3, 304158, Note_on_c, 2, 61, 106
3, 304221, Control_c, 2, 7, 82
3, 304324, Control_c, 2, 7, 77
3, 304427, Control_c, 2, 7, 72
3, 304530, Control_c, 2, 7, 67
3, 304601, Note_off_c, 2, 61, 0
3, 304633, Control_c, 2, 7, 63
3, 305173, Note_on_c, 2, 76, 77
3, 305379, Note_off_c, 2, 76, 0
3, 305436, Note_on_c, 2, 73, 74
3, 305626, Note_off_c, 2, 73, 0
3, 305688, Control_c, 2, 7, 65
3, 305781, Control_c, 2, 7, 67
3, 305874, Control_c, 2, 7, 69
3, 305967, Control_c, 2, 7, 72
3, 306048, Note_on_c, 2, 78, 74
3, 306060, Control_c, 2, 7, 74
3, 306153, Control_c, 2, 7, 76
3, 306176, Note_off_c, 2, 78, 0
3, 306184, Note_on_c, 2, 79, 75
3, 306246, Control_c, 2, 7, 79
3, 306339, Control_c, 2, 7, 81
3, 306432, Control_c, 2, 7, 83
3, 306525, Control_c, 2, 7, 85
3, 306618, Control_c, 2, 7, 88
3, 306711, Control_c, 2, 7, 90
3, 306804, Control_c, 2, 7, 92
3, 306897, Control_c, 2, 7, 95
3, 306990, Control_c, 2, 7, 97
3, 307083, Control_c, 2, 7, 99
3, 307138, Note_off_c, 2, 79, 0
3, 307176, Control_c, 2, 7, 101
3, 307177, Control_c, 2, 7, 102
3, 307746, Note_on_c, 2, 73, 75
3, 307999, Control_c, 2, 7, 99
3, 308093, Control_c, 2, 7, 96
3, 308187, Control_c, 2, 7, 93
3, 308192, Note_off_c, 2, 73, 0
3, 308254, Note_on_c, 2, 61, 106
3, 308281, Control_c, 2, 7, 90
3, 308375, Control_c, 2, 7, 88
3, 308469, Control_c, 2, 7, 85
3, 308563, Control_c, 2, 7, 82
3, 308657, Control_c, 2, 7, 79
3, 308697, Note_off_c, 2, 61, 0
3, 308751, Control_c, 2, 7, 76
3, 308845, Control_c, 2, 7, 74
3, 308939, Control_c, 2, 7, 71
3, 309033, Control_c, 2, 7, 68
3, 309127, Control_c, 2, 7, 65
3, 309221, Control_c, 2, 7, 63
3, 309269, Note_on_c, 2, 76, 77
3, 309475, Note_off_c, 2, 76, 0
3, 309532, Note_on_c, 2, 73, 74
3, 309624, Note_off_c, 2, 73, 0
3, 310284, Note_on_c, 2, 73, 75
3, 310727, Note_off_c, 2, 73, 0
3, 310789, Note_on_c, 2, 71, 74
3, 311234, Note_off_c, 2, 71, 0
3, 311785, Control_c, 2, 7, 102
3, 311842, Note_on_c, 2, 73, 75
3, 312095, Control_c, 2, 7, 99
3, 312189, Control_c, 2, 7, 96
3, 312283, Control_c, 2, 7, 93
3, 312288, Note_off_c, 2, 73, 0
3, 312350, Note_on_c, 2, 61, 106
3, 312377, Control_c, 2, 7, 90
3, 312471, Control_c, 2, 7, 88
3, 312565, Control_c, 2, 7, 85
3, 312659, Control_c, 2, 7, 82
3, 312753, Control_c, 2, 7, 79
3, 312793, Note_off_c, 2, 61, 0
3, 312847, Control_c, 2, 7, 76
3, 312941, Control_c, 2, 7, 74
3, 313035, Control_c, 2, 7, 71
3, 313129, Control_c, 2, 7, 68
3, 313223, Control_c, 2, 7, 65
3, 313317, Control_c, 2, 7, 63
3, 313365, Note_on_c, 2, 77, 77
3, 313571, Note_off_c, 2, 77, 0
3, 313628, Note_on_c, 2, 73, 74
3, 313818, Note_off_c, 2, 73, 0
3, 314078, Control_c, 2, 7, 64
3, 314175, Control_c, 2, 7, 65
3, 314240, Note_on_c, 2, 79, 74
3, 314272, Control_c, 2, 7, 67
3, 314368, Note_off_c, 2, 79, 0
3, 314369, Control_c, 2, 7, 68
3, 314376, Note_on_c, 2, 80, 75
3, 314466, Control_c, 2, 7, 70
3, 314563, Control_c, 2, 7, 71
3, 314660, Control_c, 2, 7, 73
3, 314757, Control_c, 2, 7, 75
3, 314854, Control_c, 2, 7, 76
3, 314951, Control_c, 2, 7, 78
3, 315048, Control_c, 2, 7, 79
3, 315145, Control_c, 2, 7, 80
3, 315369, Control_c, 2, 7, 81
3, 315876, Note_off_c, 2, 80, 0
3, 315938, Note_on_c, 2, 81, 76
3, 316196, Control_c, 2, 7, 82
3, 316291, Control_c, 2, 7, 83
3, 316386, Control_c, 2, 7, 84
3, 316481, Control_c, 2, 7, 85
3, 316576, Control_c, 2, 7, 86
3, 316766, Control_c, 2, 7, 87
3, 316861, Control_c, 2, 7, 88
3, 317062, Control_c, 2, 7, 89
3, 317156, Control_c, 2, 7, 88
3, 317250, Control_c, 2, 7, 87
3, 317344, Control_c, 2, 7, 86
3, 317438, Control_c, 2, 7, 85
3, 317532, Control_c, 2, 7, 83
3, 317626, Control_c, 2, 7, 80
3, 317720, Control_c, 2, 7, 78
3, 317814, Control_c, 2, 7, 75
3, 317908, Control_c, 2, 7, 72
3, 318002, Control_c, 2, 7, 69
3, 318096, Control_c, 2, 7, 67
3, 318190, Control_c, 2, 7, 64
3, 318284, Control_c, 2, 7, 61
3, 318378, Control_c, 2, 7, 59
3, 318472, Control_c, 2, 7, 56
3, 318566, Control_c, 2, 7, 54
3, 318660, Control_c, 2, 7, 53
3, 318754, Control_c, 2, 7, 52
3, 318848, Control_c, 2, 7, 51
3, 318919, Note_off_c, 2, 81, 0
3, 319977, Control_c, 2, 7, 102
3, 320034, Note_on_c, 2, 74, 62
3, 320231, Control_c, 2, 7, 100
3, 320269, Control_c, 2, 7, 98
3, 320307, Control_c, 2, 7, 94
3, 320345, Control_c, 2, 7, 89
3, 320383, Control_c, 2, 7, 84
3, 320421, Control_c, 2, 7, 80
3, 320459, Control_c, 2, 7, 78
3, 320480, Note_off_c, 2, 74, 0
3, 320497, Control_c, 2, 7, 77
3, 320542, Note_on_c, 2, 62, 65
3, 320739, Note_off_c, 2, 62, 0
3, 321557, Note_on_c, 2, 66, 67
3, 321763, Note_off_c, 2, 66, 0
3, 321820, Note_on_c, 2, 63, 64
3, 322010, Note_off_c, 2, 63, 0
3, 322572, Note_on_c, 2, 68, 65
3, 323583, Note_off_c, 2, 68, 0
3, 323588, Note_on_c, 2, 68, 69
3, 323656, Control_c, 2, 7, 76
3, 323822, Note_off_c, 2, 68, 0
3, 323843, Control_c, 2, 7, 75
3, 323937, Control_c, 2, 7, 74
3, 324031, Control_c, 2, 7, 72
3, 324125, Control_c, 2, 7, 71
3, 324219, Control_c, 2, 7, 69
3, 324313, Control_c, 2, 7, 67
3, 324407, Control_c, 2, 7, 65
3, 324501, Control_c, 2, 7, 62
3, 324595, Control_c, 2, 7, 60
3, 324689, Control_c, 2, 7, 58
3, 324783, Control_c, 2, 7, 55
3, 324877, Control_c, 2, 7, 53
3, 324971, Control_c, 2, 7, 51
3, 325065, Control_c, 2, 7, 48
3, 325159, Control_c, 2, 7, 46
3, 325253, Control_c, 2, 7, 45
3, 325347, Control_c, 2, 7, 43
3, 325441, Control_c, 2, 7, 41
3, 325535, Control_c, 2, 7, 40
3, 325629, Control_c, 2, 7, 39
3, 326163, Note_on_c, 2, 73, 64
3, 326606, Note_off_c, 2, 73, 0
3, 326668, Note_on_c, 2, 61, 65
3, 327111, Note_off_c, 2, 61, 0
3, 328681, Control_c, 2, 7, 63
3, 328734, Note_on_c, 2, 59, 74
3, 329280, Note_off_c, 2, 59, 0
3, 329722, Control_c, 2, 7, 102
3, 329749, Note_on_c, 2, 61, 75
3, 330014, Control_c, 2, 7, 100
3, 330106, Control_c, 2, 7, 98
3, 330198, Control_c, 2, 7, 96
3, 330290, Control_c, 2, 7, 94
3, 330382, Control_c, 2, 7, 92
3, 330474, Control_c, 2, 7, 90
3, 330566, Control_c, 2, 7, 88
3, 330658, Control_c, 2, 7, 86
3, 330750, Control_c, 2, 7, 84
3, 330764, Note_on_c, 2, 60, 70
3, 330815, Note_off_c, 2, 61, 0
3, 330842, Control_c, 2, 7, 82
3, 330934, Control_c, 2, 7, 80
3, 331026, Control_c, 2, 7, 78
3, 331118, Control_c, 2, 7, 76
3, 331210, Control_c, 2, 7, 74
3, 331302, Control_c, 2, 7, 72
3, 331394, Control_c, 2, 7, 70
3, 331486, Control_c, 2, 7, 68
3, 331579, Control_c, 2, 7, 66
3, 331671, Control_c, 2, 7, 64
3, 331677, Note_off_c, 2, 60, 0
3, 331754, Control_c, 2, 7, 63
3, 331763, Control_c, 2, 7, 62
3, 332830, Note_on_c, 2, 66, 74
3, 333796, Control_c, 2, 7, 102
3, 333845, Note_on_c, 2, 67, 75
3, 333896, Note_off_c, 2, 66, 0
3, 334860, Note_on_c, 2, 66, 70
3, 334911, Note_off_c, 2, 67, 0
3, 335770, Note_off_c, 2, 66, 0
3, 336418, Note_on_c, 2, 59, 49
3, 336926, Note_on_c, 2, 60, 49
3, 336977, Note_off_c, 2, 59, 0
3, 337941, Note_on_c, 2, 61, 49
3, 337992, Note_off_c, 2, 60, 0
3, 338956, Note_on_c, 2, 60, 44
3, 339007, Note_off_c, 2, 61, 0
3, 339866, Note_off_c, 2, 60, 0
3, 339972, Note_on_c, 2, 61, 54
3, 340960, Note_off_c, 2, 61, 0
3, 341022, Note_on_c, 2, 72, 49
3, 341280, Note_on_c, 2, 69, 44
3, 341331, Note_off_c, 2, 72, 0
3, 341436, Note_off_c, 2, 69, 0
3, 341527, Note_on_c, 2, 72, 49
3, 341620, Note_off_c, 2, 72, 0
3, 341775, Note_on_c, 2, 75, 49
3, 341882, Note_off_c, 2, 75, 0
3, 342037, Note_on_c, 2, 76, 64
3, 342485, Note_off_c, 2, 76, 0
3, 343052, Note_on_c, 2, 64, 62
3, 343495, Note_off_c, 2, 64, 0
3, 343548, End_track
4, 0, Start_track
4, 0, Unknown_meta_event, 9, 22, 83, 109, 97, 114, 116, 77, 117, 115, 105, 99, 32, 83, 111, 102, 116, 83, 121, 110, 116, 104, 32, 49
4, 0, Title_t, "Cello"
4, 0, Program_c, 3, 48
4, 0, Control_c, 3, 7, 101
4, 0, Control_c, 3, 10, 120
4, 0, Control_c, 3, 7, 110
4, 3, Control_c, 3, 100, 0
4, 3, Control_c, 3, 101, 0
4, 4, Control_c, 3, 6, 12
4, 5, Control_c, 3, 38, 0
4, 4078, Program_c, 3, 48
4, 4100, Note_on_c, 3, 46, 41
4, 4429, Note_off_c, 3, 46, 0
4, 4891, Note_on_c, 3, 48, 36
4, 5093, Note_off_c, 3, 48, 0
4, 5150, Note_on_c, 3, 49, 37
4, 5347, Note_off_c, 3, 49, 0
4, 5655, Note_on_c, 3, 51, 36
4, 5857, Note_off_c, 3, 51, 0
4, 6165, Note_on_c, 3, 52, 36
4, 6675, Note_on_c, 3, 53, 31
4, 6726, Note_off_c, 3, 52, 0
4, 7078, Note_off_c, 3, 53, 0
4, 11241, Control_c, 3, 7, 76
4, 11276, Note_on_c, 3, 53, 53
4, 11828, Control_c, 3, 7, 77
4, 11924, Control_c, 3, 7, 78
4, 12020, Control_c, 3, 7, 79
4, 12116, Control_c, 3, 7, 80
4, 12212, Control_c, 3, 7, 81
4, 12226, Note_off_c, 3, 53, 0
4, 12292, Note_on_c, 3, 41, 66
4, 12308, Control_c, 3, 7, 83
4, 12404, Control_c, 3, 7, 84
4, 12500, Control_c, 3, 7, 86
4, 12596, Control_c, 3, 7, 87
4, 12692, Control_c, 3, 7, 89
4, 12788, Control_c, 3, 7, 90
4, 12884, Control_c, 3, 7, 92
4, 12980, Control_c, 3, 7, 94
4, 13076, Control_c, 3, 7, 95
4, 13172, Control_c, 3, 7, 97
4, 13268, Control_c, 3, 7, 99
4, 13280, Note_off_c, 3, 41, 0
4, 13342, Note_on_c, 3, 48, 53
4, 13364, Control_c, 3, 7, 100
4, 13460, Control_c, 3, 7, 102
4, 13556, Control_c, 3, 7, 103
4, 13652, Control_c, 3, 7, 104
4, 13748, Control_c, 3, 7, 105
4, 13844, Control_c, 3, 7, 106
4, 13940, Control_c, 3, 7, 107
4, 14036, Control_c, 3, 7, 108
4, 14295, Note_off_c, 3, 48, 0
4, 14330, Control_c, 3, 7, 109
4, 14357, Note_on_c, 3, 40, 64
4, 15310, Note_off_c, 3, 40, 0
4, 15372, Note_on_c, 3, 46, 50
4, 15815, Note_off_c, 3, 46, 0
4, 16293, Control_c, 3, 7, 76
4, 16388, Note_on_c, 3, 46, 57
4, 16823, Note_off_c, 3, 46, 0
4, 18409, Control_c, 3, 7, 53
4, 18453, Note_on_c, 3, 49, 70
4, 19406, Note_off_c, 3, 49, 0
4, 19468, Note_on_c, 3, 51, 68
4, 20418, Note_off_c, 3, 51, 0
4, 20484, Note_on_c, 3, 53, 72
4, 20919, Note_off_c, 3, 53, 0
4, 22549, Note_on_c, 3, 49, 70
4, 22721, Control_c, 3, 7, 54
4, 22722, Control_c, 3, 7, 53
4, 22909, Control_c, 3, 7, 55
4, 23097, Control_c, 3, 7, 56
4, 23285, Control_c, 3, 7, 57
4, 23379, Control_c, 3, 7, 58
4, 23473, Control_c, 3, 7, 59
4, 23502, Note_off_c, 3, 49, 0
4, 23564, Note_on_c, 3, 47, 68
4, 23568, Control_c, 3, 7, 54
4, 23661, Control_c, 3, 7, 60
4, 23755, Control_c, 3, 7, 61
4, 23849, Control_c, 3, 7, 62
4, 23943, Control_c, 3, 7, 63
4, 23944, Control_c, 3, 7, 55
4, 24037, Control_c, 3, 7, 64
4, 24131, Control_c, 3, 7, 65
4, 24225, Control_c, 3, 7, 66
4, 24226, Control_c, 3, 7, 56
4, 24319, Control_c, 3, 7, 67
4, 24413, Control_c, 3, 7, 68
4, 24507, Control_c, 3, 7, 70
4, 24508, Control_c, 3, 7, 57
4, 24514, Note_off_c, 3, 47, 0
4, 24580, Note_on_c, 3, 46, 72
4, 24601, Control_c, 3, 7, 71
4, 24695, Control_c, 3, 7, 72
4, 24789, Control_c, 3, 7, 73
4, 24790, Control_c, 3, 7, 58
4, 24883, Control_c, 3, 7, 74
4, 24977, Control_c, 3, 7, 76
4, 24978, Control_c, 3, 7, 59
4, 25015, Note_off_c, 3, 46, 0
4, 25071, Control_c, 3, 7, 77
4, 25165, Control_c, 3, 7, 78
4, 25166, Control_c, 3, 7, 60
4, 25259, Control_c, 3, 7, 79
4, 25353, Control_c, 3, 7, 80
4, 25447, Control_c, 3, 7, 82
4, 25448, Control_c, 3, 7, 61
4, 25541, Control_c, 3, 7, 83
4, 25635, Control_c, 3, 7, 84
4, 25636, Control_c, 3, 7, 62
4, 25729, Control_c, 3, 7, 85
4, 25823, Control_c, 3, 7, 87
4, 25824, Control_c, 3, 7, 63
4, 25917, Control_c, 3, 7, 88
4, 26011, Control_c, 3, 7, 89
4, 26012, Control_c, 3, 7, 64
4, 26105, Control_c, 3, 7, 90
4, 26199, Control_c, 3, 7, 91
4, 26200, Control_c, 3, 7, 65
4, 26293, Control_c, 3, 7, 93
4, 26387, Control_c, 3, 7, 94
4, 26481, Control_c, 3, 7, 95
4, 26482, Control_c, 3, 7, 66
4, 26575, Control_c, 3, 7, 96
4, 26645, Note_on_c, 3, 49, 70
4, 26669, Control_c, 3, 7, 97
4, 26670, Control_c, 3, 7, 67
4, 26763, Control_c, 3, 7, 98
4, 26857, Control_c, 3, 7, 99
4, 26951, Control_c, 3, 7, 100
4, 26952, Control_c, 3, 7, 68
4, 27045, Control_c, 3, 7, 101
4, 27139, Control_c, 3, 7, 102
4, 27233, Control_c, 3, 7, 103
4, 27234, Control_c, 3, 7, 69
4, 27327, Control_c, 3, 7, 104
4, 27515, Control_c, 3, 7, 105
4, 27516, Control_c, 3, 7, 70
4, 27598, Note_off_c, 3, 49, 0
4, 27609, Control_c, 3, 7, 106
4, 27660, Note_on_c, 3, 51, 68
4, 27797, Control_c, 3, 7, 107
4, 27892, Control_c, 3, 7, 71
4, 27985, Control_c, 3, 7, 108
4, 28173, Control_c, 3, 7, 109
4, 28418, Note_off_c, 3, 51, 0
4, 28649, Control_c, 3, 7, 96
4, 28676, Note_on_c, 3, 52, 75
4, 29664, Note_off_c, 3, 52, 0
4, 29726, Note_on_c, 3, 49, 70
4, 30231, Note_on_c, 3, 45, 70
4, 30282, Note_off_c, 3, 49, 0
4, 30741, Note_on_c, 3, 46, 65
4, 30792, Note_off_c, 3, 45, 0
4, 31149, Note_off_c, 3, 46, 0
4, 32745, Control_c, 3, 7, 59
4, 32772, Note_on_c, 3, 46, 67
4, 33207, Note_off_c, 3, 46, 0
4, 33427, Control_c, 3, 7, 62
4, 33524, Control_c, 3, 7, 65
4, 33621, Control_c, 3, 7, 69
4, 33718, Control_c, 3, 7, 72
4, 33815, Control_c, 3, 7, 75
4, 33912, Control_c, 3, 7, 79
4, 34009, Control_c, 3, 7, 82
4, 34106, Control_c, 3, 7, 86
4, 34203, Control_c, 3, 7, 89
4, 34300, Control_c, 3, 7, 92
4, 34397, Control_c, 3, 7, 96
4, 34494, Control_c, 3, 7, 99
4, 34591, Control_c, 3, 7, 103
4, 34688, Control_c, 3, 7, 106
4, 34785, Control_c, 3, 7, 109
4, 34810, Control_c, 3, 7, 110
4, 34837, Note_on_c, 3, 49, 65
4, 35790, Note_off_c, 3, 49, 0
4, 35852, Note_on_c, 3, 51, 63
4, 36802, Note_off_c, 3, 51, 0
4, 36864, Control_c, 3, 7, 59
4, 36868, Note_on_c, 3, 53, 67
4, 37303, Note_off_c, 3, 53, 0
4, 37348, Control_c, 3, 7, 61
4, 37444, Control_c, 3, 7, 64
4, 37540, Control_c, 3, 7, 67
4, 37636, Control_c, 3, 7, 70
4, 37732, Control_c, 3, 7, 73
4, 37828, Control_c, 3, 7, 76
4, 37924, Control_c, 3, 7, 79
4, 38020, Control_c, 3, 7, 82
4, 38116, Control_c, 3, 7, 85
4, 38212, Control_c, 3, 7, 88
4, 38308, Control_c, 3, 7, 91
4, 38404, Control_c, 3, 7, 94
4, 38500, Control_c, 3, 7, 97
4, 38596, Control_c, 3, 7, 100
4, 38692, Control_c, 3, 7, 103
4, 38788, Control_c, 3, 7, 106
4, 38884, Control_c, 3, 7, 109
4, 38906, Control_c, 3, 7, 110
4, 38933, Note_on_c, 3, 49, 65
4, 39886, Note_off_c, 3, 49, 0
4, 39948, Note_on_c, 3, 47, 63
4, 40898, Note_off_c, 3, 47, 0
4, 40960, Control_c, 3, 7, 51
4, 40964, Note_on_c, 3, 46, 73
4, 41399, Note_off_c, 3, 46, 0
4, 43029, Note_on_c, 3, 49, 71
4, 43846, Control_c, 3, 7, 52
4, 43982, Note_off_c, 3, 49, 0
4, 44030, Control_c, 3, 7, 53
4, 44044, Note_on_c, 3, 51, 69
4, 44214, Control_c, 3, 7, 54
4, 44398, Control_c, 3, 7, 55
4, 44582, Control_c, 3, 7, 56
4, 44674, Control_c, 3, 7, 57
4, 44858, Control_c, 3, 7, 58
4, 44950, Control_c, 3, 7, 59
4, 44994, Note_off_c, 3, 51, 0
4, 45042, Control_c, 3, 7, 60
4, 45060, Note_on_c, 3, 52, 73
4, 45134, Control_c, 3, 7, 61
4, 45318, Control_c, 3, 7, 62
4, 45410, Control_c, 3, 7, 63
4, 45502, Control_c, 3, 7, 64
4, 45594, Control_c, 3, 7, 65
4, 45686, Control_c, 3, 7, 66
4, 45778, Control_c, 3, 7, 67
4, 45870, Control_c, 3, 7, 68
4, 45962, Control_c, 3, 7, 69
4, 46048, Note_off_c, 3, 52, 0
4, 46110, Note_on_c, 3, 46, 69
4, 46146, Control_c, 3, 7, 70
4, 46238, Control_c, 3, 7, 71
4, 46330, Control_c, 3, 7, 72
4, 46422, Control_c, 3, 7, 73
4, 46514, Control_c, 3, 7, 74
4, 46606, Control_c, 3, 7, 75
4, 46698, Control_c, 3, 7, 76
4, 46790, Control_c, 3, 7, 77
4, 46882, Control_c, 3, 7, 78
4, 46974, Control_c, 3, 7, 79
4, 47063, Note_off_c, 3, 46, 0
4, 47125, Note_on_c, 3, 45, 71
4, 47158, Control_c, 3, 7, 80
4, 47250, Control_c, 3, 7, 81
4, 47342, Control_c, 3, 7, 82
4, 47434, Control_c, 3, 7, 83
4, 47618, Control_c, 3, 7, 84
4, 47710, Control_c, 3, 7, 85
4, 47802, Control_c, 3, 7, 86
4, 47986, Control_c, 3, 7, 87
4, 48078, Note_off_c, 3, 45, 0
4, 48140, Note_on_c, 3, 44, 69
4, 48170, Control_c, 3, 7, 88
4, 48354, Control_c, 3, 7, 89
4, 48630, Control_c, 3, 7, 90
4, 49092, Note_off_c, 3, 44, 0
4, 49130, Control_c, 3, 7, 91
4, 49156, Note_on_c, 3, 49, 78
4, 49639, Note_off_c, 3, 49, 0
4, 49698, Note_on_c, 3, 37, 98
4, 50144, Note_off_c, 3, 37, 0
4, 50711, Note_on_c, 3, 52, 73
4, 50902, Note_off_c, 3, 52, 0
4, 50959, Note_on_c, 3, 49, 73
4, 51164, Note_off_c, 3, 49, 0
4, 51221, Note_on_c, 3, 55, 76
4, 51394, Control_c, 3, 7, 92
4, 51494, Control_c, 3, 7, 95
4, 51594, Control_c, 3, 7, 97
4, 51694, Control_c, 3, 7, 100
4, 51794, Control_c, 3, 7, 103
4, 51894, Control_c, 3, 7, 105
4, 51994, Control_c, 3, 7, 108
4, 52094, Control_c, 3, 7, 109
4, 52209, Control_c, 3, 7, 110
4, 52308, Control_c, 3, 7, 109
4, 52407, Control_c, 3, 7, 108
4, 52506, Control_c, 3, 7, 105
4, 52605, Control_c, 3, 7, 103
4, 52704, Control_c, 3, 7, 100
4, 52803, Control_c, 3, 7, 97
4, 52902, Control_c, 3, 7, 95
4, 53001, Control_c, 3, 7, 93
4, 53100, Control_c, 3, 7, 91
4, 53186, Note_off_c, 3, 55, 0
4, 53252, Note_on_c, 3, 56, 78
4, 53732, Note_off_c, 3, 56, 0
4, 53794, Note_on_c, 3, 44, 98
4, 54240, Note_off_c, 3, 44, 0
4, 54807, Note_on_c, 3, 53, 73
4, 54998, Note_off_c, 3, 53, 0
4, 55055, Note_on_c, 3, 49, 73
4, 55162, Note_off_c, 3, 49, 0
4, 55317, Note_on_c, 3, 49, 76
4, 56270, Note_off_c, 3, 49, 0
4, 56332, Note_on_c, 3, 47, 74
4, 57282, Note_off_c, 3, 47, 0
4, 57348, Note_on_c, 3, 49, 78
4, 57828, Note_off_c, 3, 49, 0
4, 57890, Note_on_c, 3, 37, 98
4, 58336, Note_off_c, 3, 37, 0
4, 58903, Note_on_c, 3, 52, 73
4, 59094, Note_off_c, 3, 52, 0
4, 59151, Note_on_c, 3, 49, 73
4, 59356, Note_off_c, 3, 49, 0
4, 59413, Note_on_c, 3, 55, 76
4, 59586, Control_c, 3, 7, 92
4, 59686, Control_c, 3, 7, 95
4, 59786, Control_c, 3, 7, 97
4, 59886, Control_c, 3, 7, 100
4, 59986, Control_c, 3, 7, 103
4, 60086, Control_c, 3, 7, 105
4, 60186, Control_c, 3, 7, 108
4, 60286, Control_c, 3, 7, 109
4, 60401, Control_c, 3, 7, 110
4, 60500, Control_c, 3, 7, 109
4, 60599, Control_c, 3, 7, 108
4, 60698, Control_c, 3, 7, 105
4, 60797, Control_c, 3, 7, 103
4, 60896, Control_c, 3, 7, 100
4, 60995, Control_c, 3, 7, 97
4, 61094, Control_c, 3, 7, 95
4, 61193, Control_c, 3, 7, 93
4, 61292, Control_c, 3, 7, 91
4, 61378, Note_off_c, 3, 55, 0
4, 61444, Note_on_c, 3, 56, 78
4, 61924, Note_off_c, 3, 56, 0
4, 61986, Note_on_c, 3, 44, 98
4, 62432, Note_off_c, 3, 44, 0
4, 62999, Note_on_c, 3, 48, 73
4, 63447, Note_off_c, 3, 48, 0
4, 63509, Note_on_c, 3, 49, 76
4, 63957, Note_off_c, 3, 49, 0
4, 65513, Control_c, 3, 7, 34
4, 65540, Note_on_c, 3, 37, 107
4, 65701, Control_c, 3, 7, 35
4, 65795, Control_c, 3, 7, 36
4, 65889, Control_c, 3, 7, 38
4, 65983, Control_c, 3, 7, 40
4, 66077, Control_c, 3, 7, 43
4, 66171, Control_c, 3, 7, 45
4, 66265, Control_c, 3, 7, 47
4, 66359, Control_c, 3, 7, 48
4, 66453, Control_c, 3, 7, 49
4, 66563, Control_c, 3, 7, 50
4, 66663, Control_c, 3, 7, 49
4, 66863, Control_c, 3, 7, 48
4, 66963, Control_c, 3, 7, 47
4, 67063, Control_c, 3, 7, 45
4, 67163, Control_c, 3, 7, 44
4, 67263, Control_c, 3, 7, 43
4, 67363, Control_c, 3, 7, 42
4, 67543, Note_off_c, 3, 37, 0
4, 67605, Note_on_c, 3, 49, 105
4, 68053, Note_off_c, 3, 49, 0
4, 68115, Note_on_c, 3, 37, 122
4, 68558, Note_off_c, 3, 37, 0
4, 69125, Note_on_c, 3, 40, 102
4, 69316, Note_off_c, 3, 40, 0
4, 69373, Note_on_c, 3, 37, 102
4, 69575, Note_off_c, 3, 37, 0
4, 69636, Note_on_c, 3, 40, 107
4, 69891, Control_c, 3, 7, 43
4, 69985, Control_c, 3, 7, 44
4, 70079, Control_c, 3, 7, 45
4, 70173, Control_c, 3, 7, 46
4, 70267, Control_c, 3, 7, 47
4, 70361, Control_c, 3, 7, 48
4, 70455, Control_c, 3, 7, 49
4, 70659, Control_c, 3, 7, 50
4, 70759, Control_c, 3, 7, 49
4, 70959, Control_c, 3, 7, 48
4, 71059, Control_c, 3, 7, 47
4, 71159, Control_c, 3, 7, 45
4, 71259, Control_c, 3, 7, 44
4, 71359, Control_c, 3, 7, 43
4, 71459, Control_c, 3, 7, 42
4, 71639, Note_off_c, 3, 40, 0
4, 71701, Note_on_c, 3, 49, 105
4, 72149, Note_off_c, 3, 49, 0
4, 72211, Note_on_c, 3, 37, 122
4, 72654, Note_off_c, 3, 37, 0
4, 73221, Note_on_c, 3, 40, 102
4, 73412, Note_off_c, 3, 40, 0
4, 73469, Note_on_c, 3, 37, 102
4, 73573, Note_off_c, 3, 37, 0
4, 73732, Note_on_c, 3, 37, 107
4, 75735, Note_off_c, 3, 37, 0
4, 75797, Note_on_c, 3, 49, 105
4, 76245, Note_off_c, 3, 49, 0
4, 76307, Note_on_c, 3, 37, 122
4, 76750, Note_off_c, 3, 37, 0
4, 76825, Control_c, 3, 7, 43
4, 77205, Control_c, 3, 7, 44
4, 77317, Note_on_c, 3, 40, 102
4, 77490, Control_c, 3, 7, 45
4, 77508, Note_off_c, 3, 40, 0
4, 77565, Note_on_c, 3, 37, 102
4, 77767, Note_off_c, 3, 37, 0
4, 77775, Control_c, 3, 7, 46
4, 77828, Note_on_c, 3, 40, 107
4, 78060, Control_c, 3, 7, 47
4, 78440, Control_c, 3, 7, 48
4, 78725, Control_c, 3, 7, 49
4, 78816, Note_off_c, 3, 40, 0
4, 78878, Note_on_c, 3, 43, 103
4, 79105, Control_c, 3, 7, 50
4, 79831, Note_off_c, 3, 43, 0
4, 79866, Control_c, 3, 7, 51
4, 79893, Note_on_c, 3, 44, 112
4, 80846, Note_off_c, 3, 44, 0
4, 80908, Note_on_c, 3, 49, 110
4, 81351, Note_off_c, 3, 49, 0
4, 81897, Control_c, 3, 7, 110
4, 81924, Note_on_c, 3, 37, 127
4, 82606, Control_c, 3, 7, 105
4, 82702, Control_c, 3, 7, 100
4, 82798, Control_c, 3, 7, 95
4, 82894, Control_c, 3, 7, 90
4, 82990, Control_c, 3, 7, 85
4, 83086, Control_c, 3, 7, 80
4, 83182, Control_c, 3, 7, 75
4, 83278, Control_c, 3, 7, 70
4, 83374, Control_c, 3, 7, 65
4, 83470, Control_c, 3, 7, 60
4, 83566, Control_c, 3, 7, 55
4, 83662, Control_c, 3, 7, 50
4, 83783, Note_off_c, 3, 37, 0
4, 83989, Note_on_c, 3, 49, 114
4, 84437, Note_off_c, 3, 49, 0
4, 84499, Note_on_c, 3, 37, 127
4, 84942, Note_off_c, 3, 37, 0
4, 85064, Control_c, 3, 7, 54
4, 85163, Control_c, 3, 7, 58
4, 85262, Control_c, 3, 7, 62
4, 85361, Control_c, 3, 7, 66
4, 85460, Control_c, 3, 7, 70
4, 85509, Note_on_c, 3, 40, 111
4, 85559, Control_c, 3, 7, 74
4, 85658, Control_c, 3, 7, 78
4, 85700, Note_off_c, 3, 40, 0
4, 85757, Control_c, 3, 7, 82
4, 85757, Note_on_c, 3, 37, 111
4, 85856, Control_c, 3, 7, 86
4, 85955, Control_c, 3, 7, 91
4, 85959, Note_off_c, 3, 37, 0
4, 85993, Control_c, 3, 7, 110
4, 86020, Note_on_c, 3, 40, 127
4, 86635, Control_c, 3, 7, 103
4, 86736, Control_c, 3, 7, 97
4, 86837, Control_c, 3, 7, 91
4, 86938, Control_c, 3, 7, 85
4, 87039, Control_c, 3, 7, 79
4, 87140, Control_c, 3, 7, 73
4, 87241, Control_c, 3, 7, 67
4, 87342, Control_c, 3, 7, 61
4, 87443, Control_c, 3, 7, 55
4, 87544, Control_c, 3, 7, 49
4, 88023, Note_off_c, 3, 40, 0
4, 88058, Control_c, 3, 7, 50
4, 88085, Note_on_c, 3, 49, 114
4, 88533, Note_off_c, 3, 49, 0
4, 88595, Note_on_c, 3, 37, 127
4, 88851, Control_c, 3, 7, 53
4, 88949, Control_c, 3, 7, 57
4, 89038, Note_off_c, 3, 37, 0
4, 89047, Control_c, 3, 7, 61
4, 89145, Control_c, 3, 7, 64
4, 89243, Control_c, 3, 7, 68
4, 89341, Control_c, 3, 7, 72
4, 89439, Control_c, 3, 7, 76
4, 89537, Control_c, 3, 7, 79
4, 89605, Note_on_c, 3, 40, 111
4, 89635, Control_c, 3, 7, 83
4, 89733, Control_c, 3, 7, 87
4, 89796, Note_off_c, 3, 40, 0
4, 89831, Control_c, 3, 7, 91
4, 89853, Note_on_c, 3, 37, 111
4, 90055, Note_off_c, 3, 37, 0
4, 90089, Control_c, 3, 7, 110
4, 90116, Note_on_c, 3, 41, 127
4, 90804, Control_c, 3, 7, 104
4, 90901, Control_c, 3, 7, 99
4, 90998, Control_c, 3, 7, 94
4, 91095, Control_c, 3, 7, 89
4, 91192, Control_c, 3, 7, 84
4, 91289, Control_c, 3, 7, 79
4, 91386, Control_c, 3, 7, 74
4, 91483, Control_c, 3, 7, 69
4, 91580, Control_c, 3, 7, 64
4, 91677, Control_c, 3, 7, 59
4, 91774, Control_c, 3, 7, 54
4, 91871, Control_c, 3, 7, 49
4, 92119, Note_off_c, 3, 41, 0
4, 92154, Control_c, 3, 7, 50
4, 92181, Note_on_c, 3, 49, 114
4, 92629, Note_off_c, 3, 49, 0
4, 92691, Note_on_c, 3, 37, 127
4, 93131, Control_c, 3, 7, 51
4, 93134, Note_off_c, 3, 37, 0
4, 93319, Control_c, 3, 7, 52
4, 93413, Control_c, 3, 7, 53
4, 93507, Control_c, 3, 7, 55
4, 93601, Control_c, 3, 7, 56
4, 93695, Control_c, 3, 7, 57
4, 93701, Note_on_c, 3, 41, 111
4, 93789, Control_c, 3, 7, 58
4, 93892, Note_off_c, 3, 41, 0
4, 93949, Note_on_c, 3, 37, 111
4, 93977, Control_c, 3, 7, 59
4, 94151, Note_off_c, 3, 37, 0
4, 94185, Control_c, 3, 7, 60
4, 94212, Note_on_c, 3, 42, 122
4, 95200, Note_off_c, 3, 42, 0
4, 95262, Note_on_c, 3, 54, 118
4, 95705, Note_off_c, 3, 54, 0
4, 95767, Note_on_c, 3, 42, 127
4, 96215, Note_off_c, 3, 42, 0
4, 96787, Note_on_c, 3, 45, 117
4, 96978, Note_off_c, 3, 45, 0
4, 97035, Note_on_c, 3, 42, 117
4, 97235, Note_off_c, 3, 42, 0
4, 97292, Note_on_c, 3, 40, 117
4, 98308, Note_on_c, 3, 38, 112
4, 98355, Note_off_c, 3, 40, 0
4, 98602, Control_c, 3, 7, 59
4, 99330, Control_c, 3, 7, 58
4, 99694, Control_c, 3, 7, 57
4, 99967, Control_c, 3, 7, 56
4, 100240, Control_c, 3, 7, 55
4, 100271, Note_off_c, 3, 38, 0
4, 100373, Note_on_c, 3, 44, 120
4, 100513, Control_c, 3, 7, 54
4, 100695, Control_c, 3, 7, 53
4, 100968, Control_c, 3, 7, 52
4, 101332, Control_c, 3, 7, 51
4, 101387, Note_off_c, 3, 44, 0
4, 101388, Note_on_c, 3, 44, 118
4, 101605, Control_c, 3, 7, 50
4, 102340, Note_off_c, 3, 44, 0
4, 102404, Note_on_c, 3, 37, 111
4, 102665, Control_c, 3, 7, 51
4, 102761, Control_c, 3, 7, 52
4, 102857, Control_c, 3, 7, 53
4, 102953, Control_c, 3, 7, 54
4, 103049, Control_c, 3, 7, 55
4, 103145, Control_c, 3, 7, 56
4, 103241, Control_c, 3, 7, 57
4, 103449, Control_c, 3, 7, 58
4, 103544, Control_c, 3, 7, 57
4, 103924, Control_c, 3, 7, 56
4, 104114, Control_c, 3, 7, 55
4, 104304, Control_c, 3, 7, 54
4, 104494, Control_c, 3, 7, 53
4, 104684, Control_c, 3, 7, 52
4, 104874, Control_c, 3, 7, 51
4, 105064, Control_c, 3, 7, 50
4, 105425, Note_off_c, 3, 37, 0
4, 105989, Note_on_c, 3, 39, 111
4, 106237, Note_on_c, 3, 40, 106
4, 106288, Note_off_c, 3, 39, 0
4, 106405, Note_off_c, 3, 40, 0
4, 106500, Note_on_c, 3, 42, 111
4, 107249, Control_c, 3, 7, 51
4, 107431, Control_c, 3, 7, 52
4, 107550, Note_on_c, 3, 44, 111
4, 107601, Note_off_c, 3, 42, 0
4, 107613, Control_c, 3, 7, 53
4, 107795, Control_c, 3, 7, 54
4, 107977, Control_c, 3, 7, 55
4, 107990, Control_c, 3, 7, 51
4, 108068, Control_c, 3, 7, 56
4, 108159, Control_c, 3, 7, 57
4, 108341, Control_c, 3, 7, 58
4, 108354, Control_c, 3, 7, 52
4, 108432, Control_c, 3, 7, 59
4, 108523, Control_c, 3, 7, 60
4, 108565, Note_on_c, 3, 45, 111
4, 108616, Note_off_c, 3, 44, 0
4, 108627, Control_c, 3, 7, 53
4, 108705, Control_c, 3, 7, 61
4, 108796, Control_c, 3, 7, 62
4, 108887, Control_c, 3, 7, 63
4, 108900, Control_c, 3, 7, 54
4, 108978, Control_c, 3, 7, 64
4, 109160, Control_c, 3, 7, 65
4, 109173, Control_c, 3, 7, 55
4, 109251, Control_c, 3, 7, 66
4, 109433, Control_c, 3, 7, 67
4, 109446, Control_c, 3, 7, 56
4, 109524, Control_c, 3, 7, 68
4, 109580, Note_on_c, 3, 44, 106
4, 109631, Note_off_c, 3, 45, 0
4, 109706, Control_c, 3, 7, 69
4, 109810, Control_c, 3, 7, 57
4, 109888, Control_c, 3, 7, 70
4, 110070, Control_c, 3, 7, 71
4, 110478, Note_off_c, 3, 44, 0
4, 110570, Control_c, 3, 7, 60
4, 110596, Note_on_c, 3, 37, 122
4, 111079, Note_off_c, 3, 37, 0
4, 111138, Note_on_c, 3, 44, 127
4, 111584, Note_off_c, 3, 44, 0
4, 112151, Note_on_c, 3, 44, 117
4, 112599, Note_off_c, 3, 44, 0
4, 112661, Note_on_c, 3, 37, 127
4, 113109, Note_off_c, 3, 37, 0
4, 114637, Control_c, 3, 7, 110
4, 114692, Note_on_c, 3, 42, 73
4, 115424, Note_off_c, 3, 42, 0
4, 116757, Note_on_c, 3, 39, 71
4, 117454, Note_off_c, 3, 39, 0
4, 117772, Note_on_c, 3, 46, 69
4, 118466, Note_off_c, 3, 46, 0
4, 118788, Note_on_c, 3, 44, 73
4, 119520, Note_off_c, 3, 44, 0
4, 120809, Control_c, 3, 7, 87
4, 120853, Note_on_c, 3, 49, 85
4, 121550, Note_off_c, 3, 49, 0
4, 121868, Note_on_c, 3, 47, 83
4, 122562, Note_off_c, 3, 47, 0
4, 122694, Control_c, 3, 7, 88
4, 122884, Note_on_c, 3, 42, 87
4, 122976, Control_c, 3, 7, 89
4, 123164, Control_c, 3, 7, 90
4, 123352, Control_c, 3, 7, 91
4, 123540, Control_c, 3, 7, 92
4, 123616, Note_off_c, 3, 42, 0
4, 123728, Control_c, 3, 7, 93
4, 123916, Control_c, 3, 7, 94
4, 124010, Control_c, 3, 7, 95
4, 124198, Control_c, 3, 7, 96
4, 124292, Control_c, 3, 7, 97
4, 124480, Control_c, 3, 7, 98
4, 124574, Control_c, 3, 7, 99
4, 124762, Control_c, 3, 7, 100
4, 124856, Control_c, 3, 7, 101
4, 124949, Note_on_c, 3, 39, 85
4, 125044, Control_c, 3, 7, 102
4, 125138, Control_c, 3, 7, 103
4, 125326, Control_c, 3, 7, 104
4, 125514, Control_c, 3, 7, 105
4, 125646, Note_off_c, 3, 39, 0
4, 125702, Control_c, 3, 7, 106
4, 125890, Control_c, 3, 7, 107
4, 125964, Note_on_c, 3, 46, 83
4, 126078, Control_c, 3, 7, 108
4, 126360, Control_c, 3, 7, 109
4, 126658, Note_off_c, 3, 46, 0
4, 126953, Control_c, 3, 7, 110
4, 126980, Note_on_c, 3, 44, 88
4, 127712, Note_off_c, 3, 44, 0
4, 128030, Note_on_c, 3, 51, 84
4, 128727, Note_off_c, 3, 51, 0
4, 129045, Note_on_c, 3, 43, 78
4, 129998, Note_off_c, 3, 43, 0
4, 130060, Note_on_c, 3, 44, 76
4, 130505, Note_off_c, 3, 44, 0
4, 131072, Control_c, 3, 7, 67
4, 131076, Note_on_c, 3, 42, 84
4, 131811, Note_off_c, 3, 42, 0
4, 132120, Control_c, 3, 7, 68
4, 132215, Control_c, 3, 7, 70
4, 132310, Control_c, 3, 7, 72
4, 132405, Control_c, 3, 7, 74
4, 132500, Control_c, 3, 7, 76
4, 132595, Control_c, 3, 7, 78
4, 132690, Control_c, 3, 7, 80
4, 132785, Control_c, 3, 7, 82
4, 132880, Control_c, 3, 7, 84
4, 132975, Control_c, 3, 7, 86
4, 133070, Control_c, 3, 7, 88
4, 133141, Note_on_c, 3, 39, 82
4, 133165, Control_c, 3, 7, 90
4, 133260, Control_c, 3, 7, 92
4, 133355, Control_c, 3, 7, 94
4, 133450, Control_c, 3, 7, 96
4, 133545, Control_c, 3, 7, 98
4, 133640, Control_c, 3, 7, 100
4, 133735, Control_c, 3, 7, 102
4, 133830, Control_c, 3, 7, 104
4, 133838, Note_off_c, 3, 39, 0
4, 133925, Control_c, 3, 7, 106
4, 134020, Control_c, 3, 7, 108
4, 134115, Control_c, 3, 7, 110
4, 134156, Note_on_c, 3, 46, 84
4, 134688, Control_c, 3, 7, 104
4, 134750, Control_c, 3, 7, 99
4, 134812, Control_c, 3, 7, 93
4, 134850, Note_off_c, 3, 46, 0
4, 134874, Control_c, 3, 7, 88
4, 134936, Control_c, 3, 7, 83
4, 134998, Control_c, 3, 7, 77
4, 135060, Control_c, 3, 7, 72
4, 135122, Control_c, 3, 7, 66
4, 135145, Control_c, 3, 7, 67
4, 135172, Note_on_c, 3, 44, 84
4, 135904, Note_off_c, 3, 44, 0
4, 135951, Control_c, 3, 7, 68
4, 136047, Control_c, 3, 7, 70
4, 136143, Control_c, 3, 7, 71
4, 136239, Control_c, 3, 7, 73
4, 136335, Control_c, 3, 7, 75
4, 136431, Control_c, 3, 7, 77
4, 136527, Control_c, 3, 7, 78
4, 136623, Control_c, 3, 7, 80
4, 136719, Control_c, 3, 7, 82
4, 136815, Control_c, 3, 7, 83
4, 136911, Control_c, 3, 7, 85
4, 137007, Control_c, 3, 7, 86
4, 137193, Control_c, 3, 7, 85
4, 137237, Note_on_c, 3, 49, 87
4, 137934, Note_off_c, 3, 49, 0
4, 138252, Note_on_c, 3, 47, 85
4, 138520, Control_c, 3, 7, 84
4, 138620, Control_c, 3, 7, 81
4, 138720, Control_c, 3, 7, 78
4, 138820, Control_c, 3, 7, 74
4, 138920, Control_c, 3, 7, 71
4, 138946, Note_off_c, 3, 47, 0
4, 139020, Control_c, 3, 7, 68
4, 139120, Control_c, 3, 7, 65
4, 139268, Note_on_c, 3, 42, 86
4, 139496, Control_c, 3, 7, 70
4, 139521, Control_c, 3, 7, 75
4, 139546, Control_c, 3, 7, 81
4, 139571, Control_c, 3, 7, 86
4, 139596, Control_c, 3, 7, 92
4, 139621, Control_c, 3, 7, 97
4, 139646, Control_c, 3, 7, 103
4, 139671, Control_c, 3, 7, 108
4, 139689, Control_c, 3, 7, 65
4, 140000, Note_off_c, 3, 42, 0
4, 140247, Control_c, 3, 7, 66
4, 140526, Control_c, 3, 7, 67
4, 140712, Control_c, 3, 7, 68
4, 140805, Control_c, 3, 7, 69
4, 140991, Control_c, 3, 7, 70
4, 141084, Control_c, 3, 7, 71
4, 141270, Control_c, 3, 7, 72
4, 141333, Note_on_c, 3, 39, 84
4, 141363, Control_c, 3, 7, 73
4, 141456, Control_c, 3, 7, 74
4, 141549, Control_c, 3, 7, 75
4, 141642, Control_c, 3, 7, 76
4, 141735, Control_c, 3, 7, 77
4, 141828, Control_c, 3, 7, 78
4, 142014, Control_c, 3, 7, 79
4, 142030, Note_off_c, 3, 39, 0
4, 142107, Control_c, 3, 7, 80
4, 142200, Control_c, 3, 7, 81
4, 142293, Control_c, 3, 7, 82
4, 142348, Note_on_c, 3, 46, 82
4, 142386, Control_c, 3, 7, 83
4, 142479, Control_c, 3, 7, 84
4, 142572, Control_c, 3, 7, 85
4, 142665, Control_c, 3, 7, 86
4, 142758, Control_c, 3, 7, 87
4, 142851, Control_c, 3, 7, 88
4, 142944, Control_c, 3, 7, 89
4, 143037, Control_c, 3, 7, 90
4, 143042, Note_off_c, 3, 46, 0
4, 143130, Control_c, 3, 7, 91
4, 143223, Control_c, 3, 7, 92
4, 143316, Control_c, 3, 7, 93
4, 143364, Note_on_c, 3, 44, 81
4, 143409, Control_c, 3, 7, 94
4, 143502, Control_c, 3, 7, 95
4, 143595, Control_c, 3, 7, 96
4, 143688, Control_c, 3, 7, 97
4, 143781, Control_c, 3, 7, 98
4, 143967, Control_c, 3, 7, 99
4, 144060, Control_c, 3, 7, 100
4, 144153, Control_c, 3, 7, 101
4, 144339, Control_c, 3, 7, 102
4, 144352, Note_off_c, 3, 44, 0
4, 144525, Control_c, 3, 7, 103
4, 144711, Control_c, 3, 7, 104
4, 144897, Control_c, 3, 7, 105
4, 145357, Control_c, 3, 7, 110
4, 145429, Note_on_c, 3, 43, 78
4, 146382, Note_off_c, 3, 43, 0
4, 146444, Note_on_c, 3, 44, 76
4, 146889, Note_off_c, 3, 44, 0
4, 147460, Note_on_c, 3, 42, 73
4, 148195, Note_off_c, 3, 42, 0
4, 149525, Note_on_c, 3, 39, 71
4, 150222, Note_off_c, 3, 39, 0
4, 150540, Note_on_c, 3, 46, 69
4, 151234, Note_off_c, 3, 46, 0
4, 151556, Note_on_c, 3, 44, 73
4, 152288, Note_off_c, 3, 44, 0
4, 153577, Control_c, 3, 7, 63
4, 153621, Note_on_c, 3, 41, 105
4, 154318, Note_off_c, 3, 41, 0
4, 154636, Note_on_c, 3, 48, 103
4, 155391, Note_off_c, 3, 48, 0
4, 155652, Note_on_c, 3, 48, 107
4, 156384, Note_off_c, 3, 48, 0
4, 156413, Control_c, 3, 7, 64
4, 156692, Control_c, 3, 7, 65
4, 156878, Control_c, 3, 7, 66
4, 157064, Control_c, 3, 7, 67
4, 157157, Control_c, 3, 7, 68
4, 157343, Control_c, 3, 7, 69
4, 157436, Control_c, 3, 7, 70
4, 157622, Control_c, 3, 7, 71
4, 157715, Control_c, 3, 7, 72
4, 157717, Note_on_c, 3, 47, 96
4, 157808, Control_c, 3, 7, 73
4, 157901, Control_c, 3, 7, 74
4, 157994, Control_c, 3, 7, 75
4, 158087, Control_c, 3, 7, 76
4, 158180, Control_c, 3, 7, 77
4, 158273, Control_c, 3, 7, 78
4, 158366, Control_c, 3, 7, 79
4, 158459, Control_c, 3, 7, 80
4, 158552, Control_c, 3, 7, 81
4, 158645, Control_c, 3, 7, 82
4, 158732, Note_on_c, 3, 43, 96
4, 158738, Control_c, 3, 7, 83
4, 158783, Note_off_c, 3, 47, 0
4, 158831, Control_c, 3, 7, 84
4, 158924, Control_c, 3, 7, 85
4, 159017, Control_c, 3, 7, 86
4, 159110, Control_c, 3, 7, 87
4, 159203, Control_c, 3, 7, 88
4, 159296, Control_c, 3, 7, 89
4, 159389, Control_c, 3, 7, 90
4, 159482, Control_c, 3, 7, 91
4, 159575, Control_c, 3, 7, 92
4, 159668, Control_c, 3, 7, 93
4, 159748, Note_on_c, 3, 44, 91
4, 159761, Control_c, 3, 7, 94
4, 159795, Note_off_c, 3, 43, 0
4, 159854, Control_c, 3, 7, 95
4, 159947, Control_c, 3, 7, 96
4, 160040, Control_c, 3, 7, 97
4, 160226, Control_c, 3, 7, 98
4, 160319, Control_c, 3, 7, 99
4, 160412, Control_c, 3, 7, 100
4, 160505, Control_c, 3, 7, 101
4, 160598, Control_c, 3, 7, 102
4, 160696, Note_off_c, 3, 44, 0
4, 160784, Control_c, 3, 7, 103
4, 160798, Note_on_c, 3, 45, 97
4, 160877, Control_c, 3, 7, 104
4, 160970, Control_c, 3, 7, 105
4, 161156, Control_c, 3, 7, 106
4, 161342, Control_c, 3, 7, 107
4, 161528, Control_c, 3, 7, 108
4, 161714, Control_c, 3, 7, 109
4, 161751, Note_off_c, 3, 45, 0
4, 161813, Note_on_c, 3, 43, 99
4, 162827, Note_off_c, 3, 43, 0
4, 162828, Note_on_c, 3, 43, 97
4, 163817, Control_c, 3, 7, 110
4, 163839, Note_off_c, 3, 43, 0
4, 163844, Note_on_c, 3, 36, 77
4, 163844, Note_on_c, 3, 43, 87
4, 165627, Control_c, 3, 7, 109
4, 165912, Control_c, 3, 7, 108
4, 166007, Control_c, 3, 7, 107
4, 166197, Control_c, 3, 7, 106
4, 166292, Control_c, 3, 7, 104
4, 166387, Control_c, 3, 7, 103
4, 166482, Control_c, 3, 7, 102
4, 166577, Control_c, 3, 7, 101
4, 166672, Control_c, 3, 7, 99
4, 166767, Control_c, 3, 7, 98
4, 166862, Control_c, 3, 7, 96
4, 166957, Control_c, 3, 7, 94
4, 167052, Control_c, 3, 7, 93
4, 167147, Control_c, 3, 7, 91
4, 167242, Control_c, 3, 7, 89
4, 167337, Control_c, 3, 7, 88
4, 167432, Control_c, 3, 7, 86
4, 167527, Control_c, 3, 7, 84
4, 167622, Control_c, 3, 7, 83
4, 167718, Control_c, 3, 7, 81
4, 167813, Control_c, 3, 7, 80
4, 167908, Control_c, 3, 7, 78
4, 168003, Control_c, 3, 7, 77
4, 168098, Control_c, 3, 7, 76
4, 168193, Control_c, 3, 7, 74
4, 168287, Control_c, 3, 7, 73
4, 168382, Control_c, 3, 7, 72
4, 168477, Control_c, 3, 7, 71
4, 168667, Control_c, 3, 7, 70
4, 170801, Note_off_c, 3, 36, 0
4, 170859, Note_off_c, 3, 43, 0
4, 171520, Control_c, 3, 7, 68
4, 171525, Note_on_c, 3, 53, 87
4, 172036, Note_on_c, 3, 52, 87
4, 172083, Note_off_c, 3, 53, 0
4, 172236, Control_c, 3, 7, 69
4, 172330, Control_c, 3, 7, 70
4, 172424, Control_c, 3, 7, 71
4, 172518, Control_c, 3, 7, 73
4, 172612, Control_c, 3, 7, 74
4, 172706, Control_c, 3, 7, 76
4, 172800, Control_c, 3, 7, 78
4, 172894, Control_c, 3, 7, 80
4, 172988, Control_c, 3, 7, 82
4, 173082, Control_c, 3, 7, 84
4, 173086, Note_on_c, 3, 55, 87
4, 173137, Note_off_c, 3, 52, 0
4, 173176, Control_c, 3, 7, 86
4, 173270, Control_c, 3, 7, 87
4, 173364, Control_c, 3, 7, 89
4, 173458, Control_c, 3, 7, 91
4, 173552, Control_c, 3, 7, 92
4, 173591, Note_on_c, 3, 56, 87
4, 173642, Note_off_c, 3, 55, 0
4, 173646, Control_c, 3, 7, 93
4, 173740, Control_c, 3, 7, 94
4, 174101, Note_on_c, 3, 55, 87
4, 174152, Note_off_c, 3, 56, 0
4, 174274, Control_c, 3, 7, 95
4, 174368, Control_c, 3, 7, 94
4, 174838, Control_c, 3, 7, 93
4, 175026, Control_c, 3, 7, 92
4, 175116, Note_on_c, 3, 58, 87
4, 175167, Note_off_c, 3, 55, 0
4, 175214, Control_c, 3, 7, 91
4, 175308, Control_c, 3, 7, 90
4, 175496, Control_c, 3, 7, 89
4, 175590, Control_c, 3, 7, 88
4, 175778, Control_c, 3, 7, 87
4, 175869, Note_on_c, 3, 56, 87
4, 175873, Control_c, 3, 7, 86
4, 175918, Note_off_c, 3, 58, 0
4, 175967, Control_c, 3, 7, 85
4, 176061, Control_c, 3, 7, 84
4, 176132, Note_on_c, 3, 55, 87
4, 176176, Note_off_c, 3, 56, 0
4, 176249, Control_c, 3, 7, 83
4, 176343, Control_c, 3, 7, 82
4, 176436, Control_c, 3, 7, 81
4, 176530, Control_c, 3, 7, 80
4, 176674, Note_on_c, 3, 54, 87
4, 176718, Control_c, 3, 7, 79
4, 176722, Note_off_c, 3, 55, 0
4, 176812, Control_c, 3, 7, 78
4, 176906, Control_c, 3, 7, 77
4, 177094, Control_c, 3, 7, 76
4, 177182, Note_on_c, 3, 55, 82
4, 177188, Control_c, 3, 7, 75
4, 177233, Note_off_c, 3, 54, 0
4, 177376, Control_c, 3, 7, 74
4, 177564, Control_c, 3, 7, 73
4, 179110, Note_off_c, 3, 55, 0
4, 179717, Note_on_c, 3, 61, 87
4, 180228, Note_on_c, 3, 60, 87
4, 180275, Note_off_c, 3, 61, 0
4, 180770, Note_on_c, 3, 58, 87
4, 180821, Note_off_c, 3, 60, 0
4, 181278, Note_on_c, 3, 61, 87
4, 181329, Note_off_c, 3, 58, 0
4, 181783, Note_on_c, 3, 60, 87
4, 181834, Note_off_c, 3, 61, 0
4, 182233, Control_c, 3, 7, 74
4, 182293, Note_on_c, 3, 58, 87
4, 182330, Control_c, 3, 7, 75
4, 182344, Note_off_c, 3, 60, 0
4, 182427, Control_c, 3, 7, 77
4, 182524, Control_c, 3, 7, 79
4, 182621, Control_c, 3, 7, 81
4, 182718, Control_c, 3, 7, 83
4, 182815, Control_c, 3, 7, 85
4, 182912, Control_c, 3, 7, 87
4, 183009, Control_c, 3, 7, 90
4, 183106, Control_c, 3, 7, 92
4, 183203, Control_c, 3, 7, 95
4, 183300, Control_c, 3, 7, 97
4, 183308, Note_on_c, 3, 54, 87
4, 183359, Note_off_c, 3, 58, 0
4, 183397, Control_c, 3, 7, 99
4, 183494, Control_c, 3, 7, 101
4, 183591, Control_c, 3, 7, 103
4, 183688, Control_c, 3, 7, 105
4, 183785, Control_c, 3, 7, 107
4, 183882, Control_c, 3, 7, 108
4, 183979, Control_c, 3, 7, 109
4, 184324, Note_on_c, 3, 55, 87
4, 184371, Note_off_c, 3, 54, 0
4, 184527, Control_c, 3, 7, 73
4, 184866, Note_on_c, 3, 64, 87
4, 184917, Note_off_c, 3, 55, 0
4, 185185, Control_c, 3, 7, 74
4, 185373, Control_c, 3, 7, 75
4, 185561, Control_c, 3, 7, 76
4, 185749, Control_c, 3, 7, 77
4, 185937, Control_c, 3, 7, 78
4, 186125, Control_c, 3, 7, 79
4, 186313, Control_c, 3, 7, 80
4, 186407, Control_c, 3, 7, 81
4, 186595, Control_c, 3, 7, 82
4, 186689, Control_c, 3, 7, 83
4, 186877, Control_c, 3, 7, 84
4, 187065, Control_c, 3, 7, 85
4, 187159, Control_c, 3, 7, 86
4, 187302, Note_off_c, 3, 64, 0
4, 187347, Control_c, 3, 7, 87
4, 187629, Control_c, 3, 7, 88
4, 187817, Control_c, 3, 7, 89
4, 188325, Control_c, 3, 7, 90
4, 188420, Note_on_c, 3, 67, 88
4, 188962, Note_on_c, 3, 64, 88
4, 189013, Note_off_c, 3, 67, 0
4, 189894, Control_c, 3, 7, 89
4, 190270, Control_c, 3, 7, 88
4, 190458, Control_c, 3, 7, 87
4, 190485, Note_on_c, 3, 66, 88
4, 190536, Note_off_c, 3, 64, 0
4, 190646, Control_c, 3, 7, 86
4, 190740, Control_c, 3, 7, 85
4, 190928, Control_c, 3, 7, 84
4, 191022, Control_c, 3, 7, 83
4, 191116, Control_c, 3, 7, 82
4, 191210, Control_c, 3, 7, 81
4, 191304, Control_c, 3, 7, 80
4, 191398, Control_c, 3, 7, 79
4, 191492, Control_c, 3, 7, 78
4, 191500, Note_on_c, 3, 64, 88
4, 191551, Note_off_c, 3, 66, 0
4, 191586, Control_c, 3, 7, 77
4, 191680, Control_c, 3, 7, 76
4, 191774, Control_c, 3, 7, 75
4, 191868, Control_c, 3, 7, 73
4, 191962, Control_c, 3, 7, 72
4, 192056, Control_c, 3, 7, 71
4, 192150, Control_c, 3, 7, 70
4, 192244, Control_c, 3, 7, 69
4, 192253, Note_on_c, 3, 61, 88
4, 192304, Note_off_c, 3, 64, 0
4, 192338, Control_c, 3, 7, 68
4, 192432, Control_c, 3, 7, 66
4, 192516, Note_on_c, 3, 60, 88
4, 192526, Control_c, 3, 7, 65
4, 192563, Note_off_c, 3, 61, 0
4, 192620, Control_c, 3, 7, 64
4, 192714, Control_c, 3, 7, 63
4, 192808, Control_c, 3, 7, 62
4, 192902, Control_c, 3, 7, 61
4, 192996, Control_c, 3, 7, 60
4, 193058, Note_on_c, 3, 58, 88
4, 193090, Control_c, 3, 7, 59
4, 193109, Note_off_c, 3, 60, 0
4, 193184, Control_c, 3, 7, 58
4, 193278, Control_c, 3, 7, 57
4, 193372, Control_c, 3, 7, 56
4, 193466, Control_c, 3, 7, 55
4, 193560, Control_c, 3, 7, 54
4, 193566, Note_on_c, 3, 60, 88
4, 193617, Note_off_c, 3, 58, 0
4, 193748, Control_c, 3, 7, 53
4, 193842, Control_c, 3, 7, 52
4, 194030, Control_c, 3, 7, 51
4, 194581, Note_on_c, 3, 55, 83
4, 194632, Note_off_c, 3, 60, 0
4, 195494, Note_off_c, 3, 55, 0
4, 196101, Note_on_c, 3, 56, 88
4, 196453, Control_c, 3, 7, 47
4, 196612, Note_on_c, 3, 58, 88
4, 196657, Note_off_c, 3, 56, 0
4, 196732, Control_c, 3, 7, 48
4, 196825, Control_c, 3, 7, 50
4, 196917, Control_c, 3, 7, 51
4, 197010, Control_c, 3, 7, 53
4, 197103, Control_c, 3, 7, 55
4, 197154, Note_on_c, 3, 60, 88
4, 197196, Control_c, 3, 7, 57
4, 197202, Note_off_c, 3, 58, 0
4, 197289, Control_c, 3, 7, 59
4, 197382, Control_c, 3, 7, 62
4, 197475, Control_c, 3, 7, 64
4, 197568, Control_c, 3, 7, 66
4, 197661, Control_c, 3, 7, 67
4, 197662, Note_on_c, 3, 56, 88
4, 197713, Note_off_c, 3, 60, 0
4, 197754, Control_c, 3, 7, 69
4, 197847, Control_c, 3, 7, 70
4, 197940, Control_c, 3, 7, 72
4, 198378, Control_c, 3, 7, 73
4, 198475, Control_c, 3, 7, 72
4, 198669, Control_c, 3, 7, 71
4, 198677, Note_on_c, 3, 55, 88
4, 198728, Note_off_c, 3, 56, 0
4, 198863, Control_c, 3, 7, 70
4, 198960, Control_c, 3, 7, 69
4, 199057, Control_c, 3, 7, 68
4, 199154, Control_c, 3, 7, 66
4, 199187, Note_on_c, 3, 54, 88
4, 199238, Note_off_c, 3, 55, 0
4, 199251, Control_c, 3, 7, 65
4, 199348, Control_c, 3, 7, 64
4, 199445, Control_c, 3, 7, 62
4, 199542, Control_c, 3, 7, 61
4, 199639, Control_c, 3, 7, 59
4, 199692, Note_on_c, 3, 55, 88
4, 199736, Control_c, 3, 7, 58
4, 199743, Note_off_c, 3, 54, 0
4, 199833, Control_c, 3, 7, 57
4, 199930, Control_c, 3, 7, 55
4, 200027, Control_c, 3, 7, 54
4, 200124, Control_c, 3, 7, 53
4, 200221, Control_c, 3, 7, 52
4, 200415, Control_c, 3, 7, 51
4, 200708, Note_on_c, 3, 48, 83
4, 200755, Note_off_c, 3, 55, 0
4, 201097, Control_c, 3, 7, 52
4, 201190, Control_c, 3, 7, 53
4, 201283, Control_c, 3, 7, 55
4, 201376, Control_c, 3, 7, 57
4, 201469, Control_c, 3, 7, 59
4, 201562, Control_c, 3, 7, 62
4, 201655, Control_c, 3, 7, 64
4, 201748, Control_c, 3, 7, 66
4, 201841, Control_c, 3, 7, 67
4, 201934, Control_c, 3, 7, 68
4, 202241, Control_c, 3, 7, 69
4, 202336, Control_c, 3, 7, 68
4, 202431, Control_c, 3, 7, 67
4, 202526, Control_c, 3, 7, 66
4, 202621, Control_c, 3, 7, 64
4, 202716, Control_c, 3, 7, 62
4, 202811, Control_c, 3, 7, 60
4, 202906, Control_c, 3, 7, 57
4, 203001, Control_c, 3, 7, 55
4, 203096, Control_c, 3, 7, 52
4, 203191, Control_c, 3, 7, 49
4, 203286, Control_c, 3, 7, 47
4, 203381, Control_c, 3, 7, 45
4, 203476, Control_c, 3, 7, 43
4, 203571, Control_c, 3, 7, 42
4, 203666, Control_c, 3, 7, 41
4, 203686, Note_off_c, 3, 48, 0
4, 203761, Control_c, 3, 7, 40
4, 212969, Control_c, 3, 7, 63
4, 212996, Note_on_c, 3, 58, 101
4, 213476, Note_off_c, 3, 58, 0
4, 213538, Note_on_c, 3, 46, 121
4, 213984, Note_off_c, 3, 46, 0
4, 214265, Control_c, 3, 7, 64
4, 214358, Control_c, 3, 7, 65
4, 214451, Control_c, 3, 7, 66
4, 214544, Control_c, 3, 7, 67
4, 214551, Note_on_c, 3, 49, 96
4, 214637, Control_c, 3, 7, 68
4, 214730, Control_c, 3, 7, 69
4, 214742, Note_off_c, 3, 49, 0
4, 214799, Note_on_c, 3, 46, 96
4, 214823, Control_c, 3, 7, 71
4, 214916, Control_c, 3, 7, 72
4, 215004, Note_off_c, 3, 46, 0
4, 215009, Control_c, 3, 7, 74
4, 215061, Note_on_c, 3, 52, 99
4, 215102, Control_c, 3, 7, 75
4, 215195, Control_c, 3, 7, 77
4, 215288, Control_c, 3, 7, 78
4, 215381, Control_c, 3, 7, 80
4, 215474, Control_c, 3, 7, 82
4, 215567, Control_c, 3, 7, 83
4, 215660, Control_c, 3, 7, 85
4, 215753, Control_c, 3, 7, 86
4, 215846, Control_c, 3, 7, 88
4, 215939, Control_c, 3, 7, 89
4, 216032, Control_c, 3, 7, 90
4, 216125, Control_c, 3, 7, 91
4, 216218, Control_c, 3, 7, 92
4, 216311, Control_c, 3, 7, 93
4, 216404, Control_c, 3, 7, 94
4, 217026, Note_off_c, 3, 52, 0
4, 217092, Note_on_c, 3, 53, 101
4, 217295, Control_c, 3, 7, 63
4, 217386, Control_c, 3, 7, 64
4, 217477, Control_c, 3, 7, 65
4, 217568, Control_c, 3, 7, 66
4, 217572, Note_off_c, 3, 53, 0
4, 217634, Note_on_c, 3, 41, 121
4, 217659, Control_c, 3, 7, 67
4, 217750, Control_c, 3, 7, 68
4, 217841, Control_c, 3, 7, 69
4, 217932, Control_c, 3, 7, 70
4, 218023, Control_c, 3, 7, 71
4, 218080, Note_off_c, 3, 41, 0
4, 218114, Control_c, 3, 7, 73
4, 218205, Control_c, 3, 7, 74
4, 218296, Control_c, 3, 7, 75
4, 218387, Control_c, 3, 7, 76
4, 218478, Control_c, 3, 7, 77
4, 218569, Control_c, 3, 7, 78
4, 218647, Note_on_c, 3, 49, 96
4, 218660, Control_c, 3, 7, 79
4, 218751, Control_c, 3, 7, 80
4, 218838, Note_off_c, 3, 49, 0
4, 218842, Control_c, 3, 7, 81
4, 218895, Note_on_c, 3, 46, 96
4, 218933, Control_c, 3, 7, 83
4, 219024, Control_c, 3, 7, 84
4, 219100, Note_off_c, 3, 46, 0
4, 219115, Control_c, 3, 7, 85
4, 219157, Note_on_c, 3, 44, 99
4, 219206, Control_c, 3, 7, 86
4, 219297, Control_c, 3, 7, 87
4, 219388, Control_c, 3, 7, 88
4, 219479, Control_c, 3, 7, 89
4, 219570, Control_c, 3, 7, 90
4, 219661, Control_c, 3, 7, 91
4, 219752, Control_c, 3, 7, 93
4, 219843, Control_c, 3, 7, 94
4, 219934, Control_c, 3, 7, 95
4, 220025, Control_c, 3, 7, 96
4, 220116, Control_c, 3, 7, 97
4, 220207, Control_c, 3, 7, 98
4, 220298, Control_c, 3, 7, 99
4, 220389, Control_c, 3, 7, 100
4, 220480, Control_c, 3, 7, 101
4, 220571, Control_c, 3, 7, 103
4, 220662, Control_c, 3, 7, 104
4, 220753, Control_c, 3, 7, 105
4, 220844, Control_c, 3, 7, 106
4, 220936, Control_c, 3, 7, 107
4, 221027, Control_c, 3, 7, 108
4, 221118, Control_c, 3, 7, 109
4, 221122, Note_off_c, 3, 44, 0
4, 221162, Control_c, 3, 7, 110
4, 221188, Note_on_c, 3, 46, 89
4, 221373, Control_c, 3, 7, 103
4, 221406, Control_c, 3, 7, 96
4, 221439, Control_c, 3, 7, 89
4, 221471, Control_c, 3, 7, 83
4, 221504, Control_c, 3, 7, 76
4, 221537, Control_c, 3, 7, 69
4, 221570, Control_c, 3, 7, 62
4, 221603, Control_c, 3, 7, 56
4, 221671, Note_off_c, 3, 46, 0
4, 225189, Control_c, 3, 7, 43
4, 225284, Note_on_c, 3, 53, 83
4, 225613, Note_off_c, 3, 53, 0
4, 226075, Note_on_c, 3, 52, 78
4, 226277, Note_off_c, 3, 52, 0
4, 226334, Note_on_c, 3, 51, 79
4, 226531, Note_off_c, 3, 51, 0
4, 226839, Note_on_c, 3, 49, 78
4, 227041, Note_off_c, 3, 49, 0
4, 227349, Note_on_c, 3, 44, 78
4, 227859, Note_on_c, 3, 46, 73
4, 227910, Note_off_c, 3, 44, 0
4, 228262, Note_off_c, 3, 46, 0
4, 232425, Control_c, 3, 7, 76
4, 232460, Note_on_c, 3, 53, 41
4, 233012, Control_c, 3, 7, 77
4, 233108, Control_c, 3, 7, 78
4, 233204, Control_c, 3, 7, 79
4, 233300, Control_c, 3, 7, 80
4, 233396, Control_c, 3, 7, 81
4, 233462, Note_off_c, 3, 53, 0
4, 233476, Note_on_c, 3, 41, 54
4, 233492, Control_c, 3, 7, 83
4, 233588, Control_c, 3, 7, 84
4, 233684, Control_c, 3, 7, 86
4, 233780, Control_c, 3, 7, 87
4, 233876, Control_c, 3, 7, 89
4, 233972, Control_c, 3, 7, 90
4, 234068, Control_c, 3, 7, 92
4, 234164, Control_c, 3, 7, 94
4, 234260, Control_c, 3, 7, 95
4, 234356, Control_c, 3, 7, 97
4, 234452, Control_c, 3, 7, 99
4, 234516, Note_off_c, 3, 41, 0
4, 234526, Note_on_c, 3, 48, 41
4, 234548, Control_c, 3, 7, 100
4, 234644, Control_c, 3, 7, 102
4, 234740, Control_c, 3, 7, 103
4, 234836, Control_c, 3, 7, 104
4, 234932, Control_c, 3, 7, 105
4, 235028, Control_c, 3, 7, 106
4, 235124, Control_c, 3, 7, 107
4, 235220, Control_c, 3, 7, 108
4, 235514, Control_c, 3, 7, 109
4, 235531, Note_off_c, 3, 48, 0
4, 235541, Note_on_c, 3, 40, 52
4, 236546, Note_off_c, 3, 40, 0
4, 236556, Note_on_c, 3, 46, 50
4, 236999, Note_off_c, 3, 46, 0
4, 237477, Control_c, 3, 7, 76
4, 237572, Note_on_c, 3, 46, 57
4, 238007, Note_off_c, 3, 46, 0
4, 239593, Control_c, 3, 7, 54
4, 239637, Note_on_c, 3, 49, 69
4, 240590, Note_off_c, 3, 49, 0
4, 240652, Note_on_c, 3, 54, 67
4, 241602, Note_off_c, 3, 54, 0
4, 241668, Note_on_c, 3, 53, 71
4, 242103, Note_off_c, 3, 53, 0
4, 243733, Note_on_c, 3, 49, 69
4, 243905, Control_c, 3, 7, 55
4, 243906, Control_c, 3, 7, 54
4, 244093, Control_c, 3, 7, 56
4, 244281, Control_c, 3, 7, 57
4, 244469, Control_c, 3, 7, 58
4, 244563, Control_c, 3, 7, 59
4, 244657, Control_c, 3, 7, 60
4, 244686, Note_off_c, 3, 49, 0
4, 244748, Note_on_c, 3, 47, 67
4, 244752, Control_c, 3, 7, 55
4, 244845, Control_c, 3, 7, 61
4, 244939, Control_c, 3, 7, 62
4, 245033, Control_c, 3, 7, 63
4, 245034, Control_c, 3, 7, 56
4, 245127, Control_c, 3, 7, 64
4, 245221, Control_c, 3, 7, 65
4, 245315, Control_c, 3, 7, 66
4, 245316, Control_c, 3, 7, 57
4, 245409, Control_c, 3, 7, 67
4, 245503, Control_c, 3, 7, 68
4, 245597, Control_c, 3, 7, 69
4, 245598, Control_c, 3, 7, 58
4, 245691, Control_c, 3, 7, 70
4, 245698, Note_off_c, 3, 47, 0
4, 245764, Note_on_c, 3, 46, 71
4, 245785, Control_c, 3, 7, 71
4, 245786, Control_c, 3, 7, 59
4, 245879, Control_c, 3, 7, 73
4, 245973, Control_c, 3, 7, 74
4, 246067, Control_c, 3, 7, 75
4, 246068, Control_c, 3, 7, 60
4, 246161, Control_c, 3, 7, 76
4, 246199, Note_off_c, 3, 46, 0
4, 246255, Control_c, 3, 7, 77
4, 246256, Control_c, 3, 7, 61
4, 246349, Control_c, 3, 7, 79
4, 246443, Control_c, 3, 7, 80
4, 246444, Control_c, 3, 7, 62
4, 246537, Control_c, 3, 7, 81
4, 246631, Control_c, 3, 7, 82
4, 246632, Control_c, 3, 7, 63
4, 246725, Control_c, 3, 7, 83
4, 246819, Control_c, 3, 7, 85
4, 246820, Control_c, 3, 7, 64
4, 246913, Control_c, 3, 7, 86
4, 247007, Control_c, 3, 7, 87
4, 247008, Control_c, 3, 7, 65
4, 247101, Control_c, 3, 7, 88
4, 247195, Control_c, 3, 7, 89
4, 247196, Control_c, 3, 7, 66
4, 247289, Control_c, 3, 7, 91
4, 247383, Control_c, 3, 7, 92
4, 247384, Control_c, 3, 7, 67
4, 247477, Control_c, 3, 7, 93
4, 247571, Control_c, 3, 7, 94
4, 247572, Control_c, 3, 7, 68
4, 247665, Control_c, 3, 7, 95
4, 247759, Control_c, 3, 7, 96
4, 247760, Control_c, 3, 7, 69
4, 247829, Note_on_c, 3, 49, 69
4, 247853, Control_c, 3, 7, 97
4, 247947, Control_c, 3, 7, 98
4, 247948, Control_c, 3, 7, 70
4, 248041, Control_c, 3, 7, 99
4, 248135, Control_c, 3, 7, 100
4, 248229, Control_c, 3, 7, 101
4, 248230, Control_c, 3, 7, 71
4, 248323, Control_c, 3, 7, 102
4, 248417, Control_c, 3, 7, 103
4, 248418, Control_c, 3, 7, 72
4, 248511, Control_c, 3, 7, 104
4, 248699, Control_c, 3, 7, 105
4, 248700, Control_c, 3, 7, 73
4, 248782, Note_off_c, 3, 49, 0
4, 248793, Control_c, 3, 7, 106
4, 248844, Note_on_c, 3, 51, 67
4, 248981, Control_c, 3, 7, 107
4, 249075, Control_c, 3, 7, 108
4, 249076, Control_c, 3, 7, 74
4, 249357, Control_c, 3, 7, 109
4, 249610, Note_off_c, 3, 51, 0
4, 249833, Control_c, 3, 7, 98
4, 249860, Note_on_c, 3, 52, 74
4, 250848, Note_off_c, 3, 52, 0
4, 250910, Note_on_c, 3, 49, 69
4, 251415, Note_on_c, 3, 45, 69
4, 251466, Note_off_c, 3, 49, 0
4, 251925, Note_on_c, 3, 46, 64
4, 251976, Note_off_c, 3, 45, 0
4, 252333, Note_off_c, 3, 46, 0
4, 253929, Control_c, 3, 7, 59
4, 253956, Note_on_c, 3, 46, 67
4, 254391, Note_off_c, 3, 46, 0
4, 254662, Control_c, 3, 7, 60
4, 254755, Control_c, 3, 7, 62
4, 254848, Control_c, 3, 7, 64
4, 254941, Control_c, 3, 7, 66
4, 255034, Control_c, 3, 7, 68
4, 255127, Control_c, 3, 7, 70
4, 255220, Control_c, 3, 7, 72
4, 255313, Control_c, 3, 7, 74
4, 255406, Control_c, 3, 7, 76
4, 255499, Control_c, 3, 7, 78
4, 255592, Control_c, 3, 7, 80
4, 255685, Control_c, 3, 7, 82
4, 255778, Control_c, 3, 7, 84
4, 255871, Control_c, 3, 7, 86
4, 255964, Control_c, 3, 7, 88
4, 256021, Note_on_c, 3, 49, 65
4, 256057, Control_c, 3, 7, 90
4, 256150, Control_c, 3, 7, 92
4, 256243, Control_c, 3, 7, 94
4, 256336, Control_c, 3, 7, 96
4, 256429, Control_c, 3, 7, 98
4, 256522, Control_c, 3, 7, 100
4, 256615, Control_c, 3, 7, 102
4, 256708, Control_c, 3, 7, 104
4, 256801, Control_c, 3, 7, 105
4, 256894, Control_c, 3, 7, 107
4, 256974, Note_off_c, 3, 49, 0
4, 256987, Control_c, 3, 7, 109
4, 257009, Control_c, 3, 7, 110
4, 257036, Note_on_c, 3, 54, 63
4, 257986, Note_off_c, 3, 54, 0
4, 258048, Control_c, 3, 7, 59
4, 258052, Note_on_c, 3, 53, 67
4, 258487, Note_off_c, 3, 53, 0
4, 258700, Control_c, 3, 7, 60
4, 258795, Control_c, 3, 7, 62
4, 258890, Control_c, 3, 7, 64
4, 258985, Control_c, 3, 7, 66
4, 259080, Control_c, 3, 7, 68
4, 259175, Control_c, 3, 7, 70
4, 259270, Control_c, 3, 7, 72
4, 259365, Control_c, 3, 7, 74
4, 259460, Control_c, 3, 7, 76
4, 259555, Control_c, 3, 7, 78
4, 259650, Control_c, 3, 7, 80
4, 259745, Control_c, 3, 7, 82
4, 259840, Control_c, 3, 7, 84
4, 259935, Control_c, 3, 7, 86
4, 260030, Control_c, 3, 7, 88
4, 260117, Note_on_c, 3, 49, 65
4, 260125, Control_c, 3, 7, 90
4, 260220, Control_c, 3, 7, 92
4, 260315, Control_c, 3, 7, 94
4, 260410, Control_c, 3, 7, 96
4, 260505, Control_c, 3, 7, 98
4, 260600, Control_c, 3, 7, 99
4, 260695, Control_c, 3, 7, 101
4, 260790, Control_c, 3, 7, 103
4, 260885, Control_c, 3, 7, 105
4, 260980, Control_c, 3, 7, 107
4, 261070, Note_off_c, 3, 49, 0
4, 261075, Control_c, 3, 7, 109
4, 261105, Control_c, 3, 7, 110
4, 261132, Note_on_c, 3, 47, 63
4, 262082, Note_off_c, 3, 47, 0
4, 262144, Control_c, 3, 7, 51
4, 262148, Note_on_c, 3, 46, 73
4, 262583, Note_off_c, 3, 46, 0
4, 264213, Note_on_c, 3, 49, 71
4, 265030, Control_c, 3, 7, 52
4, 265166, Note_off_c, 3, 49, 0
4, 265214, Control_c, 3, 7, 53
4, 265228, Note_on_c, 3, 51, 69
4, 265398, Control_c, 3, 7, 54
4, 265582, Control_c, 3, 7, 55
4, 265766, Control_c, 3, 7, 56
4, 265858, Control_c, 3, 7, 57
4, 266042, Control_c, 3, 7, 58
4, 266134, Control_c, 3, 7, 59
4, 266178, Note_off_c, 3, 51, 0
4, 266226, Control_c, 3, 7, 60
4, 266244, Note_on_c, 3, 52, 73
4, 266318, Control_c, 3, 7, 61
4, 266502, Control_c, 3, 7, 62
4, 266594, Control_c, 3, 7, 63
4, 266686, Control_c, 3, 7, 64
4, 266778, Control_c, 3, 7, 65
4, 266870, Control_c, 3, 7, 66
4, 266962, Control_c, 3, 7, 67
4, 267054, Control_c, 3, 7, 68
4, 267146, Control_c, 3, 7, 69
4, 267232, Note_off_c, 3, 52, 0
4, 267294, Note_on_c, 3, 46, 69
4, 267330, Control_c, 3, 7, 70
4, 267422, Control_c, 3, 7, 71
4, 267514, Control_c, 3, 7, 72
4, 267606, Control_c, 3, 7, 73
4, 267698, Control_c, 3, 7, 74
4, 267790, Control_c, 3, 7, 75
4, 267882, Control_c, 3, 7, 76
4, 267974, Control_c, 3, 7, 77
4, 268066, Control_c, 3, 7, 78
4, 268158, Control_c, 3, 7, 79
4, 268247, Note_off_c, 3, 46, 0
4, 268309, Note_on_c, 3, 45, 71
4, 268342, Control_c, 3, 7, 80
4, 268434, Control_c, 3, 7, 81
4, 268526, Control_c, 3, 7, 82
4, 268618, Control_c, 3, 7, 83
4, 268802, Control_c, 3, 7, 84
4, 268894, Control_c, 3, 7, 85
4, 268986, Control_c, 3, 7, 86
4, 269170, Control_c, 3, 7, 87
4, 269262, Note_off_c, 3, 45, 0
4, 269324, Note_on_c, 3, 44, 69
4, 269354, Control_c, 3, 7, 88
4, 269538, Control_c, 3, 7, 89
4, 269814, Control_c, 3, 7, 90
4, 270275, Note_off_c, 3, 44, 0
4, 270313, Control_c, 3, 7, 91
4, 270340, Note_on_c, 3, 49, 78
4, 270820, Note_off_c, 3, 49, 0
4, 270882, Note_on_c, 3, 37, 98
4, 271328, Note_off_c, 3, 37, 0
4, 271895, Note_on_c, 3, 53, 73
4, 272086, Note_off_c, 3, 53, 0
4, 272143, Note_on_c, 3, 49, 73
4, 272348, Note_off_c, 3, 49, 0
4, 272405, Note_on_c, 3, 56, 76
4, 272578, Control_c, 3, 7, 92
4, 272678, Control_c, 3, 7, 95
4, 272778, Control_c, 3, 7, 97
4, 272878, Control_c, 3, 7, 100
4, 272978, Control_c, 3, 7, 103
4, 273078, Control_c, 3, 7, 105
4, 273178, Control_c, 3, 7, 108
4, 273278, Control_c, 3, 7, 109
4, 273393, Control_c, 3, 7, 110
4, 273483, Control_c, 3, 7, 109
4, 273573, Control_c, 3, 7, 108
4, 273663, Control_c, 3, 7, 106
4, 273753, Control_c, 3, 7, 104
4, 273843, Control_c, 3, 7, 101
4, 273933, Control_c, 3, 7, 99
4, 274023, Control_c, 3, 7, 96
4, 274113, Control_c, 3, 7, 94
4, 274204, Control_c, 3, 7, 92
4, 274294, Control_c, 3, 7, 91
4, 274431, Note_off_c, 3, 56, 0
4, 274436, Note_on_c, 3, 56, 78
4, 274919, Note_off_c, 3, 56, 0
4, 274978, Note_on_c, 3, 44, 98
4, 275424, Note_off_c, 3, 44, 0
4, 275991, Note_on_c, 3, 53, 73
4, 276182, Note_off_c, 3, 53, 0
4, 276239, Note_on_c, 3, 49, 73
4, 276346, Note_off_c, 3, 49, 0
4, 276501, Note_on_c, 3, 49, 76
4, 277454, Note_off_c, 3, 49, 0
4, 277516, Note_on_c, 3, 48, 74
4, 278466, Note_off_c, 3, 48, 0
4, 278532, Note_on_c, 3, 49, 78
4, 279012, Note_off_c, 3, 49, 0
4, 279074, Note_on_c, 3, 37, 98
4, 279520, Note_off_c, 3, 37, 0
4, 280087, Note_on_c, 3, 53, 73
4, 280278, Note_off_c, 3, 53, 0
4, 280335, Note_on_c, 3, 49, 73
4, 280540, Note_off_c, 3, 49, 0
4, 280597, Note_on_c, 3, 56, 76
4, 280770, Control_c, 3, 7, 92
4, 280870, Control_c, 3, 7, 95
4, 280970, Control_c, 3, 7, 97
4, 281070, Control_c, 3, 7, 100
4, 281170, Control_c, 3, 7, 103
4, 281270, Control_c, 3, 7, 105
4, 281370, Control_c, 3, 7, 108
4, 281470, Control_c, 3, 7, 109
4, 281585, Control_c, 3, 7, 110
4, 281675, Control_c, 3, 7, 109
4, 281765, Control_c, 3, 7, 108
4, 281855, Control_c, 3, 7, 106
4, 281945, Control_c, 3, 7, 104
4, 282035, Control_c, 3, 7, 101
4, 282125, Control_c, 3, 7, 99
4, 282215, Control_c, 3, 7, 96
4, 282305, Control_c, 3, 7, 94
4, 282396, Control_c, 3, 7, 92
4, 282486, Control_c, 3, 7, 91
4, 282623, Note_off_c, 3, 56, 0
4, 282628, Note_on_c, 3, 56, 78
4, 283111, Note_off_c, 3, 56, 0
4, 283170, Note_on_c, 3, 44, 98
4, 283616, Note_off_c, 3, 44, 0
4, 284183, Note_on_c, 3, 48, 73
4, 284631, Note_off_c, 3, 48, 0
4, 284693, Note_on_c, 3, 49, 76
4, 285141, Note_off_c, 3, 49, 0
4, 286697, Control_c, 3, 7, 34
4, 286724, Note_on_c, 3, 37, 109
4, 286885, Control_c, 3, 7, 35
4, 286979, Control_c, 3, 7, 36
4, 287073, Control_c, 3, 7, 38
4, 287167, Control_c, 3, 7, 40
4, 287261, Control_c, 3, 7, 42
4, 287355, Control_c, 3, 7, 44
4, 287449, Control_c, 3, 7, 46
4, 287543, Control_c, 3, 7, 47
4, 287637, Control_c, 3, 7, 48
4, 287747, Control_c, 3, 7, 49
4, 287847, Control_c, 3, 7, 48
4, 288047, Control_c, 3, 7, 47
4, 288147, Control_c, 3, 7, 46
4, 288247, Control_c, 3, 7, 44
4, 288347, Control_c, 3, 7, 43
4, 288447, Control_c, 3, 7, 42
4, 288547, Control_c, 3, 7, 41
4, 288727, Note_off_c, 3, 37, 0
4, 288789, Note_on_c, 3, 49, 107
4, 289237, Note_off_c, 3, 49, 0
4, 289299, Note_on_c, 3, 37, 124
4, 289742, Note_off_c, 3, 37, 0
4, 290309, Note_on_c, 3, 40, 104
4, 290500, Note_off_c, 3, 40, 0
4, 290557, Note_on_c, 3, 37, 104
4, 290759, Note_off_c, 3, 37, 0
4, 290820, Note_on_c, 3, 40, 109
4, 291075, Control_c, 3, 7, 42
4, 291169, Control_c, 3, 7, 43
4, 291263, Control_c, 3, 7, 44
4, 291357, Control_c, 3, 7, 45
4, 291451, Control_c, 3, 7, 46
4, 291545, Control_c, 3, 7, 47
4, 291639, Control_c, 3, 7, 48
4, 291843, Control_c, 3, 7, 49
4, 291943, Control_c, 3, 7, 48
4, 292143, Control_c, 3, 7, 47
4, 292243, Control_c, 3, 7, 46
4, 292343, Control_c, 3, 7, 44
4, 292443, Control_c, 3, 7, 43
4, 292543, Control_c, 3, 7, 42
4, 292643, Control_c, 3, 7, 41
4, 292823, Note_off_c, 3, 40, 0
4, 292885, Note_on_c, 3, 49, 107
4, 293333, Note_off_c, 3, 49, 0
4, 293395, Note_on_c, 3, 37, 124
4, 293838, Note_off_c, 3, 37, 0
4, 294405, Note_on_c, 3, 40, 104
4, 294596, Note_off_c, 3, 40, 0
4, 294653, Note_on_c, 3, 37, 104
4, 294757, Note_off_c, 3, 37, 0
4, 294916, Note_on_c, 3, 37, 109
4, 296919, Note_off_c, 3, 37, 0
4, 296981, Note_on_c, 3, 49, 107
4, 297429, Note_off_c, 3, 49, 0
4, 297491, Note_on_c, 3, 37, 124
4, 297934, Note_off_c, 3, 37, 0
4, 298009, Control_c, 3, 7, 42
4, 298389, Control_c, 3, 7, 43
4, 298501, Note_on_c, 3, 40, 104
4, 298674, Control_c, 3, 7, 44
4, 298692, Note_off_c, 3, 40, 0
4, 298749, Note_on_c, 3, 37, 104
4, 298951, Note_off_c, 3, 37, 0
4, 298959, Control_c, 3, 7, 45
4, 299012, Note_on_c, 3, 40, 109
4, 299244, Control_c, 3, 7, 46
4, 299624, Control_c, 3, 7, 47
4, 299909, Control_c, 3, 7, 48
4, 300000, Note_off_c, 3, 40, 0
4, 300062, Note_on_c, 3, 45, 105
4, 300289, Control_c, 3, 7, 49
4, 301015, Note_off_c, 3, 45, 0
4, 301050, Control_c, 3, 7, 50
4, 301077, Note_on_c, 3, 44, 114
4, 302030, Note_off_c, 3, 44, 0
4, 302092, Note_on_c, 3, 49, 112
4, 302535, Note_off_c, 3, 49, 0
4, 303081, Control_c, 3, 7, 110
4, 303108, Note_on_c, 3, 37, 127
4, 303739, Control_c, 3, 7, 104
4, 303834, Control_c, 3, 7, 99
4, 303929, Control_c, 3, 7, 93
4, 304024, Control_c, 3, 7, 88
4, 304119, Control_c, 3, 7, 82
4, 304214, Control_c, 3, 7, 77
4, 304309, Control_c, 3, 7, 71
4, 304404, Control_c, 3, 7, 66
4, 304499, Control_c, 3, 7, 61
4, 304594, Control_c, 3, 7, 55
4, 304689, Control_c, 3, 7, 50
4, 304967, Note_off_c, 3, 37, 0
4, 305173, Note_on_c, 3, 49, 114
4, 305621, Note_off_c, 3, 49, 0
4, 305683, Note_on_c, 3, 37, 127
4, 306126, Note_off_c, 3, 37, 0
4, 306303, Control_c, 3, 7, 47
4, 306405, Control_c, 3, 7, 52
4, 306507, Control_c, 3, 7, 58
4, 306609, Control_c, 3, 7, 63
4, 306693, Note_on_c, 3, 40, 111
4, 306711, Control_c, 3, 7, 69
4, 306813, Control_c, 3, 7, 74
4, 306884, Note_off_c, 3, 40, 0
4, 306915, Control_c, 3, 7, 80
4, 306941, Note_on_c, 3, 37, 111
4, 307017, Control_c, 3, 7, 85
4, 307119, Control_c, 3, 7, 91
4, 307143, Note_off_c, 3, 37, 0
4, 307177, Control_c, 3, 7, 110
4, 307204, Note_on_c, 3, 40, 127
4, 307828, Control_c, 3, 7, 104
4, 307922, Control_c, 3, 7, 99
4, 308016, Control_c, 3, 7, 93
4, 308110, Control_c, 3, 7, 88
4, 308204, Control_c, 3, 7, 82
4, 308298, Control_c, 3, 7, 77
4, 308392, Control_c, 3, 7, 71
4, 308486, Control_c, 3, 7, 66
4, 308580, Control_c, 3, 7, 61
4, 308674, Control_c, 3, 7, 55
4, 308768, Control_c, 3, 7, 50
4, 309207, Note_off_c, 3, 40, 0
4, 309269, Note_on_c, 3, 49, 114
4, 309717, Note_off_c, 3, 49, 0
4, 309779, Note_on_c, 3, 37, 127
4, 310036, Control_c, 3, 7, 53
4, 310135, Control_c, 3, 7, 57
4, 310222, Note_off_c, 3, 37, 0
4, 310234, Control_c, 3, 7, 61
4, 310333, Control_c, 3, 7, 64
4, 310432, Control_c, 3, 7, 68
4, 310531, Control_c, 3, 7, 72
4, 310630, Control_c, 3, 7, 76
4, 310729, Control_c, 3, 7, 79
4, 310789, Note_on_c, 3, 40, 111
4, 310828, Control_c, 3, 7, 83
4, 310927, Control_c, 3, 7, 87
4, 310980, Note_off_c, 3, 40, 0
4, 311026, Control_c, 3, 7, 90
4, 311037, Note_on_c, 3, 37, 111
4, 311239, Note_off_c, 3, 37, 0
4, 311273, Control_c, 3, 7, 110
4, 311300, Note_on_c, 3, 41, 127
4, 311978, Control_c, 3, 7, 105
4, 312073, Control_c, 3, 7, 100
4, 312168, Control_c, 3, 7, 95
4, 312263, Control_c, 3, 7, 90
4, 312358, Control_c, 3, 7, 85
4, 312453, Control_c, 3, 7, 80
4, 312548, Control_c, 3, 7, 75
4, 312643, Control_c, 3, 7, 70
4, 312738, Control_c, 3, 7, 65
4, 312833, Control_c, 3, 7, 60
4, 312928, Control_c, 3, 7, 55
4, 313023, Control_c, 3, 7, 50
4, 313303, Note_off_c, 3, 41, 0
4, 313365, Note_on_c, 3, 49, 114
4, 313813, Note_off_c, 3, 49, 0
4, 313875, Note_on_c, 3, 37, 127
4, 314315, Control_c, 3, 7, 51
4, 314318, Note_off_c, 3, 37, 0
4, 314503, Control_c, 3, 7, 52
4, 314597, Control_c, 3, 7, 53
4, 314691, Control_c, 3, 7, 55
4, 314785, Control_c, 3, 7, 56
4, 314879, Control_c, 3, 7, 57
4, 314885, Note_on_c, 3, 41, 111
4, 314973, Control_c, 3, 7, 58
4, 315076, Note_off_c, 3, 41, 0
4, 315133, Note_on_c, 3, 37, 111
4, 315161, Control_c, 3, 7, 59
4, 315335, Note_off_c, 3, 37, 0
4, 315369, Control_c, 3, 7, 60
4, 315396, Note_on_c, 3, 42, 122
4, 316384, Note_off_c, 3, 42, 0
4, 316446, Note_on_c, 3, 54, 118
4, 316889, Note_off_c, 3, 54, 0
4, 316951, Note_on_c, 3, 42, 127
4, 317399, Note_off_c, 3, 42, 0
4, 317971, Note_on_c, 3, 45, 117
4, 318162, Note_off_c, 3, 45, 0
4, 318219, Note_on_c, 3, 42, 117
4, 318419, Note_off_c, 3, 42, 0
4, 318476, Note_on_c, 3, 40, 118
4, 319426, Note_off_c, 3, 40, 0
4, 319492, Note_on_c, 3, 38, 122
4, 319786, Control_c, 3, 7, 59
4, 320514, Control_c, 3, 7, 58
4, 320878, Control_c, 3, 7, 57
4, 321151, Control_c, 3, 7, 56
4, 321424, Control_c, 3, 7, 55
4, 321495, Note_off_c, 3, 38, 0
4, 321557, Note_on_c, 3, 44, 120
4, 321697, Control_c, 3, 7, 54
4, 321879, Control_c, 3, 7, 53
4, 322152, Control_c, 3, 7, 52
4, 322516, Control_c, 3, 7, 51
4, 322571, Note_off_c, 3, 44, 0
4, 322572, Note_on_c, 3, 44, 118
4, 322789, Control_c, 3, 7, 50
4, 323524, Note_off_c, 3, 44, 0
4, 323588, Note_on_c, 3, 37, 111
4, 323858, Control_c, 3, 7, 51
4, 323957, Control_c, 3, 7, 52
4, 324056, Control_c, 3, 7, 53
4, 324155, Control_c, 3, 7, 54
4, 324254, Control_c, 3, 7, 55
4, 324353, Control_c, 3, 7, 56
4, 324452, Control_c, 3, 7, 57
4, 324650, Control_c, 3, 7, 58
4, 324760, Control_c, 3, 7, 57
4, 325132, Control_c, 3, 7, 56
4, 325318, Control_c, 3, 7, 55
4, 325504, Control_c, 3, 7, 54
4, 325690, Control_c, 3, 7, 53
4, 325876, Control_c, 3, 7, 52
4, 326062, Control_c, 3, 7, 51
4, 326248, Control_c, 3, 7, 50
4, 326609, Note_off_c, 3, 37, 0
4, 327173, Note_on_c, 3, 39, 111
4, 327421, Note_on_c, 3, 40, 106
4, 327472, Note_off_c, 3, 39, 0
4, 327589, Note_off_c, 3, 40, 0
4, 327684, Note_on_c, 3, 42, 111
4, 328175, Control_c, 3, 7, 51
4, 328367, Control_c, 3, 7, 53
4, 328463, Control_c, 3, 7, 52
4, 328559, Control_c, 3, 7, 56
4, 328655, Control_c, 3, 7, 53
4, 328734, Note_on_c, 3, 44, 111
4, 328751, Control_c, 3, 7, 54
4, 328785, Note_off_c, 3, 42, 0
4, 328847, Control_c, 3, 7, 61
4, 328943, Control_c, 3, 7, 55
4, 329039, Control_c, 3, 7, 56
4, 329135, Control_c, 3, 7, 66
4, 329231, Control_c, 3, 7, 57
4, 329327, Control_c, 3, 7, 58
4, 329423, Control_c, 3, 7, 69
4, 329519, Control_c, 3, 7, 70
4, 329722, Control_c, 3, 7, 60
4, 329749, Note_on_c, 3, 45, 117
4, 329792, Note_off_c, 3, 44, 0
4, 329954, Control_c, 3, 7, 59
4, 329986, Control_c, 3, 7, 56
4, 330018, Control_c, 3, 7, 52
4, 330050, Control_c, 3, 7, 48
4, 330082, Control_c, 3, 7, 44
4, 330114, Control_c, 3, 7, 41
4, 330146, Control_c, 3, 7, 38
4, 330280, Control_c, 3, 7, 37
4, 330462, Control_c, 3, 7, 36
4, 330644, Control_c, 3, 7, 35
4, 330735, Control_c, 3, 7, 34
4, 330764, Note_on_c, 3, 44, 112
4, 330815, Note_off_c, 3, 45, 0
4, 330826, Control_c, 3, 7, 33
4, 330917, Control_c, 3, 7, 32
4, 331008, Control_c, 3, 7, 30
4, 331099, Control_c, 3, 7, 29
4, 331190, Control_c, 3, 7, 28
4, 331281, Control_c, 3, 7, 27
4, 331372, Control_c, 3, 7, 26
4, 331555, Control_c, 3, 7, 25
4, 331581, Note_off_c, 3, 44, 0
4, 331776, Control_c, 3, 7, 73
4, 331780, Note_on_c, 3, 42, 87
4, 331998, Control_c, 3, 7, 74
4, 332012, Control_c, 3, 7, 78
4, 332026, Control_c, 3, 7, 85
4, 332039, Control_c, 3, 7, 92
4, 332053, Control_c, 3, 7, 98
4, 332067, Control_c, 3, 7, 104
4, 332081, Control_c, 3, 7, 108
4, 332095, Control_c, 3, 7, 109
4, 332109, Control_c, 3, 7, 73
4, 332391, Control_c, 3, 7, 74
4, 332485, Control_c, 3, 7, 75
4, 332579, Control_c, 3, 7, 76
4, 332673, Control_c, 3, 7, 77
4, 332767, Control_c, 3, 7, 78
4, 332830, Note_on_c, 3, 44, 87
4, 332861, Control_c, 3, 7, 80
4, 332878, Note_off_c, 3, 42, 0
4, 332955, Control_c, 3, 7, 81
4, 333049, Control_c, 3, 7, 82
4, 333143, Control_c, 3, 7, 84
4, 333237, Control_c, 3, 7, 85
4, 333331, Control_c, 3, 7, 86
4, 333425, Control_c, 3, 7, 87
4, 333519, Control_c, 3, 7, 88
4, 333613, Control_c, 3, 7, 89
4, 333818, Control_c, 3, 7, 90
4, 333845, Note_on_c, 3, 45, 88
4, 333896, Note_off_c, 3, 44, 0
4, 334328, Control_c, 3, 7, 51
4, 334395, Control_c, 3, 7, 87
4, 334423, Control_c, 3, 7, 50
4, 334492, Control_c, 3, 7, 85
4, 334589, Control_c, 3, 7, 82
4, 334613, Control_c, 3, 7, 48
4, 334686, Control_c, 3, 7, 80
4, 334708, Control_c, 3, 7, 47
4, 334783, Control_c, 3, 7, 77
4, 334803, Control_c, 3, 7, 45
4, 334860, Note_on_c, 3, 44, 83
4, 334880, Control_c, 3, 7, 75
4, 334898, Control_c, 3, 7, 44
4, 334911, Note_off_c, 3, 45, 0
4, 334977, Control_c, 3, 7, 72
4, 334993, Control_c, 3, 7, 42
4, 335074, Control_c, 3, 7, 70
4, 335088, Control_c, 3, 7, 40
4, 335171, Control_c, 3, 7, 68
4, 335183, Control_c, 3, 7, 37
4, 335268, Control_c, 3, 7, 65
4, 335278, Control_c, 3, 7, 35
4, 335365, Control_c, 3, 7, 63
4, 335373, Control_c, 3, 7, 34
4, 335462, Control_c, 3, 7, 60
4, 335468, Control_c, 3, 7, 32
4, 335559, Control_c, 3, 7, 58
4, 335563, Control_c, 3, 7, 31
4, 335656, Control_c, 3, 7, 55
4, 335658, Control_c, 3, 7, 29
4, 335753, Control_c, 3, 7, 53
4, 335770, Note_off_c, 3, 44, 0
4, 335850, Control_c, 3, 7, 50
4, 340429, Control_c, 3, 7, 110
4, 340514, Note_on_c, 3, 44, 93
4, 341012, Note_off_c, 3, 44, 0
4, 341527, Note_on_c, 3, 44, 63
4, 342027, Note_off_c, 3, 44, 0
4, 342037, Note_on_c, 3, 37, 85
4, 342537, Note_off_c, 3, 37, 0
4, 343052, Note_on_c, 3, 37, 83
4, 343547, Note_off_c, 3, 37, 0
4, 343548, End_track
0, 0, End_of_file
